<mxfile host="app.diagrams.net" modified="2023-04-06T07:19:39.499Z" agent="Mozilla/5.0 (Windows NT 10.0; Win64; x64) AppleWebKit/537.36 (KHTML, like Gecko) Chrome/111.0.0.0 Safari/537.36" etag="e6UuwiOuz73iM0SD6IZA" version="21.1.4" type="github">
  <diagram id="C5RBs43oDa-KdzZeNtuy" name="Page-1">
    <mxGraphModel dx="2261" dy="796" grid="1" gridSize="10" guides="1" tooltips="1" connect="1" arrows="1" fold="1" page="1" pageScale="1" pageWidth="827" pageHeight="1169" math="0" shadow="0">
      <root>
        <mxCell id="WIyWlLk6GJQsqaUBKTNV-0" />
        <mxCell id="WIyWlLk6GJQsqaUBKTNV-1" parent="WIyWlLk6GJQsqaUBKTNV-0" />
        <mxCell id="KWgbuxi52lWq2ZlGSnJL-2" value="" style="edgeStyle=orthogonalEdgeStyle;rounded=0;orthogonalLoop=1;jettySize=auto;html=1;" parent="WIyWlLk6GJQsqaUBKTNV-1" source="KWgbuxi52lWq2ZlGSnJL-0" target="KWgbuxi52lWq2ZlGSnJL-1" edge="1">
          <mxGeometry relative="1" as="geometry" />
        </mxCell>
        <mxCell id="KWgbuxi52lWq2ZlGSnJL-0" value="Start" style="ellipse;whiteSpace=wrap;html=1;fillColor=#dae8fc;strokeColor=#6c8ebf;" parent="WIyWlLk6GJQsqaUBKTNV-1" vertex="1">
          <mxGeometry x="294" y="30" width="120" height="80" as="geometry" />
        </mxCell>
        <mxCell id="KWgbuxi52lWq2ZlGSnJL-4" value="" style="edgeStyle=orthogonalEdgeStyle;rounded=0;orthogonalLoop=1;jettySize=auto;html=1;" parent="WIyWlLk6GJQsqaUBKTNV-1" source="KWgbuxi52lWq2ZlGSnJL-1" target="KWgbuxi52lWq2ZlGSnJL-3" edge="1">
          <mxGeometry relative="1" as="geometry" />
        </mxCell>
        <mxCell id="KWgbuxi52lWq2ZlGSnJL-1" value="Profile" style="whiteSpace=wrap;html=1;fillColor=#dae8fc;strokeColor=#6c8ebf;" parent="WIyWlLk6GJQsqaUBKTNV-1" vertex="1">
          <mxGeometry x="294" y="150" width="120" height="60" as="geometry" />
        </mxCell>
        <mxCell id="KWgbuxi52lWq2ZlGSnJL-18" style="edgeStyle=orthogonalEdgeStyle;rounded=0;orthogonalLoop=1;jettySize=auto;html=1;fillColor=#fff2cc;strokeColor=#d6b656;" parent="WIyWlLk6GJQsqaUBKTNV-1" source="KWgbuxi52lWq2ZlGSnJL-3" target="KWgbuxi52lWq2ZlGSnJL-11" edge="1">
          <mxGeometry relative="1" as="geometry">
            <Array as="points">
              <mxPoint x="354" y="360" />
              <mxPoint x="210" y="360" />
            </Array>
          </mxGeometry>
        </mxCell>
        <mxCell id="KWgbuxi52lWq2ZlGSnJL-19" style="edgeStyle=orthogonalEdgeStyle;rounded=0;orthogonalLoop=1;jettySize=auto;html=1;fillColor=#fff2cc;strokeColor=#d6b656;" parent="WIyWlLk6GJQsqaUBKTNV-1" source="KWgbuxi52lWq2ZlGSnJL-3" target="KWgbuxi52lWq2ZlGSnJL-13" edge="1">
          <mxGeometry relative="1" as="geometry">
            <Array as="points">
              <mxPoint x="354" y="360" />
              <mxPoint x="490" y="360" />
            </Array>
          </mxGeometry>
        </mxCell>
        <mxCell id="KWgbuxi52lWq2ZlGSnJL-3" value="Address Page" style="whiteSpace=wrap;html=1;fillColor=#fff2cc;strokeColor=#d6b656;" parent="WIyWlLk6GJQsqaUBKTNV-1" vertex="1">
          <mxGeometry x="294" y="260" width="120" height="60" as="geometry" />
        </mxCell>
        <mxCell id="KWgbuxi52lWq2ZlGSnJL-16" value="" style="edgeStyle=orthogonalEdgeStyle;rounded=0;orthogonalLoop=1;jettySize=auto;html=1;fillColor=#fff2cc;strokeColor=#d6b656;" parent="WIyWlLk6GJQsqaUBKTNV-1" source="KWgbuxi52lWq2ZlGSnJL-11" target="KWgbuxi52lWq2ZlGSnJL-15" edge="1">
          <mxGeometry relative="1" as="geometry" />
        </mxCell>
        <mxCell id="KWgbuxi52lWq2ZlGSnJL-11" value="Edit Customer Address View" style="whiteSpace=wrap;html=1;fillColor=#fff2cc;strokeColor=#d6b656;" parent="WIyWlLk6GJQsqaUBKTNV-1" vertex="1">
          <mxGeometry x="150" y="390" width="120" height="60" as="geometry" />
        </mxCell>
        <mxCell id="KWgbuxi52lWq2ZlGSnJL-17" style="edgeStyle=orthogonalEdgeStyle;rounded=0;orthogonalLoop=1;jettySize=auto;html=1;fillColor=#fff2cc;strokeColor=#d6b656;" parent="WIyWlLk6GJQsqaUBKTNV-1" source="KWgbuxi52lWq2ZlGSnJL-13" target="KWgbuxi52lWq2ZlGSnJL-15" edge="1">
          <mxGeometry relative="1" as="geometry" />
        </mxCell>
        <mxCell id="KWgbuxi52lWq2ZlGSnJL-13" value="Edit Billing Address View" style="whiteSpace=wrap;html=1;fillColor=#fff2cc;strokeColor=#d6b656;" parent="WIyWlLk6GJQsqaUBKTNV-1" vertex="1">
          <mxGeometry x="430" y="390" width="120" height="60" as="geometry" />
        </mxCell>
        <mxCell id="KWgbuxi52lWq2ZlGSnJL-29" value="" style="edgeStyle=orthogonalEdgeStyle;rounded=0;orthogonalLoop=1;jettySize=auto;html=1;fillColor=#fff2cc;strokeColor=#d6b656;" parent="WIyWlLk6GJQsqaUBKTNV-1" source="KWgbuxi52lWq2ZlGSnJL-15" target="KWgbuxi52lWq2ZlGSnJL-25" edge="1">
          <mxGeometry relative="1" as="geometry" />
        </mxCell>
        <mxCell id="KWgbuxi52lWq2ZlGSnJL-30" value="" style="edgeStyle=orthogonalEdgeStyle;rounded=0;orthogonalLoop=1;jettySize=auto;html=1;fillColor=#fff2cc;strokeColor=#d6b656;" parent="WIyWlLk6GJQsqaUBKTNV-1" source="KWgbuxi52lWq2ZlGSnJL-15" target="KWgbuxi52lWq2ZlGSnJL-24" edge="1">
          <mxGeometry relative="1" as="geometry" />
        </mxCell>
        <mxCell id="KWgbuxi52lWq2ZlGSnJL-45" value="" style="edgeStyle=orthogonalEdgeStyle;rounded=0;orthogonalLoop=1;jettySize=auto;html=1;fillColor=#fff2cc;strokeColor=#d6b656;" parent="WIyWlLk6GJQsqaUBKTNV-1" source="KWgbuxi52lWq2ZlGSnJL-15" target="KWgbuxi52lWq2ZlGSnJL-39" edge="1">
          <mxGeometry relative="1" as="geometry" />
        </mxCell>
        <mxCell id="KWgbuxi52lWq2ZlGSnJL-15" value="Validate" style="rhombus;whiteSpace=wrap;html=1;fillColor=#fff2cc;strokeColor=#d6b656;" parent="WIyWlLk6GJQsqaUBKTNV-1" vertex="1">
          <mxGeometry x="320" y="490" width="80" height="80" as="geometry" />
        </mxCell>
        <mxCell id="KWgbuxi52lWq2ZlGSnJL-32" style="edgeStyle=orthogonalEdgeStyle;rounded=0;orthogonalLoop=1;jettySize=auto;html=1;entryX=0;entryY=0.5;entryDx=0;entryDy=0;fillColor=#fff2cc;strokeColor=#d6b656;" parent="WIyWlLk6GJQsqaUBKTNV-1" source="KWgbuxi52lWq2ZlGSnJL-25" target="KWgbuxi52lWq2ZlGSnJL-3" edge="1">
          <mxGeometry relative="1" as="geometry">
            <Array as="points">
              <mxPoint x="120" y="530" />
              <mxPoint x="120" y="290" />
            </Array>
          </mxGeometry>
        </mxCell>
        <mxCell id="KWgbuxi52lWq2ZlGSnJL-25" value="No Match Modal" style="whiteSpace=wrap;html=1;fillColor=#fff2cc;strokeColor=#d6b656;" parent="WIyWlLk6GJQsqaUBKTNV-1" vertex="1">
          <mxGeometry x="150" y="500" width="120" height="60" as="geometry" />
        </mxCell>
        <mxCell id="KWgbuxi52lWq2ZlGSnJL-31" style="edgeStyle=orthogonalEdgeStyle;rounded=0;orthogonalLoop=1;jettySize=auto;html=1;entryX=1;entryY=0.5;entryDx=0;entryDy=0;fillColor=#fff2cc;strokeColor=#d6b656;" parent="WIyWlLk6GJQsqaUBKTNV-1" source="KWgbuxi52lWq2ZlGSnJL-24" target="KWgbuxi52lWq2ZlGSnJL-3" edge="1">
          <mxGeometry relative="1" as="geometry">
            <Array as="points">
              <mxPoint x="600" y="530" />
              <mxPoint x="600" y="290" />
            </Array>
          </mxGeometry>
        </mxCell>
        <mxCell id="KWgbuxi52lWq2ZlGSnJL-24" value="Partial Match Modal" style="whiteSpace=wrap;html=1;fillColor=#fff2cc;strokeColor=#d6b656;" parent="WIyWlLk6GJQsqaUBKTNV-1" vertex="1">
          <mxGeometry x="440" y="500" width="120" height="60" as="geometry" />
        </mxCell>
        <mxCell id="KWgbuxi52lWq2ZlGSnJL-59" value="" style="edgeStyle=orthogonalEdgeStyle;rounded=0;orthogonalLoop=1;jettySize=auto;html=1;fillColor=#d5e8d4;strokeColor=#82b366;strokeWidth=2;" parent="WIyWlLk6GJQsqaUBKTNV-1" source="KWgbuxi52lWq2ZlGSnJL-33" target="KWgbuxi52lWq2ZlGSnJL-58" edge="1">
          <mxGeometry relative="1" as="geometry" />
        </mxCell>
        <mxCell id="KWgbuxi52lWq2ZlGSnJL-33" value="&lt;div&gt;&quot;Address is Match&quot; when both Billing and Customer Address are updated and &lt;font color=&quot;#ff00ff&quot;&gt;&lt;b&gt;&lt;u&gt;different&lt;/u&gt;&lt;/b&gt;&lt;/font&gt;&lt;/div&gt;&lt;div&gt;&lt;br&gt;&lt;/div&gt;" style="whiteSpace=wrap;html=1;fillColor=#fff2cc;strokeColor=#d6b656;" parent="WIyWlLk6GJQsqaUBKTNV-1" vertex="1">
          <mxGeometry x="640" y="720" width="160" height="80" as="geometry" />
        </mxCell>
        <mxCell id="KWgbuxi52lWq2ZlGSnJL-55" value="" style="edgeStyle=orthogonalEdgeStyle;rounded=0;orthogonalLoop=1;jettySize=auto;html=1;fillColor=#d5e8d4;strokeColor=#82b366;strokeWidth=2;" parent="WIyWlLk6GJQsqaUBKTNV-1" source="KWgbuxi52lWq2ZlGSnJL-41" target="KWgbuxi52lWq2ZlGSnJL-51" edge="1">
          <mxGeometry relative="1" as="geometry" />
        </mxCell>
        <mxCell id="KWgbuxi52lWq2ZlGSnJL-41" value="&lt;div&gt;&quot;Address is Match&quot; when only &lt;b&gt;&lt;font color=&quot;#ff00ff&quot;&gt;&lt;u&gt;Customer &lt;/u&gt;&lt;/font&gt;&lt;/b&gt;Address is updated&lt;/div&gt;" style="whiteSpace=wrap;html=1;fillColor=#fff2cc;strokeColor=#d6b656;" parent="WIyWlLk6GJQsqaUBKTNV-1" vertex="1">
          <mxGeometry x="-80" y="720" width="160" height="80" as="geometry" />
        </mxCell>
        <mxCell id="KWgbuxi52lWq2ZlGSnJL-57" value="" style="edgeStyle=orthogonalEdgeStyle;rounded=0;orthogonalLoop=1;jettySize=auto;html=1;fillColor=#d5e8d4;strokeColor=#82b366;strokeWidth=2;" parent="WIyWlLk6GJQsqaUBKTNV-1" source="KWgbuxi52lWq2ZlGSnJL-42" target="KWgbuxi52lWq2ZlGSnJL-53" edge="1">
          <mxGeometry relative="1" as="geometry" />
        </mxCell>
        <mxCell id="KWgbuxi52lWq2ZlGSnJL-42" value="&lt;div&gt;&quot;Address is Match&quot; when both Billing and Customer Address are updated and &lt;font color=&quot;#ff00ff&quot;&gt;&lt;b&gt;&lt;u&gt;same&lt;/u&gt;&lt;/b&gt;&lt;/font&gt;&lt;/div&gt;&lt;div&gt;&lt;br&gt;&lt;/div&gt;" style="whiteSpace=wrap;html=1;fillColor=#fff2cc;strokeColor=#d6b656;" parent="WIyWlLk6GJQsqaUBKTNV-1" vertex="1">
          <mxGeometry x="400" y="720" width="160" height="80" as="geometry" />
        </mxCell>
        <mxCell id="KWgbuxi52lWq2ZlGSnJL-46" style="edgeStyle=orthogonalEdgeStyle;rounded=0;orthogonalLoop=1;jettySize=auto;html=1;fillColor=#fff2cc;strokeColor=#d6b656;" parent="WIyWlLk6GJQsqaUBKTNV-1" source="KWgbuxi52lWq2ZlGSnJL-39" target="KWgbuxi52lWq2ZlGSnJL-41" edge="1">
          <mxGeometry relative="1" as="geometry">
            <Array as="points">
              <mxPoint x="360" y="680" />
              <mxPoint y="680" />
            </Array>
          </mxGeometry>
        </mxCell>
        <mxCell id="KWgbuxi52lWq2ZlGSnJL-47" style="edgeStyle=orthogonalEdgeStyle;rounded=0;orthogonalLoop=1;jettySize=auto;html=1;fillColor=#fff2cc;strokeColor=#d6b656;" parent="WIyWlLk6GJQsqaUBKTNV-1" source="KWgbuxi52lWq2ZlGSnJL-39" target="KWgbuxi52lWq2ZlGSnJL-44" edge="1">
          <mxGeometry relative="1" as="geometry" />
        </mxCell>
        <mxCell id="KWgbuxi52lWq2ZlGSnJL-48" style="edgeStyle=orthogonalEdgeStyle;rounded=0;orthogonalLoop=1;jettySize=auto;html=1;fillColor=#fff2cc;strokeColor=#d6b656;" parent="WIyWlLk6GJQsqaUBKTNV-1" source="KWgbuxi52lWq2ZlGSnJL-39" target="KWgbuxi52lWq2ZlGSnJL-42" edge="1">
          <mxGeometry relative="1" as="geometry" />
        </mxCell>
        <mxCell id="KWgbuxi52lWq2ZlGSnJL-49" style="edgeStyle=orthogonalEdgeStyle;rounded=0;orthogonalLoop=1;jettySize=auto;html=1;fillColor=#fff2cc;strokeColor=#d6b656;" parent="WIyWlLk6GJQsqaUBKTNV-1" source="KWgbuxi52lWq2ZlGSnJL-39" target="KWgbuxi52lWq2ZlGSnJL-33" edge="1">
          <mxGeometry relative="1" as="geometry">
            <Array as="points">
              <mxPoint x="360" y="680" />
              <mxPoint x="720" y="680" />
            </Array>
          </mxGeometry>
        </mxCell>
        <mxCell id="KWgbuxi52lWq2ZlGSnJL-39" value="Success Modal" style="whiteSpace=wrap;html=1;fillColor=#fff2cc;strokeColor=#d6b656;" parent="WIyWlLk6GJQsqaUBKTNV-1" vertex="1">
          <mxGeometry x="280" y="600" width="160" height="40" as="geometry" />
        </mxCell>
        <mxCell id="KWgbuxi52lWq2ZlGSnJL-56" value="" style="edgeStyle=orthogonalEdgeStyle;rounded=0;orthogonalLoop=1;jettySize=auto;html=1;fillColor=#d5e8d4;strokeColor=#82b366;strokeWidth=2;" parent="WIyWlLk6GJQsqaUBKTNV-1" source="KWgbuxi52lWq2ZlGSnJL-44" target="KWgbuxi52lWq2ZlGSnJL-54" edge="1">
          <mxGeometry relative="1" as="geometry" />
        </mxCell>
        <mxCell id="KWgbuxi52lWq2ZlGSnJL-44" value="&lt;div&gt;&quot;Address is Match&quot; when only &lt;font color=&quot;#ff00ff&quot;&gt;&lt;b&gt;&lt;u&gt;Billing &lt;/u&gt;&lt;/b&gt;&lt;/font&gt;Address is updated&lt;/div&gt;" style="whiteSpace=wrap;html=1;fillColor=#fff2cc;strokeColor=#d6b656;" parent="WIyWlLk6GJQsqaUBKTNV-1" vertex="1">
          <mxGeometry x="160" y="720" width="160" height="80" as="geometry" />
        </mxCell>
        <mxCell id="KWgbuxi52lWq2ZlGSnJL-61" style="edgeStyle=orthogonalEdgeStyle;rounded=0;orthogonalLoop=1;jettySize=auto;html=1;fillColor=#d5e8d4;strokeColor=#82b366;" parent="WIyWlLk6GJQsqaUBKTNV-1" source="KWgbuxi52lWq2ZlGSnJL-51" target="KWgbuxi52lWq2ZlGSnJL-64" edge="1">
          <mxGeometry relative="1" as="geometry">
            <mxPoint x="2.2737367544323206e-13" y="1310" as="targetPoint" />
            <Array as="points">
              <mxPoint y="1280" />
              <mxPoint x="360" y="1280" />
            </Array>
          </mxGeometry>
        </mxCell>
        <mxCell id="KWgbuxi52lWq2ZlGSnJL-51" value="" style="shape=image;verticalLabelPosition=bottom;labelBackgroundColor=default;verticalAlign=top;aspect=fixed;imageAspect=0;image=data:image/png,iVBORw0KGgoAAAANSUhEUgAAAXAAAAKUCAYAAAAdJGM2AAAAAXNSR0IArs4c6QAAAARnQU1BAACxjwv8YQUAAAAJcEhZcwAADsMAAA7DAcdvqGQAAEc+SURBVHhe7d0LvFVz/v/x7+kiVCqnFKFSSqGkiJKQkSTlNo1Lgz9GBoMfhn74yZTRDL9fzWQmlJFh3EKNyL2MKKkUoSJT5FKqKYqiy/7v9/es726d3T6n07nscz7nvJ49dmevy163vfZ7fdd33XISSQ4AYE616C8AwBgCHACMIsABwCgCHACMIsABwCgCHACMIsABwCgCHACMIsABlJvZs2e7888/37Vo0cLl5OS4Bg0auLPOOsu9+OKLUR8oDAEOIOs2b97srrzySnfqqae6zp07u2nTpjldFL5kyRLXv39/d8011/hgV3+ViTZYQ4YMcW+++WbUpmS4lB5A1l144YXuiy++cBMnTnR16tSJ2m6zceNGH+C77rqre+SRR6K29jVp0sTddNNN7sQTT3SHHHJI1Lb4slICnzl/pTv2gsnJrenWqA2AqkrVI6+//nqB4S0K7scff9zNmzfPPffcc1Fb2xYuXOgaNmzo9y5KI7ylzEvga9f95Nqc+oz7Nvn3pftPcj06N4m6AKiKVEWiEqiqUHZEIT9u3Dj/tyIaOXKke++996Kmwi1fvtzVrl3bPfXUU1GbkiuTAH926udu+APz3fRH+rgxTy1yV/1+pm9/5blt3d3XH+HfA6iaVI2gEvhBBx0UtSmYqlLU/9q1a6M2FYv2FBTi+rsj2ggddthhvg68tJR6gH+67DvX4Yx/us1bEm7Ok33d5GlfuFtHzfXdmu61u/v0xbP8ewBVk842Wblypa9OKAoFuEqvFdFxxx3nA1l/d0Rn1/ziF7/wf0tLqdeBP/nSUh/eMun1Za5Tu21f0pff/ODemvtN1ASgKmratKlbtWpV1FQ4lcDXr18fNVU8Cm7tTRSF6sCLstexM0o9wFes2hC9c+6ZVz9zx3Zq7HLr14raODfhtc+idwCqIoVeUQ9MKhyPOeaYqKniKWqA63TIpUuXltrBy6DUA7xrx72id869//Ea99nX613f4/aL2jhfpRKnM1PUbtSjC9yUmV9HbQFUVoMGDXJ33333Duu1FXqqnlD/FdVRRx3lS9YffPBB1CYz9dOqVauoqfSUeh34+h82uaYnPOF+/CnvlMEhvz7MHXloI3fK5a/4Zpn52KmuQ5s93XuL/uMuuuVN99Gn277IE47c2z17T09Xo0ZWznAEUA50BopOEdQphZlOJVR4//znP3dr1qxxU6dOjdpWTDqrRPOz2267RW22p6qgHj16+FMjS1Opp2Sd3Wu6k7o2jZqce2n6V74apfZuNaI2zk149TM3+omF7tgLXsgX3qpqGTSgDeENVHI6c0NnZBx66KH+Qp1Qz62g09kaujrzxx9/dHPnzi3V0+7Kgg5K6qIkbWgKep155pl+fkvbTpfAL//dDLd5S+EX5HyYDOV3P1rt3x+wb1330bOnJ0va09xjk5f4djWq56QOdAbdkyH/4LBj3L6Na0dtAFR2uqT8nnvu8X9XrFjhcnNzfXhfcskl/nxxtdfl9mPHji3VszeyTfOiq0/1tzTtdID3HvSym/pO0U/pueTM1u6em49y/5q93PX61ctR222qJ8P8lss6uGsHHuwenPiJL5n/e9k6X2of+ptOrlO73KhPAFWRhRDXHkTYa0in6qB69eq5t99+u8ArT4trpwNc9dYnXfqS+3b9pqhNwXTe91uP9HFNGubVDY36xwJ308jZbktU+lbpfMztXV3zfeq4gYOnuenz8p9i+IveLdy4O7pHTQCqKislcdVx9+3b119xKQrvp59+2g0YMMA3l7ZiHcT87Kv1vqS8aOl37vsftg/yenV3ce1bN3BXndfO1U++j/tixffujdkrXMMGtZKl7Cbu5elfukuHTPeX2ge1dqnmhl/b2V0+oHTPmQRgl0L8+uuv9yXZiujbb7917du3d0888YQ/O0V09oluG6C7EOqCpNJW7AAviErdRTkIufHHLe6Gu2e5MU9/HLXJ065lfV8XrrNUAAAFK1aAH372s/nOHomrtUt1d+0v27lbftWhwCBftWajO+lXL283DNWXD7+2kz+TBQBQuGKdr3fpWa2jd9v78actbvjY+e7ucQWf2H7LqHfzhXe9OjXdo3/s4Q92Et4AUDTFKoHL0Hvfc8MfeD91QDKdzun+ckrmivvGxz6WOgh69GGN3Lhh3V2zfUr36CwAVHbFDnDRVZfxA5m6FF63kQ02vvvL6F1+TY9/wq3+Nu90Gx3sfOyuHq7lfnv4ZgD26dJynZGhC3N0LxOdQVKjxraL+UqDxqGLfHRgs7RPzyuqV1991b80nzpwqTNkSns+C1OiAE8Xv1indfM93PvPZD5p/co73nZjYwcvdZXmyBuPdANPK/17BQDILp0l0r17d39Rju6T/dlnn7nbbrutVO+DLXrQw0UXXeSfo9m8efOobXbovG+F9UsvveRq1arl51NnoXTq1MnPf7ZCvNSuWddNqZ6duixqcu70ns38X5XKdd64nspzzg2vuw8Xr/EHKo/usO2mV99v2OxPJRx2X9GebAGg4tKl8Dr/efHixf4OfBMmTCjS03csUalf4a0Nk27Kpdf48eP98y6LGt7agxg+fHjUVDylFuBvzFnhgzg448Rm/sk8uomVuunUwwmvfe66nPOce3DCJ+6VMSe5awa2i/rOM3zs+2557Ha0AOwJ97xWmCnYdPl4UR/eYIHm6YEHHnC9evXyexXhaTwqke/MRUaq/hk8eHDUVDylFuBPvpRXdSL7713bn8c9eOScqM02ugfKDf87251xzRR3/YWHuH+O6uka5+YtAHUr6PREADboafLnnXee+8tf/uJatGjhQ04lclG1R6NGjfxLN7SSe++91zVo0MDVrFkzVVJXN91Gdu+99/ahGKos1E/btm39BTJB7969fXt1D+MpSyo5azzhYp1MdN8T3Z2wbt26qafq62k8mie1V8n7T3/6k2+vZVTci5NKJcBVfaKn7wSnHbe/m/PRKvfpsnVRm7zL4nXfk+Dl6V+5Tj9/1tWsUc3NfKyv+9nR+/j2uooTgF2qQlBozZgxw9cJ33777b7KQdUpl156qbv44ovddddd56699lofxDrI+eCDD/p2Cn2FtUq5CvuhQ4e6YcOG+Se568EJo0ePdj179ozGlKdbt27uzjvv9Jesh7AsS2FvorCnCinAH374YT+tYUOlx8LpgKfmVTfr0u1lRdUwxa7D10HMknrt7a8StTo+lHq9+e6KxG33vJtq3uf4xxObNm1JvP3eN4nWpzyVr1+9/vi3+X44D/3zE/8XgG3r1q3zfzdt2pRo3LhxolmzZolkcOmEiUQyuFKvadOmJa644grfT5s2bXz3JUuWJJKh5j8TtGzZMnHBBRdETXnC8NS/NG3a1H8uGzQ9derUSSxYsCBqkzfPK1euTGzYsCGR3HD5+QnzLprf+DxoWksawaVSAlddd6BL4bt13Ms9+fLSqI1zJ3XdJ7lVrua6tG/kZj7e1511Uv6tza2j3nVvzF7ufslZKIB5qhI58MADfTWBSp+rV6/29eKhykGPIVP9uErVKn2rpH3LLbf4V0HUnw4a6gCpSvOZHsmWzdP3NM3JjZPr2LGjL21rXnRvc82bHlQxZ84cX8et0ycLUr9+ff9XN+jS/cSLJQryEjmg13hfktbfeQtX+1e8hP38v5ZFfW7zwDMfJ/bs+o9UP1cMmxF1AWDZJ598kujVq1eiVq1avoTZs2fPxNdff+27jR49OlG7du1E9erVU6XR6667zvenUqte6nfEiBGJbt26+e6idhqm+lOJdsaMGYnx48f792HY6l+fy5ZZs2b5adK8aLq6dOmSeOWVV3wJXNOidv369fMlbxkwYICf12D+/Pl+WeileSmOEp8Hrot5xjz1sWvaeHd3Svd9/aXwQ/4yN3VBz/FHNnEv3HuSf59u0ZJv3cDBb/hnZ17Yv5W793+6Rl0AADtSqhfyBBfePM2fTaJAv/6iQwq9v4nuSqh7oxzeNted2+eAqC0AYEfKJMABAGWv1M4DBwBkFwEOAEYR4ABgFAEOAEYR4ABgFAEOAEYR4ABgFAEOAEYR4ABgFAEOAEYR4ABgFAEOAEblfPfdd9zMCgAM4m6EAGAUVSgAYBQBDgBGEeAAYBQBDgBGEeAAYBQBDgBGEeAAYBQBDgBGEeAAYBQBDgBGEeAAYBQBDgBGEeAAYBQBDgBGEeAAYBQBDgBGEeAAYBQBDgBGEeAAYBQBDgBGlcpDjVetSrj165xr3iInalOwzZud+2B+wm3ZErVI2ne/HNe4cdRQAj/+mDfsvfdxbp99djwtAGBZiQNc4X3ZJQm3LhngDzyY4/bbv/Dg/OqrhOt7yvajbN3GuTuH5xRpI1CQyc8l3K23JId/mnNDfsfOBYDKrUQpF8J76VKVop3LbVj08N1lF+c6dc571a/v3MeLnLv6NwlfQi+ueKkeACq7Ygd4PLw7HObcPX+t5nbfPepYBLm5zt0/tpp/jft7XvB/sUyvEtfoAECVUKwAL2l4p9st+qxK5bkN894DAAq30wFeWuGtOvP77k34168H5ZW6r/mvHFe3bl5pfN7chBv3t7zuTzyecD/84FunTHsjr9vDDyXc2jWZS+36zKRnE27y85TqAVQ+O30Q87prt7rXp+aVlidNruYa7mSJuaCDmM2bOzfyz9sOgl4wcKv7YL5/6/U4zrn/G5m3vRl841b38kv+rafqmCefykmGunNDbss7iPnbm6q5q3691c2bl9wwXJvjBl5Q/IOjAFAR7XQJfPDNOT5sf/rJuRuv37pdybioFLr3jc3xrwsvcr5Ef/55CbdiRV64D/ldjpv8Uo6bPrOaa5Yc35vTfGv36isJH96ahr/em+Nu+Z8c1//0HFe/wbaA1jSF8D7nXMIbQOW00wHesGFe6CpAFZAKyuKEuErwnTvn+NdVV1fz1TE6l/y1V/LOFX/sHwl3Zv+E69plq/v6q21nmMyYnhfwl1+R47ocleNOPyPH/frK/AH92qt509a6tXPX/5bwBlA5FesgZmmFeKBS92fJErgoqFW//fRTzleFTJqcN56gTt28v8uW5f0VVcvEHXd8Xgn944+dryMHgMqoWAEuJQ3xb75x7tRTtvqX6sTXrs07H7x3n22lbVXT6Pxw9RuouqR6dedG/yXhBt+01V180VbXv2/CffThtqCumwz5UX/N8dU0I0fkHQQFgMqm2AEu8RBXAP/ww46DUuErCmlVjeildkd3zasT1zC7H5vjq1QmTtABy4Q7pvu2z7VokeMPdiqcX37RufnvJzcEyZJ66zY5qdMR1a8upVd/u+3m3P/elXAz3ybEAVQupXYvFFH4liZVregUxXBqYTpVneyeDOj4AUwAqCpKJcABANlXoioUAED5IcABwCgCHACMIsABwCgCHACMIsABwCgCHACMIsABwCgCHACMIsABwCgCHACMIsABwCgCHACMIsABwCgCHACMIsABwCgCHACMIsABwCgCHACMIsABwCgCHACMIsABwCgCHACMIsABwCgCHACMIsABwCgCHACMIsABwCgCHACMIsABwCgCHACMIsABwCgCHACMIsABwCgCHACMIsABwCgCHACMIsABwCgCHACMIsABwCgCHACMIsABwCgCHACMIsABwCgCHACMIsABwCgCHACMIsABwCgCHACMIsABwCgCHACMIsABwKicRFL0HjBrwfJP3PR/v+Pe//Ijt3T1Mrdy/Wr3w08b3O677OYa1cl1zXP3c+2btnNdDzjStW1yYPQpwDYCHGZt2rLZ/fP9F91js59xi1cuidruWKtGLdw5nc9w/dqf7GpWrxG1BewhwGHSnM/fd0Oev8t9vuaLqM3O27/Bvm5Inxtcp/3bR20AWwhwmHPvtIfc6GnjoqaSu7z7hW5Q9wuiJsAOAhym/P6lke6JOf+MmkrPgE793H/3uiZqAmzgLBSYcferfy2T8BYNV8MHLCHAYcL4uZPcw++Mj5rKhoav8QBWEOCo8JZ/940bOeW+qKl07FW3oetz8Imubq06UZs8Go/GB1hAgKPC+9PU+936H7+Pmkqucd1G7rGL7nO/73ez+0P/W6O2eTQejQ+wgABHhbZszVfuhQ+nRE0lt0v1XdyIs4a6hnX29M3hb5zGp/ECFR0Bjgpt4nsvuETyX2kZ3Os37uC92/j3W7ZucXe+9Gf/Pk7j03iBio4AR4U2ZdG06F3Jnd7hFHf6YadETc798ZV73Nwv5kdN+ZXmeIGyQoCjwlq1/j/u36s/i5pKpl2T1u6W3v/lcpL/RJfgPz5non+ficar8QMVGQGOCuvjbz6N3pVMbu093cizhrka1ar75kUrFrthL4zw7wtTWuMHygoBjgrry7XLo3fFVz0Z2n/sf6trvEcj37zmh2/dNU/d6n7a8pNvLkxpjB8oSwQ4Kqy1G76N3hXff50wyHVudph/r4OWN04c6r76tmjBXBrjB8oSAQ6TLu12vnv6kr+5Ew/qEbXZni7UOf/Is6Im52+ANXPpnKgJsI8AR4VVf7d60bv81P7KHhe7Vnu1cL8/7b9dm8Ytoy7bqJ0OWgavLPyXG/PWI1FT0RQ0fqCiIMBRYTWt3yR6l5+qNvTkHdmlRk039NSb/AU6gS6Pv/uM2/3TeHRO95LVn7tbJ/0h6lp0BY0fqCgIcFRYrffavmQd3PrcH/wj03RaYJvGrdzVx1/q2+ugpS6P379BU9+84aeN/qDlhk0bfPPOKGz8QEVAgKPC0mXuB+Q2i5ryW5osVcfvWaK67i7ND/d1411bHhG1df6gpfrdWRpvpsvsgYqEAEeFdkKb7tG77elCnDcWz4iaXLLk/T/+6ToqlavqZMxbD+frvjMKGy9QURDgqND6d+jtA7kgqtvWud3SYPdtBx2n/3uWGz3toahp52h8Gi9Q0RHgqND2a7CP633wCVHT9nRA89qnb/X14YGutLxxwlB/3ndxaHwaL1DR8UxMVHh6wMKZY/5fofcE15kn3Voe6dZtXO/eXjqn2OFdp1Zt9/Slf3NN9tgragNUXAQ4TNCjzoa98H9RU9nRueNnd+wbNQEVG1UoMEGhOvDIs6OmsqHhE96whACHGdef+Gs3oFO/qKl0abgaPmAJVSgw595pD/n7mpQWnXo4qPsFURNgBwEOk+Z8/r4b8vxd7vM1X0Rtdt7+DfZ1Q/rc4Drt3z5qA9hCgMOsTVs2+yfrPDb7Gbd45ZKo7Y61atTCndP5DNev/cmuZvUaUVvAHgIclcKC5Z+46f9+x9/kaunqZW7l+tX+3HDd0KpRnVzXPHc/175pO9f1gCNd2yYHRp8CbCPAAcAozkIBAKMIcAAwigAHAKMIcAAwigAHAKMIcAAwigAHAKMIcAAwigAHAKMIcAAwigAHAKMIcAAwigAHAKMIcAAwigAHAKMIcAAwigAHAKMIcAAwigAHAKMIcAAwigAHAKMIcGTdF1984ebNm+dWrVoVtQFQHAQ4smbs2LFuv/3286+OHTu6Ro0a+b/jxo2L+gCwM3ISSdF7oMyMHDnSXXvttVHT9kaMGOGuueaaqAlAURDgKHObN2/2pe21a9e6Zs2a+RL3vvvu615//XU3fPhw337hwoWuYcOG0ScAFAUBjjK3dOlS16JFC//+xhtv9KEdKNxVJ968efOoDYCiog4cZa5+/fquevXq/v3EiRPzHbysUaMG4Q0UEwGOMqcAP+uss/z7RYsWuUMPPdTXia9fv963KyltEFQFo6qYgqj74sWLo6btLV++3H3wwQdu48aNUZv89Fl1zzTNGr+6cVYNsk5VKEBZW7duXaJbt26qrku9ksGeGDp0aGLTpk1RX4nEww8/7LvVqVMnapNn11139e3Hjx8ftUkkli1blujXr19qeOrniiuuyDe8Bx98MNGkSZNUP61atUrMmDEj6ppILFiwINGjR498w9A0Bequz8S733zzzb7bhg0b8o1fLw0LyBYCHFmjYB0xYkSicePG+UJPwa6AFwVuaB8X2qm7rFmzJtGsWbNU+/grhPyoUaMydm/Tpo3vrmE0bdrUt9Ow+vTpk6hevbpvvuuuu3w/IaDVn6azdu3aidtuu813Gz16tO+mdgpuzVenTp18NyAbCHBknYJcQZybm+sDUK+rr77adytqgKsUrOZatWolJkyY4Nvpbygda4OgUrz66dWrV2LlypU+sC+77DJfqpY777zTd1d4qzQdb6fAlp49e/pm/f3666/9cEMJP97vrFmzfDuNA8gWAhzlZv78+T4A9VLpVYoa4KE65rzzzvPN6aZOnZr6zCeffBK1zS+Ec0EvCVU6etWoUSNxwQUX+CAXDVel79D9qKOOylc9A5Q1DmIiK3QQcPbs2VFTnkMOOcQlg9u/z3QAUKcYxv+WlWSQu+SGId8rGdy+2/nnn+8mTZrkOnTo4KfjoYcecieeeKI/2NmqVSs/T/369fP9vv3226579+7+gCaQDQQ4skJBeMQRR7gLL7zQX8CjQL/pppvcihUrfPdjjjnG/23SpIn/K7r0XqE5bNiwqM02xx13nP/79NNPu+eee86/f/HFF93JJ5/szyjp3Lmzq1Wrlm9/5ZVX+g2EzlLR+O+55x7fXkEs7733nkuWnn03DVcXGWl6RePXsHTvFl0tKh9++KFvll133dWfGpncm/CnRKp/NQNZEZXEgTKj+uf0A5fxl6ohQh2y6qLDgcVMr1CFomEW1F84i0QHTDN11/hUlx0/iKlX8+bN/V9VlUybNi01DDWreiS5x+C760CnzoCZO3eubz7ooIMSyQ1QajhhGoGyRoAjK1RvrAOI9erVSwWdXl26dEmFd6DwjJ9horNGFIoKzvhphEuWLPEHKEN/OqCZfhrhmDFj8h0s1bAKO41Q4xgwYIDfQIgCPD7Neh8CWsOJT6c+mz5+oCxxKT2yTpfWqw5Z9z4p7P4nqmYpypWaqh7RS9Uvumgonao1NM7ChqVqF1WxqPqkTp06Uds84fP6q3pvDSdOtwLQBT6ZPguUJQIcAIziICYAGEWAA4BRBDgAGEWAA4BRBDgAGEWAA4BRBDgAGEWAA4BRBDgAGEWAA4BRBDgAGEWAA4BRBDgAGEWAA4BRBDgAGEWAA4BRBDgAGEWAA4BRBDgAGEWAA4BRBDgAGEWAA4BRBDgAGEWAA4BRBDgAGEWAA4BRBDgAGFWpA3zz5s3uzTffdBs3boza5Ld27Vo3e/bsqAnlRd/TBx98EDVtT9/T0qVLo6bsWrVqlfviiy+iptK3fPly/6ps5s2bF70rewsXLizwN17ZVfoAv+SSS9w111wTtcnvrLPOcjfddFPUhPKigOzYsWPUtL177rnHDRkyJGrKLo37lltuiZpKn9a/e++9N2qqPPR9ZmujO2jQIPfUU09FTVVLpQ7wXXfd1T3++ONu7Nix233Bd999ty8ljBs3LmqD8qSNbUEK6wZIVV1HKn0d+GGHHebD+tJLL02VCFRtMnjwYB/e++67r29nyeLFi90jjzwSNQF26bf43HPPRU3YWVXiIKaqULp06eLOP/98X5/6i1/8wl1xxRXu1FNPjfqwRfX62qsArFN4V9Xqj9JQfUh5VS5m2Yknnuh+97vfuQcffNDtsccefqWpVi1v+6US7f333+9ef/11361Jkya+vaik265du1S/KjF88803vh9tDN5++21fh/u3v/3ND+fwww/3/cVp9+7JJ5/041Q/7du398PT56ZPn+5atWoV9encxIkTXcOGDd3uu+/uh6/60RdffNF3a968uT/Yp2F99NFHrk6dOn54mj7RgRztVTz77LP+wNghhxzi24ume+vWrb7bM888k+qu4WnatVHQ3kj9+vWjT+QdwPvrX//qXn75Zbd+/XrXunVr317zM3nyZPfDDz/46dMwjjzySN8tCP1oWqdMmeJq1Kjh9t9//6jrtmX+6quv+ml5/vnn89Vza3o0XVq+Gr4+379/f99Ny0jD1+e1/I455hjfXv1qw6a/+n723HNP317Trn41PfH50MEvTb+GEe8/TuuEvgctFy1bVbsddNBBvnpOtIweffRRv1w1XnXTdyeabi0/LXvNu9atdJoXDV/TomWh7zC+Poi+f62HGs4BBxzgv/egoHVX0/X+++/7v1omb7zxhttrr738upVJfL0T7a1qXrXOiYL2u+++8+PSdGgZhn4lvq7o+3z66ad9wUnLTc2afg0jvow0HK0f+h3o96D+wrzHh5e+TOLruZbxO++849c/7W1XNVWiBC5asUeOHOlXTAWpAkH0o+ncubP/AWlFUhio3jwYOHCgbx/ooJZWdtEK3rdvX3fhhRf6H6FWwHQKjOOOO84NGzbMr5T6vA6eisY9fPhw/z7QSq+VUrTHoB+mVthwIE3j0XDUTvMSpk3j0Xzox6r3CsMwHtF427Zt639I6q7xaF5PPvlkP90az9FHH+2HLxq2fhBaLgqrK6+8MhWwGufZZ5/tAzVMTzpNX9hL0OfDeEQ/XB3kCmcIpVcHaVrVv8ajz6i/uHPOOSc1vDBujUvzq+9Vn9Oy0HhEB7IVghqXlrfCX8tA86vPq3+tGwUJYaTPaFpVGAi03DQeBZX+al0QDfOoo47y49QyDMsiE01bmBftHcYPmuogp8atZaj1In5wUMtF36E+q3nSdIV1V/327t07tZwUnEcccYR/n0l8vRPNV3yDqvVc06bxaFiHHnpoajo0r2pWQKt7+vepYem3omWk91qXRNOi9UfLVcMK05a+7un7C9MS5lPVovqcpiU+3VVOogqZOnVqIn2W27RpkxgzZkzUlEi88MILieSKltiwYYNvVv9Llizx7+WCCy5I3Hbbbf69hpebm5tYt26db85k6NChiS5duiQ2bdrkm/V3/vz5/n1ybyDRo0cP/z5o1qyZH6506tQpcdddd/n3cZk+p/H07NkzNR5Nk4b12GOP+WZN92WXXebfy4QJExK1a9fON+1aFuPHj/fvzzvvvMSNN97o34umORmOvn8tDy2Xr7/+Ouq6Y1oGYb569eqVb9hheKLhJ3+0iVdeecU3i5a3pj9IH7e+K31nCxYsiNokEjfffHPizDPP9O81bjXHrVmzJlG9evXE3LlzozaZadya3iB8LnyHgZa7xq9lLnqfLCnnm6ZM4uuTaHq0nDV/y5YtS9SrVy+xcuXKqGve93Ldddf595qv8P2K3rds2dK/z7RudujQId+6Hhdf7yR9HdMy/+STT6KmhF+XLr74Yv/+6quvTvTp08e/D9J/N4GWW1hGkv7diuYxvkz0Ga0Tmpcwj/H50nRqequiKlMCz0Qlh0WLFvmSbqASS/IH6ksMRaHd2fgubTqVOFRyCSV+/Y1XbRRGJVGVDFWCV0mjMCrNx8ejaVIJOf65sHstKuF8//33+aZd3VWqEX3uoYceci1atPAvlcBU+gkldIkPL51Kk1qW2l3W/L733ntRl7zSYUHHH9StVq1a+Uq5mcTHrc9oulXiDNN73333pUrnqibRLrdKr/o+RKVBLV+VYFVq1rpQkPi49DlVNYVhq/Ss3XsNJz7Nmu/kRsovZ5U448utMOq/adOmvvSp7+DHH3/0JecwX6pqCuOeOXOmu+GGG1Ld9D6UiiV93dSwC5vPHQnrluj7C8tSv5VQvZWJ9li1jLRHUpTjTppvfX9hvrTuaU9Gy1DLRb+Hwn5zVUmVDnCtBArr+G6lVhQFm36opUG7gOEHl051jgV1E63wquNUEO4oxDW96cPSfBVU57kjWjYKoGSpLPVKlgiLfNaOdnEVYvrBKWB1EDnQsMOGIp2mV8tf30NRhe8qufeUmtZZs2alqroUXFqOyZKdX5YheHT+sNprXFrWBU1TYRT+qpLTd5Ne1aOqEM27xqGALwptJDUdWkaar2QJPN93kCyh+w2PJPeg3KhRo1Ldpk2bVqKA3pllrnUrhKj+FraBuuiii1L132HZF6awdU+/p+J8T5VVlQ5w/UBUcgj1m/rxqLSU3NX04SPJ3b3UUXL9ENN/pDuikPjLX/6SCl+VVhQiolKJ9gBCaV+Bs2LFCv9ewsquelAFTHzc+rFpesNwVU+o0roCQ1Qy1I9GpfLi0F5JCIpwICteutsRLc+w8dDntOwCTZPqNMMyD+MRLRMt/1APrI2S5qUw4TPaaOhHrumNT6uWm8Zz/fXX59sQargqXavO9ssvv9yp+Qvi8xkPJ30/ata0qf77ww8/LHBjre89BK/mQeulNjoKfZV6tfegeQoHsRViojp/LTv1r24K0aKW9NNpLynUnyuc48eBgrCeaqOsYzpa50Tfp6YjFIQ0vYGW+7p161Jhrz3FOM2flpVe4ZhFGJ6kr3uaZy2v8FvQ3zlz5vj3omb9hndmY2RaVJVSJSRLZb7+Mk51af369fN1bHqpPi1ev6q64uQuve+mOkXVq6q+WTS8UOdYmGQpyddlJn9ofhihnllUf6ivQcNXnbdeyZJUqpv6T25MfP1lmC7VCar+Orny+/ahvl7j0bRqPI0bN/bTHlxxxRWp6RbVr2oYcarHfPjhh/171emqnlPLK/kj8tM/YsQI303TofEURtMYpl1161quYb40varn1DxrWlUHqn4D1RvrM8lg9O0HDBiQqm+VTOPWZ7QskkHhP6fPh3pq1Rlr+pMhlTj44IP99Ot7Vx1yMvD9K70eNrjzzjvzjVv0nYd5UXeNU8tI86Thi5avpkftNT3xOv84fS9a/zSf6k/Djtebazxqp+WkV7du3fywJb7uah6aNm2amDRpku+mz4VpCTQfmY6piNZlTYPmRctX8xKv19Y6qnVK49I6oXUjHG8RzZ8+p3nQsRjVc4f1Veudpl3TqOHquwlmzJjhh6d1WZ+TwtY90TqqdsmNr182+lz4TWk69Ln4b7gyy9F/PsmrOJWOVFrIVK+rUpa6q3QXrwfcGSoRqISi4Sd/BFHbPIWNWyUqjV/jjlM7vdI/UxrTGhdKdcUZXpjnUIpKp25aFskfd9QmP5W6Mi2vwqgkq+lMXy4FLUdNg/pPBk/UZueFknWmYWh6VPosaB6DHS0rLQsNJ9M4NH7NW0GfLSqtg5reTMs8JyfHLVmyxL/XvGSaHy1jzUem9biwZaTPadzp3Qpb9zS/oVuchqP2Jfk+LSHAAexQCPCSbiRQuqp0HTgAWEaAA4BRBDiAHerZs+cO6/GRfdSBA4BRlMABwCgCHACMIsABwCgCvAR0WbMuGkinS7XDhQtxBfUfp0uNdamyqN/45d1FvcFWWdF0WbhEWctQtz8ozqXx2DFdcKQXyh8BXgK650L6/bxF9xFJv5eErhDT/acLu5mP+tEd9cL9S3TPh3C/Ccnmg2Iz0X1dwn1EKiItP90RUN+Llr/uJ5Lp+8k23fsm071FrFBBQuteKEDoPjWV8UHMFhHgJaAfZvqNlnTTpk8//TR1J7xAN+rZsGFDobdJ1eXC48eP90EUxN+jcNo4ai9BQaMSuC4Lj98quLzoplSWr2DUZfU9evRIXZ7OOllxEOAloADXfa7j1SUqaenOeP/617/ytVfQ64es+1kURt13dC9sZKbA1t3/wn08tCzT75VR1nRnw/S9JJVYdTdJq7Q8dafLoixLrfPxu0uibBHgJaBd9MaNG+e7RaZu4arblh588MH5SuEqHe4omFWy0Wfjj9SCLbp1bFWue9dxHt0SF9lRZR5qXFa0wuoHe9ppp/kS4G9/+1t/P2Q9+Fihfe655/o7p1199dXu97//vdtnn33857Sbrx+7Hjarh+nqgbN6sKt2+cMVb+pHr/Ccxdtvv93fuzzTFXEq4av0p+nRA2dDKVT1lxpP+gN9RRsYDUv1mXp4rMR39XXAMjw8VlUTqv8+6aSTMlYHaLx///vf/XDUrzZu4UHQ6XQALIxT1Ubxhx0X1k0bRy0nzWf6g5t1H2i1Cw97DstOL5Uc9RBdTZc+o2Hrwc4avoan7+mnn37y49UDjtW/ll+Y9/h4RNVhepCxhqPvXvMqqrZR/xqu1gUNQ9UO2sBrWYTvTd9Dpocsi5axPq951fC0XPUQbLXLJP4daVo0nWG5axhatzQurR+aHs2b2mv6NWw9EHuXXXbx/Wua9R1qujSPGm/opj1L7d1oOsJ6o3urx+nzGq7mQctVyz4sGxVO4g/21ngLmicUHSXwElI1SiiB64cRHvekG8+/9tpr/geqcKlXr55/0K7oB6DP6cengNXudTi4uaMqlkw0/hDy+qGGYekHpR+0foz68ergnh4OEejhwOquH5r61R5CmBdNm5q166x50DDVX0H0A1fQ6YetzxT0EF8NQw/A1fA073qgRngIrgJF3RQAoVu8NKfpV4ho+Wma4geRteuul6ZbQRZe8Yf1ahp1IFnTps/rpWnWI7s0r/q8pkv96KBdGI8O3mqeAgWm+tW86sEG4QCllqHGr2Fq3OpH1E/4TtRO64GCTMPW9MXr6bUR0cOnVQ2hZaDxFlSPH74jTae+X31W61Wg5aMHk4TvV+umXuFhGhpH/IEfGo7CVfOl9Uh7g4HWFc1XYcLyVFiH5S9q1u8hjFfLX9WJeo8S0qX0KD495FaLUTfh143lR48eHXXJu/G/bj6vm8zHHxigG+OHBwKIHsSgG/Wny/Rg2UwPilV/unm/piVODwvQQyECfTZZ6kn1lz483URfL9F0a/rDwyIk/cG3BdH8pD8EIdADK+IPGNaDcsPN99MfdqwHMughAeEBBhp/eOCE6AG38YcWZHrYc3ya0x9QLJp/LYf4AwD0wAE9qCHQd6qHM6TTgwc0L/EH8Gr86ctI7cJDd/VwifCwZdF3ofUhPMRZ60n4DkQPPNB3lommKzwEQfRd6aEOYfya9/hDjzXc+PxrndW8p683mi9NT0HrnqYxPs9xGrfGG5f+IGINX8OOP2AExUMJvIRUWtHzHlV60YHL+ENbVYJUqVyl2lD/rVKJHps2cODA1ENb77jjjh2WbgqjEpp2VTUslfbCWQIqef/jH/9Ijef444/37eOPN4tXh6g0rlKdqBSs0pxKdkWh0pV2z7U3EZ+GOLXT46/iJUqVqMMDALTHEu+m6dErlF4lfiBNn9vZUlymhw1IvH3Y7Q9UilVpOFCpOcyrSrEq3RaV5iVe6tX6o3UjPCJM4tOi0rqWW6Zx6DvS8gzfr0ruq1evztdv+nzFv5fw2MAwb9oT0vqg+dL3EErQJaV51m8h7F2q6kTLIP69ongI8FKgoFP9tII8HjBaaf/5z3/6H1nYtdUPVnS6YLK04l/JUpb/MRaXfhD68U2YMMHvzodzxzWuZCk838Nhk6WoVFVOunj1jepuQxXAjmgXXeMP9eQFnXut6UyWqAscbm5u7nbd1Jztp6tooxU2ZOlUtaCwVbhpA6kwz7SxKojmJX1jrQAtqOpMy0wyjUOf6dOnT77vN1mqzreBiNN8FTSt2hCG8/w1X6FaqDRoPUz/XrUMwm8BxUeAl4JQnx2vfxTV8ymUFOwhhLTSJndjfSlV7VTiURgUFBhFoRKX6nlVv6nhhtKc9gZUX6thazz6ARe1VBX2HvRjFpWW4g9cjlMAadgh+AorWalkp7rV8INWfaimWVSPrzr60C0cX08/WFaeFHSaTwWr5jXThlfhpFemZa35V71+2AtSXbiWV3zPo6gU1CogaDz6frVuaSMaQn9nKNj11B3NmxS3dKyNSliXw7LRvGmDEI6vaIOvB32H4zYoPgK8FGiXU0GdqeSjEE0P9nAQrFGjRm7vvff2JeZ4tUagH2K8ZFa9evXUDyxOAa7dcB0A1LBC8OkgloJY1RDaxdYuc3xXXaXhOI0v/Pi1u62gUXiGaezUqVPGcNCGSnseGoeCRD/ggkJEB+VUbaJ5b9CggW/WAS5RkGtaNSx1U7iFsydEyyI+3PRmvY8vL4n3k96/qDnTcogPR83hc/o+NX9heaq/eL9abqoe03JQtZros2EeFGYKLs2n5lHfkfoLVR3p4xZNX6bvXcv9rrvu8tOk70jLLV5yjo9XMg1b65TaK/wvvvji1HeojUK839q1a/v+RO3D+3ShWqZmzZr+e9VwNK+aLs275lnTPXTo0HzVjSge7gdeSgra1VeJLf2HFKiUppJPvNqluDQcBbmCIH1cKiHrpfEU9MMriKY/fHZHNH4FQXpIZKJhatiZhltYt4pC86rvO9P3WpTloPnTOlOc7ySdNihalzQ9RVn2hdE0aXo0/cUVpkcbgrjC1lEUDwEOAEZRhQIARhHgAGAUAQ4ARhHgAGAUAQ4ARhHgAGAUAQ4ARnEeOLJKV5zqgpOCLhTRhSS6LYCu4NNFLrpqM/2CkPKmS8HTb3gFlAdK4ChTCjvdW1tXV4ouyQ+XmMfpvhm6HYBuS6D7oyjEdYMsXW59xBFH+Evqy4vusx0u95fyfrg0EBDgKFO6bLpHjx6FXjqtgFSw61FyKqEruHUfFt0zRkE+atQof9e/8npUl/YCtGEBKhqqUJBVujmWbuYUf4KQ7k6om2wVdv8N3TtEN0VS6TzcW7286K59ui1vRavaQdVDCRzlRjc30t34VNLe0c2TdJMmPTwh/kg4oKqjBF6FqV5a1RU6cKiHPMRv76l7gevWoLqlq4JWt6UNzbrntEqfuj1ouJOeqjp0v2cNU9UmqhJRN92ZTp8J97uOl8A1DoVyvH5bVShhnPqMhhufLg1b9er6K6F/jUc0TlXFhPtxaziaLm0ANE0S5lm3NY2X5tWf6uL1mfjy0HA0ntDvjkrg2psI49Q8hGmVgrppuWm+tCHTMQJVOYVlqPnTXfzSvyOAEngVpYDTwTgFlsJC1RiqZw5OP/10H7YKL4WoHvSrMy9UWlZ1hkIyXhrW/Z7DbVR1j+/wEGCNR/fHzkRBFr9XujYMCimFpQJZ3VRCj9NGRP2J/qpuWuNQAOp+4mGDom69e/f2GwpNr6ZPw1Y1jOZZn9HwtREJVBev8SpcdW93zbfo4QbhoRM7ov4UstpAaDzxA7h6UpE2hGpWkKtbGIfCWw9X1sFSdddGTdOrZa73Gp6mKX6/b4CHGldReriuHnoc6MHB1atXTz3cV6vGrFmz/HvRw3DjD9udNGlSIjc3N2rKTw/bDQ9xDg8NDuIP+O3Tp48fTqDhpz/UOP0BuRpueFCvpj/+gGTNU3iI89SpU/3DgsNDmfW3Xr16ifHjx/tmUb/nnXde1JTfgAEDUtOZ/rBkzU94wG9ceAizHhYchIdXq//atWvn66Z5DQ8Z1vRqecYf/Kvpjz8kWw9aTn8oM6o2SuBVlB6V9sQTT/gnsOjVvXt3XzWg0m8Qf0CFdvXjVQEqyeoBuoFKnjpvWyXi8ESgHVHJWKXdQKXm+OPT4t0CTV940INK/PFqDLUPpV3RnkU4+0V/tXcQnyeVbjUMUclbpV+dcRJKvTtLJXWVmsNTaUTVNKISt5ZZvJuqUPQg7EDzG+ZZexLqN0y/aPmHqiJACPAqSkGRLPHmeyCu6nVD4OwMVQPo7BAFsKoNCnqocTpNQ3rgqqogUMDHA0vvNa5wEY2qQFTtoRBWVU9JzlDRZ0UbCFVnqKpjZ2njEJ/+OG08VG0Tp2Y9ig8oLgK8ilJpM/2Bx/HS985Q0OrzeukAYFEfiKvSqkqmgQJZdecKQQ1HpXq9D8GnOncFq4Jf3RXeCk0Fukr+mqdwsHRnaR7CmTAap0K8KLQMw/npmn59NtSXa+Ok6dGGTRuWME+i/jQ/4cDqztL06viANpiougjwKkoH9xQu2q0PD+iNh0H6g3QVmuEAoeh9eBiwwlMbgf32289XYyioQr8ahh6cG8SHo4NyOiNEYSQKJE2PHtCrh99qmKqO0ZWYbdu29UGos1ZEVUAaTzjAp5CPV91oHBpXXKZ5CP1oWeig6oEHHug3LNowhH71N74sNN+hm6Y/HLDVBkAHRRXqdevW9VUeaqdqGX1ew9dBSM2bumk8Ohgs6dMm6eON96M9Dm3A4htAVD2cRljFKTwVgAqUeFgURzgLJT04C6PgVP8Ko0DTI6G+OpTA43Xw6kdhrzM5QnttKLRhKk41kGiDoHnQRig9TAuiPRi9Quk90HA0X+ntpbBuO0PLJb5MUPUQ4ChX2oCoJKoqBpVkixqcorp2nTM9aNAg36xS6R133OEWLFjgS71AZUeAo9ypNK2S+JdffunvexI/E6Uwu+22m5s1a5YviQcqkaqaJX7zKaCyIsBRYYS7FBb1DBAFt16h7lt1z3qprryk1ROABQQ4zNJZM7qCNBx8Vd23qlWoPkFVQYADgFGcRggARhHgAGAUAQ4ARhHgAGAUAQ4ARhHgAGAUAQ4ARhHgAGAUAQ4ARhHgAGAUAQ4ARhHgAGAUAQ4ARhHgAGAUAQ4ARhHgAGAUAQ4ARhHgAGAUAQ4ARhHgAGAUAQ4ARhHgAGAUAQ4ARhHgAGAUAQ4ARhHgAGAUAQ4ARhHgAGAUAQ4ARhHgAGAUAQ4ARhHgAGBUTiIpeo8K6Meftri35q5w0979xs1dsNp9umydW75qg/v+h81uK18dSkG1nBxXe/carknD3VzL/eq6jm1zXffD93LdOjZ2tXapHvWFiogAr6DmfLja3Tt+oXt2yufu2/WborZA9tSrU9OddsL+btDZB7lOB+dGbVGREOAVzLyF/3E3/2mOe23m11EboPz17LK3u+PqTu6wg/aM2qAiIMAriPU/bHK3j57nRv1jQdQGqHiuOq+tu+3yw1yd3WtGbVCeCPAK4NNl37n+v5niPvnsu6gNUHEd2GwPN/HPJ7iW++0RtUF5IcDL2awPViXD+zW3eu2PURug4sutXysZ4j3dEYc0jNqgPBDg5Ujhfcrlr7h133OQEvbUrV3TTR79M0K8HBHg5UTVJsde8AIlb5imkvgbD/WmOqWccCFPOdABS9V5E96wTuuw1mWt08g+Arwc6GwTDliistC6rHUa2UcVSpbpPO+jzn0uagIqj7cfPZXzxLOMEniW6SIdoDJi3c4+AjyLdHk8V1iistK6rXUc2UOAZ5HubQJUZqzj2UWAZ4nuKqgbUwGVmdZxrevIDgI8S3RLWO4qiMpO67jWdWQHZ6FkiU6zunPM+1FT2dH9m686t607/cT9XePc3dy3635yL0//yt097oN8552rv2sHtkv218xfjFFQf8HAvi39K5Nzfvsv/5ka1XPcOacc4C7sf6Brtk9t9+OPW9xb875xf3hgvr+PeSbtWzdwd19/RNSUZ85Hq92w+95z32/Y7Jt1tZ+GHZfej6ifQQMOcmef1Nw1bby7v2f6G3OWu7sf/MB99vX3UV/Ond2rubv0zNZR0zbvfbzG3XD3rNS8Xp98/36ynZbjw3d2Ty2fOC27x/7YI2rKb+DgaW7F6g1RU567kvPaITnPwfrkNN7z6AI35Z38x0Ya5+6aHOex7qRfvRy1ya9e3V3c5T9v4+dFN5bSedjjX1rqRj+5yH+X8uCwY1zTvXb37+M0D5qXsjL40vb+hlcoe5TAs0QPYyhr4aq4Yb853HVq19Bt2ZJIBmkdd+0vD3ZznjwtFYIKh+mPnOKGXNHRdWizp++vTYt6qf5aN9/+qjoFhoalK+6O7dzEHd4u1zfrVaN6NT/svycDZ8zt3Vy3jnu5mjWqucYNd3O/PK2Vm/nYqa7vcftFQ8qvfnK48eEdeWgjPx0vj+mVmt4TuuztuiaHGcanftXPpHtO9N2l9m413Ev39/Ibgy7tG7mc5D/1e+lZbdzMx/u6roftFfXpXJvm9fw4D25VPzVMvRoml5/ovbpr2mTXWtV9s5ZROoWnumm648PSKxOFt/pXdw3vlGP3dZPv/dl2y+eagQf7/o7t1Dhqs41CWd+zvr8wTfpe1DzlgZN9s2iew7jir7J+SEM21nXkIcCzpKASaGka9d9H+UCeniz1Htxvgmtz6jOuSY/HfUny2j++4zYng1oUsge3auAmvb7MNfvZk76/pic86cY89bF/Ksv4/z0+FZ6BSonq74SLX/TNE1773DfrpVLmTZe0d2ckS/MqGR9+9rPJ4Y73w7zq92/7AFRpUBuOgoThNU5O7+RpXyQ3QLnupK5No67Ofbnih9T4NNwpM7/2oR4CTsGtDUeY95a9n/LDUildQfxospSsjVDcTSPmpIap10W3vBl12XnvzF+Zb1h6pZe+49Rdy+iE/5e3PAcnl1+g6bzo9AP9+2uSG6p02lBqI6Tvr+XJT/lhhXnV8k4Xnya99LmylI11HXkI8CzRY9DKkh6FpQBdtXajO/3qKakfkUJb4Tvh1c98s6osFIzvLfqPO+eG15Mhs9G31263fvwKT5Xqenff17cvCpXorhnYzq1NDuOMq19zH3261rfXwSxtFG7587u+pHr5gIN8+8LoMy9P/9K/1x5FJupHGwpR2Kk/VXmsSC7jvle8mpp39adQG/3EQr9hKqgKqDxpg6PlFp9XVe9oo6P5OSX5Peg7C1Sq1oZK99I5/6Y3Ut9fmFcNr7yV9bqObQjwLFF9bFkKVQSvTP8qVQeaiUq2Mm7iJ6kSeZwCV1QlUFRtmu/hA1rBGwIl7uFJn/q/8WqMdCqdqzSt+uvrLzzEtwshLXpmY6ibvvLctsmNQRsffG/MWeHnqUaNau7Ryf/OVycebJun/HfNU7XFLZd1SL1KUrWg5bXouTNSrwv7t4q6ZKZ5Pf7IvZN7TV18WId5DccwPvtqvRs4+A3fTs1BmIdnpy7zoV0U8ekafevRUduyU9brOrYhwCsZHRSL+3Bi/9SPVwfjVJ0hmzdnPnatA48S+iuK0K/q0jPZGA2zMNorUL33w8OPdfs2ru1L7aEkLw3r7+qrfvRSdYkOmp6R3NPQxioEb0GBFtrvmhbQpx2/f74AVym9tNSsXvhPS/P6wr0/83X0Kk3r4Kmce0oLf+xgVHKvSRsnVc3owHCofgrLOj6v+l7jIV3QnotoQ4fKg28zS1SCLEuLln7r/57UdZ989ddffvODDy4dvNKP/8PFeaFYUBVJ72Pz6p0/WrzG/y0KDXPzlq2+hJ2pFHva8XkH6AqrG1WVjqoArv3DTF+Hnn62R6gDH/LXub75yZeWpKoLQtAXOE9R+/gGQXR2ykmXvuRfqotWqbe40uvAxzydV+oviOZV83LODf9Kzu8k/z3J9Rfl7X2I9jYWLfnWh25o//6ivO8lPq9a9pr2cKA5/XFn8em69La3orZlp6zXdWxDgGdJaZbuMnln/iofgvoB3z+kWypIdRrayzO2nTKm0Pvw0zX+7AdVVcTD/vxkYFz+84N81cQzrxX9oiNVWzw2+d9+3DpYqTNCAu3y33Vd3mmCqosuiE7Xy6uvXrRd0EoIqRF//8jXDV91brtUqVQbBh3U1AHcEb89Mt9G5GfJDdqQXx/m9wJCVU6gjZ5KuXplu+5Y8zp87Hw34bXPUqVpVemE+2prL0N7GwNPy6uKGdi3lQ9oXa6uEnuYV31/2hvR9/x+8vuvCMp6Xcc2BHiW6CBjWfvl4Dd8uJ3b5wD36QtnupfvP8m99Ugfd07vFlEfeQc1L7r5TR/SOt1wYXKXW+dZv/d0Pzc2GRgumecaTmH16Jlcf/dsH4g6kKrdeA1T437joVNcwwa7uptGzPYhXVIKu7uSpXPtTQy76vCorfMlyy9XfO8u/8VBqfHPebKvP9VQ/apkX9KzI7oe1ii5ceyaesVLwa2b18vXTa/CqjIyUSlbG6qz/2tqas9AL+0pqJ78ov6t/PzrbBmd9615XfzCWf571qmaOmUwk/TpKuxYRGnIxrqOPAR4lnRsm3fwsCwtWqqn/Ez2peFwfrIO8H36xTq/ux7ODlCQdjv/effMq5/5umWdZ91y/7q+FKunBBV2kcfmzVvz/Q0U+Pqs6m4VmBqmxu3Pdvnt627kwx9FfeYXDqQWVk+ubvEDrjooqbBW3XC4UEVVEF2T8/TwpMXJea/hx69TJVWyPu3K19yDExf7/iSMK9NBXFGI5v3N6x7mVaVjndceXh3aNEh1U6kz3k2v9Dp30TDD8OPatazvuhzayF+Mo9P8wp6BXneOfd+fXRQOZmpvS9/fs1M/98Gu71klcm1Adcqolo2E6U+fLu0plaVsrOvIw5WYWTJl5lfulMtfjZqyQz9UlbQLK02rukHhs2rNxoxncBRXUcZdVlSt0LRx7XIbfzaFeS3t768kJo8+MbkB3SdqQlkiwLNEu777n/gk90NBpVavTk33+as/z3gwG6WPKpQs0Qp92gn7R01A5aR1nPDOHgI8iwadveMrEQHLWMeziwDPok4H57qeXfaOmoDKReu21nFkDwGeZXdc3Sl6B1QurNvZR4BnmZ7afdV52+5tAVQGWqd5In32cRZKOdBFGEef97z75LPvojaAXQc228PN+Eef7S7hR9mjBF4OtKJP/PMJO32lHlDRaB3Wukx4lw8CvJzoqr6Jf+7p6tZmxYdNWne1Dof7tyD7CPBydMQhDf09OyiJwxqts1p3tQ6j/FAHXgHo7nL9fzOFOnGYoDpvVZtQ8i5/lMArAP0QdBCIs1NQ0Wkd1bpKeFcMlMArmHkL/+Nu/tMcf99noKLQRTo6z5tTBSsWAryCmvPhanfv+IXu2SmfcwMslAvdmEr3NtHl8VxhWTER4BWc7mL41twVbtq737i5C1b7hxLovt56cOxWvjqUgmo5Of4xaLqtsB7GoPt5dz9cT79vzI2pKjgCHACM4iAmABhFgAOAUQQ4ABhFgAOAUQQ4ABhFgAOAUQQ4ABhFgAOAUQQ4ABhFgAOAUQQ4ABhFgAOAUQQ4ABhFgAOAUQQ4ABhFgAOAUQQ4ABhFgAOAUQQ4ABhFgAOAUQQ4ABhFgAOAUQQ4ABhFgAOAUQQ4ABhFgAOAUQQ4ABhFgAOAUQQ4ABhFgAOAUQQ4ABhFgAOAUQQ4ABhFgAOAUQQ4ABhFgAOAUQQ4ABhFgAOAUQQ4ABhFgAOAUQQ4ABhFgAOAUQQ4ABhFgAOAUQQ4ABhFgAOAUQQ4ABhFgAOAUQQ4ABhFgAOAUQQ4ABhFgAOAUQQ4ABhFgAOAUQQ4ABhFgAOAUQQ4ABhFgAOAUQQ4ABhFgAOAUQQ4ABhFgAOAUQQ4ABhFgAOAUQQ4ABhFgAOAUQQ4ABhFgAOAUQQ4ABhFgAOAUQQ4ABhFgAOAUQQ4ABhFgAOAUQQ4ABhFgAOAUQQ4ABhFgAOAUQQ4ABhFgAOAUQQ4ABhFgAOAUQQ4ABhFgAOAUQQ4ABhFgAOAUQQ4ABhFgAOAUQQ4ABhFgAOAUQQ4ABhFgAOAUQQ4ABhFgAOAUQQ4ABhFgAOAUQQ4ABhFgAOAUQQ4ABhFgAOAUQQ4ABhFgAOAUQQ4ABhFgAOAUQQ4ABhFgAOAUQQ4ABhFgAOAUQQ4ABhFgAOAUQQ4ABhFgAOAUQQ4ABhFgAOAUQQ4ABhFgAOAUQQ4ABhFgAOAUQQ4ABhFgAOAUQQ4ABhFgAOAUQQ4ABhFgAOAUQQ4ABhFgAOAUQQ4ABhFgAOAUQQ4ABhFgAOAUQQ4ABhFgAOAUQQ4ABhFgAOAUQQ4ABhFgAOAUQQ4ABhFgAOAUQQ4ABhFgAOAUQQ4ABhFgAOAUQQ4ABhFgAOAUQQ4ABhFgAOAUQQ4ABhFgAOAUQQ4ABhFgAOAUQQ4ABhFgAOAUQQ4ABhFgAOAUQQ4ABhFgAOAUQQ4ABhFgAOAUQQ4ABhFgAOAUQQ4ABhFgAOAUQQ4ABhFgAOAUQQ4ABhFgAOAUQQ4ABhFgAOAUQQ4ABhFgAOAUQQ4ABhFgAOAUQQ4ABhFgAOAUQQ4ABhFgAOAUQQ4ABhFgAOAUQQ4ABhFgAOAUQQ4ABhFgAOAUQQ4ABhFgAOAUQQ4ABhFgAOAUQQ4ABhFgAOAUQQ4ABhFgAOAUQQ4ABhFgAOAUQQ4ABhFgAOAUQQ4ABhFgAOAUQQ4ABhFgAOAUQQ4ABhFgAOAUQQ4ABhFgAOAUQQ4ABhFgAOAUQQ4ABhFgAOAUQQ4ABhFgAOAUQQ4ABhFgAOAUQQ4ABhFgAOAUQQ4ABhFgAOAUQQ4ABhFgAOAUQQ4ABhFgAOAUQQ4ABhFgAOAUQQ4ABhFgAOAUQQ4ABhFgAOAUQQ4ABhFgAOAUQQ4ABhFgAOAUQQ4ABhFgAOAUQQ4ABhFgAOAUQQ4ABhFgAOAUQQ4ABhFgAOAUQQ4ABhFgAOAUQQ4ABhFgAOAUQQ4ABhFgAOAUQQ4ABhFgAOAUQQ4ABhFgAOAUQQ4ABhFgAOAUQQ4ABhFgAOAUQQ4ABhFgAOAUQQ4ABhFgAOAUQQ4ABhFgAOAUQQ4ABhFgAOAUQQ4ABhFgAOAUQQ4ABhFgAOAUQQ4ABhFgAOAUQQ4ABhFgAOAUQQ4ABhFgAOAUQQ4ABhFgAOAUQQ4ABhFgAOAUQQ4ABhFgAOAUQQ4ABhFgAOAUQQ4ABhFgAOAUQQ4ABhFgAOAUQQ4ABhFgAOAUQQ4ABhFgAOAUQQ4ABhFgAOASc79fxUSJ4mcC2T3AAAAAElFTkSuQmCC;imageBackground=none;imageBorder=#33FF33;fillColor=#d5e8d4;strokeColor=#82b366;" parent="WIyWlLk6GJQsqaUBKTNV-1" vertex="1">
          <mxGeometry x="-80" y="950" width="160" height="286.95" as="geometry" />
        </mxCell>
        <mxCell id="KWgbuxi52lWq2ZlGSnJL-62" style="edgeStyle=orthogonalEdgeStyle;rounded=0;orthogonalLoop=1;jettySize=auto;html=1;entryX=0.5;entryY=0;entryDx=0;entryDy=0;fillColor=#d5e8d4;strokeColor=#82b366;" parent="WIyWlLk6GJQsqaUBKTNV-1" source="KWgbuxi52lWq2ZlGSnJL-53" target="KWgbuxi52lWq2ZlGSnJL-64" edge="1">
          <mxGeometry relative="1" as="geometry">
            <mxPoint x="480" y="1310" as="targetPoint" />
          </mxGeometry>
        </mxCell>
        <mxCell id="KWgbuxi52lWq2ZlGSnJL-53" value="" style="shape=image;verticalLabelPosition=bottom;labelBackgroundColor=default;verticalAlign=top;aspect=fixed;imageAspect=0;image=data:image/png,iVBORw0KGgoAAAANSUhEUgAAAXQAAAKLCAYAAADmT3MCAAAAAXNSR0IArs4c6QAAAARnQU1BAACxjwv8YQUAAAAJcEhZcwAADsMAAA7DAcdvqGQAAEnjSURBVHhe7d0JvF3joffxJxINEkUTEoJEE2IeGhUVQVFqnquK4lW3FMXFxcVLL7209KWllxYXN1oqlKLmqWIsacykqHlIyUXFVIn97t9z1nOyzs4+Jyc583N+3/PZn7PXsNe8/+tZz1p7rT5n3Dy9EqReoE+fPqFSqcT/9aRu9fopd0O5e2u7lf+XtfbzSepe7lb+31w3pO6Yl25I3cvdyv/L6n0umdvnUjfUdkdruqGlYdf7LDpivElHDbv82T7Vhtl9S5J6rAWK/5KkHs5Al6RMGOiSlAkDXZIyYaBLUiYMdEnKhIEuSZkw0CUpEwa6JGXCQJfU5R555JGw1157hRVWWCH+hH2JJZYIu+66a7j55puLPtQaBrqkLjNz5sxwyCGHhG233Tasu+66YdKkSfHeJC+++GLYcccdw+GHHx6Dnv5ywg7s5JNPDvfee2/Rpn14LxdJXWbfffcNr732Wrj22mvDwIEDi7azffLJJzHQF1pooXDZZZcVbXu+oUOHhmOPPTZsvvnmYfXVVy/atl2nltAfeuLtsNE+N1b3tp8XbST1VlSn3H333c2GOQjyK664Ijz66KPhhhtuKNr2bM8++2wYPHhwPPpozzBHp5XQ3/vgn2H0tr8P71f/3/LrLcLG6w4tukjqjahSoYRKlcvcEPqXXHJJ/N8dnX322eGxxx4rmlr21ltvhQEDBoSrrrqqaNN+OjTQr7vrlXD6RU+E+y/bJlxw1dRw6H8+FNsf8p1VwplHfTW+l9Q7Ue1ACX3llVcu2jSPqhf6f++994o23QtHEoQ6/+eGndLaa68d69DbW4cF+guv/iOstfMfwsxZlTD5yu3CjZNeCyeeMyV2G7bUIuGFm3eN7yX1TlzN8vbbb8fqh9Yg0CnddkebbLJJDGj+zw1X73z729+O/9tbh9WhX3nLSzHMcf3dr4Yxq85eaa///aNw35S/F02SeqNhw4aFd955p2hqGSX0GTNmFE3dD0HO0UZrUIfemqOS+dFhgT7tnY+LdyH8/vaXw0ZjhoRBi/cv2oRwzR0vF+8k9UaEYGtPdBKWG264YdHU/bQ20Ln88qWXXmr3k6FJhwX6BussVbwL4fG/vhtefnNG2G6T5Yo2IVbBlHHlC+3O+e0z4c6H3izaSsrVgQceGM4888y51osTglRn0H93tf7668eS95NPPlm0qY9+Ro0aVTS1vw6rQ5/x0Wdh2Ka/C5/+s+ESxZN/sHZYb40lw9YH3Rab8dDl24a1Rn8pPDb1f8N+J9wbnn5h9orddL2lw3Xnbhb69evUKysldSKucOGSRC5hrHfpImH+rW99K7z77rvhrrvuKtp2T1y1wvwsvPDCRZs5UXW08cYbx0sxO0KHpeXARRYMW2wwrGgK4Zb734jVLgMW7le0CeGa218O5/3u2bDRPjc1CXOqZg7cfbRhLmWOK0O44mONNdaIPxxK9eQEH1eD8OvRTz/9NEyZMqVDLvNrT5zk5EdS7Hiae+2yyy5xfjvKfJfQD/qPB8LMWS3/QOipakj/5enp8f2Xl100PH3dTtWS+KRw+Y0vxnb9+vZpPHGajK+G/sWnbhiWHTKgaCMpd/wE/txzz43/p02bFgYNGhTD/Hvf+168Xp323B7gwgsv7JCrQzoL88KvY/nfEeY70Lc68NZw159bfwnR93ZZKZx7/PrhT4+8Fbb8l1uLtrP1rYb7Cd9fKxyx92rh4mufiyX3v736QSzVn/LDMWHMqoOKPiX1Rj0h1DnCSEcVtag+WmyxxcKDDz7Y7C9j22q+A5167y0OuCW8P+Ozok3zuO78vsu2CUMHN9QtnfObZ8KxZz8SZhWlc0rvF/xogzBimYFh7+MmhfsfbXpJ47e3WiFc8uPxRZOk3qqnlNSpI99uu+3iL0JBmF999dVh9913j80dpU0nRV9+Y0YsSU996R/hw4/mDPbFFv1CWHOlJcKhe64aFq++L3tt2ofhnkemhcFL9K+WwoeGW+9/PRxw8v3x1gBJ/y8sEE4/Yt1w0O4dc82mpJ6HUD/qqKNiSbc7ev/998Oaa64Zfve738WrX8DVLdzmgLss8gOpjtLmQG8OpfLWnNT85NNZ4egzHw4XXP3Xok2DVUcuHuvSuQpGkjR3bQr0r+x2XZOrU8r6f6FvOOK7q4YT/mWtZoP9nXc/CVv8y61zDIP69tOPGBOvlJEktU6brgs8YNeVindz+vSfs8LpFz4Rzryk+QvtTzjnL03CfLGBC4bf/nTjePLUMJekedOmEjpOOf+xcPpFjzee4KzFNeWv31n/RMCQjS5vPKn6tbWXDJecOj4MX6Zjzv5KUu7aHOjgV6HlE6P8dJ/b5iaf/OW7xbumhn39d2H6+w2X93Dy9PIzNg4jl/tibJbU8/FTeK744IdC3IuFK1T69Zv948L2wDj40REnSjvqcsC5uf322+OL+eREKFfgtPd8tka7BHqt8o+HVhrxxfD47+tfRH/Ijx8MF5ZOhvIr0rOPWS/svX3H3etAUufgKpTx48fHHwlxn/CXX345nHTSSe1+H3AefLHffvvF55COGDGiaNs5uO6c8L7llltC//7943xylcuYMWPi/Hd2qLf7b+u5ydZ1d71aNIWw02bD439K7Vy3zlOL9jj67vDU8+/GE59fW2v2Tbw+/HhmvHTx1F+17skfkrovfrrP9dfPP/98vMPgNddc06qnE/UkHBUQ5uyouMkYr4kTJ8bnhbY2zDnCOP3004umtmn3QL9n8rQYzMnOmw+PTy7iplx041LHa+54JYzd44Zw8TXPhdsu2CIcvveqRd8NTr/w8fBW6fa7knqedM9vwo2g4+furX2YRU/APF100UVhyy23jEcd6WlFlNjn5UdPVBcdd9xxRVPbtHugX3lLQ1ULll96QLyO/LizJxdtZuMeLkf/7JGw8+F3hqP2XT384ZzNwpBBDQuEbs1dDimpZ+Bp/XvuuWf45S9/GVZYYYUYepTYQTXJkksuGV/coAvnn39+WGKJJcKCCy7YWJKnG7fNXXrppWNIpioO+llllVXiD3aSrbbaKranexpPR6JkzXjSj4fq4b4t3H1x0UUXjTcfA08rYp5oT8n85z//eWzPMmrrj6XaNdCpbuHpRMn2mywfJj/9Tnjh1Q+KNg0/4+e+Lcmt978RxnzrurBgvwXCQ5dvF77xtWVie35lKqnnosqBEHvggQdinfKPfvSjWEVB9csBBxwQ9t9//3DkkUeGI444IgYzJ00vvvji2I6dAOFNKZjwP+WUU8Kpp54an5TPgyTOO++8sNlmmxVjajBu3Lhw2mmnxZ/Yp/DsSOloo6WnLhHoEyZMiNOadlw8Ro8TqMwrNx/jdrqg2qbN5wA4Kdpe7njwjUr/dS5tfN37l2mVk879S2PzMl+/ovLZZ7MqDz7298pKW1/VpF9eP/3vJ+JwLv3Dc/G/pJ7tgw8+iP8/++yzypAhQyrDhw+vVIOMCzEq1SBrfE2aNKly8MEHx35Gjx4du7/44ouVasjFzyQjR46s7LPPPkVTgzQ8+sewYcPi5zoD0zNw4MDKM888U7RpmOe333678vHHH1eqO7I4P2newfyW54Fpba8obtcSOnXlCT/dH7fOUuHKW18q2oSwxQbLVPfaC4Sxay4ZHrpiu7DrFk33Riee85dwzyNvhe96lYvU41GFsuKKK8ZqBUqn06dPj/XqqYqCx7ZRv06pm9I5JfETTjghvppDf5yE5IQrpf16j7DrzCtLmObqziqss846sTTOvHBvd+aNB3dMnjw51pFzuWZzFl988fifG45xP/U2KYK9XXx5y4mxpM3/R5+dHl/lEvgf//Rq0edsF/3+r5UvbfCbxn4OPvWBoouknuy5556rbLnllpX+/fvHEuhmm21WefPNN2O38847rzJgwIBK3759G0urRx55ZOyPUi0v+j3rrLMq48aNi91BO4ZJf5R4H3jggcrEiRPj+zRs+udzneXhhx+O08S8MF1jx46t3HbbbbGEzrTQbocddoglc+y+++5xXpMnnngiLgtezEtbtNt16Py46IKr/hqGDVkkbD1+2fjT/ZN/OaXxB0ZfX29ouOn8LeL7WlNffD/sfdw98dmj++44Kpz/fzcoukiSWqtDfliU7Hv8pHi1CgF/1H6rt3h/Fu66yL1dvrLKoPCdbb5ctJUktVaHBrokqfO0+3XokqSuYaBLUiYMdEnKhIEuSZkw0CUpEwa6JGXCQJekTBjokpQJA12SMmGgS1ImDHRJyoSBLkmZ6POPf/zDm3NJUga826IkZcIqF0nKhIEuSZkw0CUpEwa6JGXCQJekTBjokpQJA12SMmGgS1ImDHRJyoSBLkmZMNAlKRMGuiRlwkCXpEwY6JKUCQNdkjJhoEtSJgx0ScqEgS5JmTDQJSkTBrokZaJdHxL9zjuVMOODEEas0Kdo07yZM0N48olKmDWraFG17HJ9wpAhRUMbfPppw7CXXiaEZZaZ+7RIUg7aLdAJ8+9/rxI+qAb6RRf3Ccst33KQvvFGJWy39ZyjXml0CKed3qdVO4Xm3HhDJZx4QnX424dw8n94ECKpd2iXtEth/tJLlLJDGDS49WH8hS+EMGbdhtfii4fw16khHPbDSizBz69yqV+Seos2B3o5zNdaO4Rz/2uBsMgiRcdWGDQohF9fuEB8XfI/DTuC117l1W41QZLUK7Qp0Nsa5rUWLj5LqX3Q4Ib3kqTWme9Ab68wp879V+dX4usHBzaUyg//1z5h0UUbSuuPTqmES/67ofvvrqiEjz6KrRtNuqeh24RLK+G9d+uX6vnM9ddVwo1/tNQvKV/zfVL0yCM+D3ff1VCavv7GBcLgeSxRN3dSdMSIEM7+xeyTqvvs/Xl48on4Ntp4kxD+39kN+6Hjjvk83HpLfBtRfXPlVX2qIR/CySc1nBT9t2MXCIf+4PPw6KPVHcURfcLe+8z/yVZJ6s7mu4R+3PF9Yvj+858hHHPU53OUnFuLEP7VhX3ia9/9Qizx77VnJUyb1hD2J/9Hn3DjLX3C/Q8tEIZXx3fvpNg63H5bJYY50/Bf5/cJJ/zfPmHHnfqExZeYHdhMUwrzPb5jmEvK23wH+uDBDSFMoBKYBOf8hDol/HXX7RNfhx62QKy+4Vr2O25ruFb98t9Uwi47VsIGYz8Pb74x+wqWB+5vCPyDDu4Txq7fJ+y0c5/wg0OaBvYdtzdM20orhXDUvxnmkvLWppOi7RXqCaXyl6sldBDc1I9ffVWIVSfX39gwnmTgog3/X3214T+oxinb5OsNJfi//jXEOnZJylmbAh1tDfW//z2Ebbf+PL6oU3/vvYbr0bfaZnZpnGodrk+n34Tqlb59Qzjvl5Vw3LGfh/33+zzsuF0lPP3U7OBetBr65/xXn1itc/ZZDSdVJSlXbQ50lEOdQP7oo7kHJ2EMQpuqFF60+9oGDXXqDHP8Rn1iFcy113ACtBI2HD/7cyus0CeePCWsb705hCcer+4YqiX5lUb3abz8kX756T/9LbxwCD87oxIeetBQl5Sndr+XCwjj9kRVDJdEpksZa1HVskg1sMsnRCWpt2nXQJckdZ12qXKRJHU9A12SMmGgS1ImDHRJyoSBLkmZMNAlKRMGuiRlwkCXpEwY6JKUCQNdkjJhoEtSJgx0ScqEgS5JmTDQJSkTBrokZcJAl6RMGOiSlAkDXZIyYaBLUiYMdEnKhIEuSZkw0CUpEwa6JGXCQJekTBjokpQJA12SMmGgS1ImDHRJyoSBLkmZMNAlKRMGuiRlwkCXpEwY6JKUCQNdkjJhoEtSJgx0ScqEgS5JmTDQJSkTBrokZcJAl6RMGOiSlAkDXZIyYaBLUiYMdEnKhIEuSZkw0CUpEwa6JGXCQJekTBjokpQJA12SMmGgS1ImDHRJykSfSlXxXurxnnnruXD/3/4cHn/96fDS9FfD2zOmh4/++XFY5AsLhyUHDgojBi0X1hy2atjgy+uFVYauWHxKyoOBrh7vs1kzwx8evzlc/sjvw/Nvv1i0nbtRS64Q9lh357DDmt8MC/btV7SVei4DXT3a5FceDyf/8YzwyruvFW3m3fJLLBtO3uboMGb5NYs2Us9koKvHOn/SpeG8SZcUTW130Ph9w4Hj9ymapJ7HQFeP9J+3nB1+N/kPRVP72X3MDuHftzy8aJJ6Fq9yUY9z5u3/1SFhDobL8KWeyEBXjzJxyvVhwp8nFk0dg+EzHqmnMdDVY7z1j7+Hs+/8VdHUPpZadHDYZrXNw6L9BxZtGjAexif1JAa6eoyf3/XrMOPTD4umthuy6JLh8v1+Ff5zh+PDT3Y8sWjbgPEwPqknMdDVI7z67hvhpqfuLJra7gt9vxDO2vWUMHjgl2Jz+l/G+Biv1FMY6OoRrn3splCp/rWX47b8YVht6dHx/azPZ4XTbvlFfF/G+Biv1FMY6OoR7pw6qXjXdjuttXXYae2ti6YQfnrbuWHKa08UTU2153iljmagq9t7Z8b/hr9Nf7loaptVh64UTtjqX0Of6h+4ZcAVk6+N7+thvIxf6gkMdHV7f/37C8W7thk04Evh7F1PDf0W6Bubp057Ppx601nxfUvaa/xSRzPQ1e29/t5bxbv517ca4j/d8cQw5ItLxuZ3P3o/HH7VieGfs/4Zm1vSHuOXOoOBrm7vvY/fL97Nv3/d9MCw7vC143tOgh5z7SnhjfdbF9TtMX6pMxjo6tEOGLdXuPp7/x02X3njos2c+OHQXuvtWjSFeEOvh16aXDRJ+TDQ1e0tvvBixbumaH/IxvuHUUutEP5z+38Po4eMLLrMRjtOgia3PfuncMF9lxVNrdPc+KXuxkBXtzds8aHFu6aoCuHJRPhCvwXDKdseG38wlPBz/jN3/lF8WhHXlL84/ZVw4vU/Kbq2XnPjl7obA13d3kpLzVnyTk684SfxEXNchjh6yKhw2NcPiO05CcrP+ZdfYlhs/vifn8SToB9/9nFsnhctjV/qTgx0dXv8LP/Lg4YXTU29VC11l++5Ql352BFfiXXrG4z8atE2xJOg9DuvGG+92wJI3ZGBrh5h09Hji3dz4odB9zz/QNEUqiXz/xufPkSpnaqWC+6b0KT7vGhpvFJ3Y6CrR9hxra1iQDeHunGuLccSi8w+iXn/3x4O5026tGiaN4yP8Uo9hYGuHmG5JZYJW622adE0J06QHnH1ibE+PeGXoMdcc0q87nx+MD7GK/UUPlNUPQYPnNjlgv/T4j3RubJl3Mj1wgefzAgPvjR5vsN8YP8B4eoD/jsM/eJSRRup+zPQ1aPwaLhTb/p/RVPH4dr13dbZrmiSegarXNSjELJ7r7db0dQxGL5hrp7IQFePc9TmPwi7j9mhaGpfDJfhSz2RVS7qsc6fdGm8L0t74VLHA8fvUzRJPY+Brh5t8iuPh5P/eEZ45d3Xijbzbvkllg0nb3N0GLP8mkUbqWcy0NXjfTZrZnzy0OWP/D48//aLRdu5G7XkCmGPdXcOO6z5zbBg335FW6nnMtCVlWfeei7c/7c/x5t2vTT91fD2jOnx2nRu0LXkwEFhxKDlwprDVg0bfHm9sMrQFYtPSXkw0CUpE17lIkmZMNAlKRMGuiRlwkCXpEwY6JKUCQNdkjJhoEtSJgx0ScqEgS5JmTDQJSkTBrokZcJAl6RMGOiSlAkDXZIyYaBLUiYMdEnKhIEuSZkw0CUpEwa6JGXCQJekTBjokpQJA11d5rXXXguPPvpoeOedd4o2ktrCQFenu/DCC8Nyyy0XX+uss05Ycskl4/9LLrmk6EPS/OhTqSreSx3u7LPPDkcccUTRNKezzjorHH744UWTpHlhoKvTzJw5M5bG33vvvTB8+PBYIl922WXD3XffHU4//fTY/tlnnw2DBw8uPiFpXhjo6jQvvfRSWGGFFeL7Y445JoZ4QthTpz5ixIiijaR5ZR26Os3iiy8e+vbtG99fe+21TU6G9uvXzzCX2shAV6ch0Hfdddf4furUqWGNNdaIdeozZsyI7dqKHQRVNlTdNIfuzz//fNE0p7feeis8+eST4ZNPPinaNMVn6V5vmhk/3bxqR12GKheps3zwwQeVcePGUc3X+KoGfeWUU06pfPbZZ0VflcqECRNit4EDBxZtGiy00EKx/cSJE4s2lcqrr75a2WGHHRqHRz8HH3xwk+FdfPHFlaFDhzb2M2rUqMoDDzxQdK1UnnnmmcrGG2/cZBhMU0J3PlPufvzxx8duH3/8cZPx82JYUmcz0NXpCNqzzjqrMmTIkCYhSNAT+CCAU/uy1I7uePfddyvDhw9vbF9+pdA/55xz6nYfPXp07M4whg0bFtsxrG222abSt2/f2HzGGWfEflJg0x/TOWDAgMpJJ50Uu5133nmxG+0IcuZrzJgxsZvUmQx0dRmCnWAeNGhQDERehx12WOzW2kCnlExz//79K9dcc01sx/9UemYHQSmffrbccsvK22+/HQP8+9//fix147TTTovdCXNK2+V2BDg222yz2Mz/N998Mw43HQGU+3344YdjO8YhdTYDXV3uiSeeiIHIi9ItWhvoqfpmzz33jM217rrrrsbPPPfcc0XbplJYN/dCqgLi1a9fv8o+++wTgx0Ml9J56r7++us3qc6ROosnRdWpOKn4yCOPFE0NVl999VAN8vi+3glFLmks/+8o1WAP1R1Fk1c1yGO3vfbaK1x//fVhrbXWitNx6aWXhs033zyePB01alScpx122CH2++CDD4bx48fHE6RSZzLQ1akIxq9+9ath3333jT8oIuCPPfbYMG3atNh9ww03jP+HDh0a/4NbBRCip556atFmtk022ST+v/rqq8MNN9wQ3998883hm9/8ZrxiZd111w39+/eP7Q855JC4w+AqGMZ/7rnnxvYEMx577LFQLV3HbgyXHz0xvWD8DIt7z/BrVjz11FOxGQsttFC8FLN6tBEvwaR/mqVOVZTUpQ5H/XXtidDyi2qLVAdNXXY6UVnvlapcGGZz/aWrVDgBW68746MuvHxSlNeIESPif6pWJk2a1DgMmqlOqR5RxO6cOOUKmylTpsTmlVdeuVLdITUOJ02j1FkMdHUq6p05IbnYYos1Bh+vsWPHNoZ5QpiWr2DhqhRCkiAtX7b44osvxhOeqT9OkNZetnjBBRc0OfnKsFq6bJFx7L777nGHAQK9PM28T4HNcMrTyWdrxy91Bn/6ry7DrQCog+beLS3dv4Vqmdb8kpTqFF5U1/AjplpUgzDOloZFNQ1VMlS3DBw4sGjbIH2e/9SbM5wybl3AD47qfVbqDAa6JGXCk6KSlAkDXZIyYaBLUiYMdEnKhIEuSZkw0CUpEwa6JGXCQJekTBjokpQJA12SMmGgS1ImDHRJyoSBLkmZMNAlKRMGuiRlwkCXpEwY6JKUCQNdkjJhoEtSJgx0ScqEgS5JmTDQJSkTBrokZcJAl6RMGOiSlAkDXZIyYaBLUiZ6XaA/+OCDYcaMGUVTU5988km49957iyZ1VzNnzgxPPvlk0dRUS93qefTRR4t3Ibz00kvhvffeK5q6h/L01WI7fv7554um7o9l25OmtyfqdYF++OGHh7322qtoamrfffcNhxxySNGk7uq1114L66yzTtHUFDvsbbfdtmia08knnxy3ARDg5eF873vfC9dee218f8UVV4RNNtkkvu8qLc0nrrrqqjjNPQXLtidNb0/U6wKdL+rtt98ezj333KJNg0suuSTccMMNsbu6P0ri9TTXPll99dXD2muvXTQ1Vf7siBEjujzQ5zYvUq1eF+h8Uc8///xw9NFHNx7Ochh46KGHxpBfeeWVY7uehJIc86S523XXXeOR2Nysv/76sTQv9SS98qQoVS677LJL/E895Le//e2wzTbbtOqL3h2xQzr99NOLJkm9VZ9KVfG+VyHIOfyeNWtW6N+/fyytDxw4MHZ76623wmWXXRb7+eY3vxlLawlVMtTRpn45AUd/9MNJ1bvvvjsMHTo01hcOHjy4bp08h9LUfz777LOxX3YkCy20UHjnnXfiSdkdd9yx6DPE6iGOGpZddtk4/AsvvDD2t+6668bpIMxpx+vMM88M/fr1azxHwHiYD+qKGQalU7qD6WacjzzySJwOhs900C/TxmeZDpZRwkkthsf4qbYoTyfVVYyD5cM4jj322KLLbMwLddwMO00/GCfLkOHTD9PFPDBNCfPJdLEMWGYHHXRQqLfpsvz57KmnnhqHyzqgefHFF4/dy+uL7iussELjcKhiYRnwYhtgm2D9g/VJ9+bmHywDlmdSnsey5pYDytse03zEEUc0mU+Gf/PNN8f3TAfTyDyDaWR9pXVw1FFHxf/0w7ShvE7L21N5fjjiYxqYPqatXEWV5rF2ubb0mYRqTV5spwyH9UydOsMC6595YL2k7Zgjar4T9FM+emae+DztmA/GzTSk7Tht571Nryyhg0Bm42IjYKNOAc2GsuKKK8aNlg2ML3S5vn2PPfaIX4CEkEnVHXwZd9ppp/jF4LM010pBecIJJ8R+mIb0hSZs0gm7hGAiAHDggQfGDZ5hUCLn83zxGQ/t+CLwAs0E0Nlnnx37oX+aaQ+m+6tf/WqcN7ozng033DC+GAbL4Wtf+1pcPmCe6Z8g4otEYDM9yXbbbRc233zzOC315hssJ8bP5zkqYkcCAmn8+PHxi8g88WVPO0iwLjg5yBebz/PlbQnjZzmlLzrDYrgor6+WMG3lox7WC+HBumBZEDZsNwnLjwAF00k3djz1NLcc2GkxnwQ20848lLGtpB0R85OCPWHbYx0z/6w3Qo1lyXpheGlHlnYAzFPaeROyabtmG2BaaC4vA8KX7ZbpZh7ZGaXlWv4My6I5kydPjvOc1jPDSOs57Zz4LrJMKICA92nZJmwrfI4X88eyYrpYRmkn3CtRQu+tXnzxRYo+8X8ybty4ymmnnVY0VSpTpkypDBgwoPL222/H5tr+TzrppMo+++wT36fhvfnmm7G5ngsuuKAyevToygcffBCbP/vss8oDDzwQ3991112V4cOHx/fJxhtvXLn44ovj+x122KFy2GGHxfdl9T53zjnnVNZaa604fPCfZtqD6d5yyy3jezANtdM+ZsyYxv6POeaYyve///34Hq+++mqlb9++jcuCzz7xxBPxfWvssssulQkTJsT3zN9qq63WZFoHDRpUue2222LzNtts02S+03Kup3ZZMKzyOq23vpLysmY4NCcMk3YJwysvv2oIVZ577rn4nnEOGTIkbjtzU14Oe+65Z3wltdPHMCdOnFg0NSy38jTSb9qWkmHDhlUmTZpUNDVsFywPMO6DDz44vk+Y9uoRa+Wmm24q2jRgXhhW2m7B/J9xxhnxPd+R2s/Uam49l5dr8vHHHzfOO++Z97R8r7/++spmm20W3/N9Su9Bv0xn2nZ6m15bQm/Offfd11gyAIeOHPZRMm2t5kpmSFUq6YiAUhSlptagtESpLJXiWkKplpJQOvTkP/NF+6Q8nekQudyOQ/NUamP+r7766lhFwYsSdZ8+fRpL8EjzVA+lQ8Y/atSoOC5KuuloARxSl6eV0nAaNkcuqTpgXjEsSmyU/tqK7SBhOaWSJaVN5i91Z5x0T6XXspaWA+umvO2VUSqfNm1a3SqcsvL6Y/m9/vrrYe+9925cbz/+8Y8bj6DYnhh/eXti2jmqYdthmacjPpbf9OnTwxprrNE4rIceeqjx6IKScfoMJfXm1FvPaRxsY2xzlNrLVTaUvDka5GgTHE2kI1m+T5T60zStssoqcTqbO0rMnYFeo1rSaPJF5MtGqKV6vmqJojHk5gcbZ0uf5wvfHDZ+wq1awoxf/NpD8jLCtXajZrzNhS7T1RI+t//++4dqaarxVS0xxUPt1qAKgi8wX3bCYW4Bnb70YNrqhWNrsUxTXW9HYNjVo5lY1UDIU41BSBFMtVpaDmxjzW0bafrnZTmkdX355Zc3rrNqCb6xcMJOhe2pWkqP2xPTDd4T1OwcCHu2I9ZB9SilyfqvltobqyPLn6FqrrWBWl7PnG9iJ8OOLe0oEgI9XXLMMko7NpYLFzSUp+uZZ56JO5feyECvwYbD3j99cbh0jY0mfTn5EqRr1fnSzq2kXIu6Vz6fPscXmxIkQUCphPGmOk7+P/XUU/E92NAJJ6aPDbp81FAu5YENmlJT6oeSTCpFzQ++sJdeemljSZQveCpZtQbzlUKJL/u8lJiZZsKScTOftb8hqEWpNK0jgqEt890aLGPmibBhHgkl6ofr7TxbWg5MI6XQFIblcwUpuNgeWQYsi5Z26OAzW265ZZwedhasN0rt6ciC6WY41I2zftlGwHzQP8u5b9++jdso08V8MRxOPjLtKZBrP8OOYl4xLWnZMLwydhRM42677dakPp1lxpEj08h08XnGXd5R9Ca9OtDTSi+vfL4wbBhLLrlkWHTRReMGzBcn9cOXg1LWwgsvHAOYDTt1I+TYmFtCiZaNnmBfYokl4jAopfFZNkZOOnGSh+HzRVtttdUag4FpYYfCYS/BnU5KUnLny7DgggvGDZwSDOPh0JQvIuNhB0BzKlEzzbWBw9U+ZfST5o2TUJTQ2bEtt9xycZwpAMBnmYfmMC/sxDjhzDTw5U/Drjct5XYsEw7FWSe8CBaOlOrhMywz5nXppZeOy5cdICcLwXDTdNauLz5bnqb0HrXN5X7ZYTAOlgdhybpp7silpeXA+qT6jaoD5pPhDBkyJHYD2x3t6MZ2x/ZSniaOLsvNYNrYHvgMy4P1SPiB6U3bE+/TFVls46xjqi+YHl6Mi+8BO9a0HtiO2e7SZxg+n2EbScu7jGlraT1zop3tlPln/ZXnHSxjtrPyzplpO+uss+J3iPGzXNKRRm/Uay9bnBu+BHw52UBq0Z5QKYf5vKKURWmJkkdtEFKK44tSb9y0Z9rY6ZTRns/VfiZNa73xzI80/vkZXprn+V1ujBeEYGsw30xjKvV1FErSXF7IjjgtE8KIkmS9aZ3bcpjbfPJZ5qk2HFvCsmC8tdtHc9tTc9OQpp1x13ab1/VTD9sw2yzbVz3lI5yytJ0z7nlZLrkx0KU2IkwoKRLo6RrvVF1SW3UgdSQDXWoj6uupIkjnL0C1ClUDlCilzuJJUamNqId+7LHHYn01J4qpj6bev1zXK3UGS+hSO6CKhStUOOFI/S9hTqjP7zkWaX4Y6JKUCatcJCkTBrokZcJAl6RM9NpA59rh2vtF5ICTcvxYpDPwQw5+ZDI39Jd+nVjGZ+vdAoD+57ZuuJqkfI13eTh068rLBfmBTWuWS1dLt0UoX26pnq3XBjo/D04/nc8JPy3vrJ8+c19vruSYG34yzo9uavH5eg8A4Sfgc3v8Gz8D/8Y3vhHDm/DkJlIJn53b/V46EuNuzXLpSix7fgyVrpevdyOxzsZy434tmn+9NtD5CbM6B/eTefnll+copXNvGm5XnH4ynlDy5jMt4d4h3LOFo5F669L12zJ2OOxo+VEU66V8I7Cuwu0H2Mlo/lmH3ksRop1ViuWLOnLkyCZVJIQIh/yjR49uctdA2nG3xLkFOsPknh7cJEzzjnuGl8Ozs5cj1Tzs0Mu4MVftk4k0bwz0XopbjPJz9c5CQJcDnRCnXbqdcMItg9daa61mb86U8MWn2sUf7sy/9rhZ2/wizHvzXRE7Sq/9YREngyihUufMSTjuQke4lDdySosED4fvlB7KT1HhpBuHqZR0uSFTue6PjZU6SbpTJcBtUuvVIYN7UnN3uHRTJ07WMs70s3FCkGlrbjpolw6budMct1gl6NIzF5mWdG9qppHxUOfMvNNvCnX6B8Nj2dBPvWVCnSvTTLt04pL+5ybV1bK8CGGWCcueUiK3b3333XfjcuA2qJQWqVJBeTmzTJl/sFzTXfWoR+eWq2lTZl4owderh6fftANJ40pozzyxHJnvdFc/djL0xzzweZYL4yjvTOiHF8sl3Y+73nJhfliXDId+GU5zOy/WBaHHNNWOs6VujJ9hs02k7YvuzBfrlW1qv/32CxdffHHsP2HbYBmz3XD7AvpnWpk+zjcx/2x7jJf1kbZr+mWYjId1mpYb3ys+z3+mh24Mk9I5t+FlGLRj+OzcWSa8yrfeZful/9p1wnwwXDBdzDvbV+1dI3ubXl1CZ8NnYyQc+Nk2GydfFLCRsMHyBaQ7G1k6RGRDJIhSsFEfWT7BygOT2fC58oJ+CSE27Ho4OVUuqbCR8iDqhA2f6aA9r/J0MK1MM8HFNLLhl+up+XIwbKaR+UjzR78Mi/fpSwSaGX76DEHKFy0tE+YzhTKfZxm1FsMlKJhGPs+yY7kQlDwJJy0fQjFVtzCOdO93pocdVTokT2E+Lxg/T9MhDHilR5qB+aKZ8RBOrF+WE1i+3OebwKcd66R8Mpdm5iWtI+ahOWxvvAgm5ouQqodpZX0xbNYdO+C0M0vrnZ0e08M2lJYvWH/MJyeX6c500z9oTus7rXteqYAD5oEHTlMAYNw0g/ER+kw/7Zgetk2WBf2xvaTxgOXAd4B55X1aZqz/9L1i3Gn49FPeCdM/L/pj+yg/CYl1tNVWW8VpZHh8loeaM9xejRJ6b1T7gF0efjty5MjK5ZdfHpt5kDMPo03on4cmgwcm77///vE9eLAyD9YtPzC5/LDeI488Mj6Qtx4eWMyDi5N6Dy7mQbgJDwnmIbjgobw8PLf84N7yg45r0W+axrvqPFiaz40dO7ZoanjgLv0wHuaxWgqqPPzww0XXpg9cbg0e5nvKKafE+Skv++OPPz4+AJth87Dh9BBhHgxdfjh0ejB1emB3UrvMapdpwnLi8+WHJoNm5pP5TVgO5513XnzPtDLdCf1XdyjxffXIolLdCTRZ361ZLswj052GU+uss86KD1RO00T/admz/Goftsz01j4APHVnGpnv8kO8a7/65WlOy7O8XYHlwHQlLJPyg8gZD59L21jZM88802R7q7eMyt9Jludiiy3W5KHlu+++e+ODyumXZVCeRr6z5Ydo90bWoRco8VHKodTOXn7q1KnhoIMOanz47IknnhhLdaB0+Yc//KGxGyWDWbNmNXZH+TCaUg2liPmVDqVBqYiThoyL6WCamyutUlqnVMPRAtPAibCWUPJivtN8USrlwcSUiji0r+5I2nR5W6pHpwRZfpYm83TLLbfEIw9KeGl+Kd395je/aZye9GDqVNUzr1hOVDMxDkp2qaTKfLNsmN80Lh79l0qDoFoj4T2lRjCNPCmotVdnUJJkXdA/6y4NpxbLiaMGjhjAMknLnull+aXlxH/6ZdgJ21/qTgmZaZ7XbbDedpWqPMAwaS6Ph20kLVdK1dyJknlNR12txbywnsrfI45mWC4J1TDlaaTf5pZnb2Ggl7AxsIHw4tFkEyZMaHzwbLVU1lgXTfe2PDC51rxshClkmAa+QC0dYnLIXS0FxdBh2vmytYTh8QzK8nzxwF2+SIyP6UzVL/OD4OZJ8X/605+anHPgC88j5X72s581+eITZtUSWZPpqZb+5ns5g7pkAodhsyNmnphvTsSWx1MtzcblNzd89sMPP2z1cmH86VFy5QCuxXCbC2DWRe16ZwdPwHW1FO6gfpxQp+DR0rzWU2/+ae4O89id9epAnzx5ciztgP+UEAkaNkpKQNQZsgFxooUvUPoS0U9bHphcRqmLumiGRR0oX/ZahDGBwfipR+ZhwWzwTCPTnb4sBHf5odIprEC3cgmdUEh1rnzhQHBz5EHJnvli3hk3y4NSPsNKJ1EJkPJ5Ab5sfIHLdfi1qC/n0Wxcqlgu8YJlyvSWA51SJ3W7TGdazi0NvzVY1pTkGG71cD2W9lmOLB+WJeOhO82pdNwSlgvzk+p+WQ4tnVsor5OWQo51cdFFFzVun6yHVIfOcmb6Uzd2DvTbXH18VynPa7lkDZYt65XtmumvldZJOrHM94vzCewQ1bxeG+gE2pgxY+IGwsNl+bJwUohDRPCeDS49XJfuqUqFz9Q+MLm8wVK6L4cBgdhcOPAlpBsPcuah1ARW7cNxOalFN/oh1FPoEz5s8Gz8TCOhSEkzlZIIf148kJgQoISeuqWrO3iwNJ/jC0M48cBdmhkewZauCOFz7PAYN8uEfhk/yxF8+QiVtHNoTqruqMU8EIwMM2E5E+pUUVANwjTXGz7Lr/yAa6Y1TVcZAcNOmnljeIyT+WA+OaHHCdf0AGTmk/7BsNJyA+NjHScsI6qR+BzTyM6q3H8Zwc8RCeNneTZ31MSO7YwzzojbHeudo5K03JjmdJKUbizT0047rfHIhemrHT/N5Xb1HgielhnvqUaqVe4HtcsF5X44ic5Jbb4j7LzK3wGqm1hmPAydbRTlz7JOWD4sL+aR5cq2kC4+qDfueu16G++HXkVQU5JIG1MZVRyUImpLlOALT4mMja+8sc4PpoHxpxJNwoZPsPHlZToYVy12PExnOQwTppGdQL3pb+5zqX1tHWVC+NebZz5Tb/rKmB6+dPWWV3OH1OnoqD2WM5hOpqF2XCzftC3UrofWaG651GJeWMZzW1ZI66LecFvq1l2wTtHcem3NcmC5NrctqikDvZtLgc5LklriSVFJyoSBLkmZMNC7OU681qv/lqRa1qFLUiYsoUtSJgx0ScqEgS5JmTDQ1Ygf/bT1p/XdEb9ibQk/q+fn+vzik5/Tp1+Idhf8+GZ+b0im3sVA7+X44VL6eT8/xeYWAT0d95tJ88EvP8sPkE74VSj3EedWD9xzm3nntgLcE52fmfNDLn6h2FX4ZXBaL/zP8YHman8Gei9HoNe7ZUBPlm7ZCoK7FiVw7uNCaZwX9xnh3i2EOcFOkHO5KMuG0ntX4L4sXq6qeWWg93LpZlGtwY2tOPzv7gjrlo40KJFTCueGXPXuI8J9XuiHEjwl5a6YZ27d25bbBKt3MtDVascdd1y8GVRPRmmcOnV2TnPDHQ8J1Xq3NJa6I39Y1I1x+1DuFc2d5rjNbroDINUEVJNwIo86Ym4vy61VCSo+QwmT/tMhO3e1497lVCWkbqmahdv+plu+citeXrX36aaESj0uDxbmlq5MDyXXdAc9pofhcDc86p7r3VkvSdMIpplxg2mjKoQdBsNjGAyLdpSk+U/Alo8mGA7Do1qF6hFe4AQi80y/DJdb1abNnHnndrPlm52xHKk/p7TOMJhfblGbuhH+5WWS1ktCvxwVMAyWY1ov6Zav5fVCc1r2TCPtORFdu14YH+95NbdeEqaXZcQ4qW5iHAyvthvTwzJP3Zgu1hnzwjJjXEwDy4yqJ5ZreR2p+7OE3k3xxaI6hNuiEpaEEwEASoyc6COkaUf1QrpfNrcrJSToP1UV8MUlDNgh8MXlC5/w0IDahw/U4ovNlxwEA+/TsKkaYLxMB0HM/a+bu1KG6SWU+WwK3BRS/OcJQtyTnPCmuoN5oi6bemzGSdim+6HTTyo5s4zYwTBtYOfD5+thXssP0aDenOXHPLKcmKbygzsYf3l+WF7cv5tQJAgZT9px8p75JwyZPqpteGwe08Z6YdzME93AfKUdIdNOfwnrvrkAL2NYLBfuj84yZeeTTqDSjZ0X08V7pp0dTzqvwHzyiEK681nuX870MTx2rCxr1klPPyrrVSihq3vhYcDDhg2b4+HP6QG9PFz3tNNOi+8xYcKE+ADo8gOFBw0aNMfDkMEwy6ud4aaHSpcf0lsPnys/APi5555r8nBstPRAbKax/DBl5ieNLz30Nz1wmIcDM75y/zwkuPzQaKT+x40bFx98jXoPPAbzzkOoEz5b3clVpkyZUrRpmH4+X1ZeXtXwjQ88Bp9nPaXPM870EGPwwHHWQ1qP9M8yKD98PGHdzc96YVqZ97QcGFd6GDTbSLkb4+BBymwv4LPl6eVh4DxMmoc9J+X+1f1ZQu+GKPnxuDhKe1QX8HrsscealBTLJ/MoIVJKTQ85oPTIYXLqn5Iz1TKUNnm1F4bL8FI1ASj91ytZUsLmgdN77LFH4zz95Cc/aSxVg2qWVB3A/PHkplSaBPNESRL8p6RNO+aNxwmWh1VP7QM06J8nD6XqFdQ+RIHSKdORUNJN88u0Mp3l8ZbXC+8ZXhpmWi/poQ+s57Re+D8/WNYczaXlxrjSsOhWrn5h+6CEXl4/5ell2njYefnhHiybuS1XdR8GejfEF2rkyJFNHlpcLQU2Ps+zNdKXGBz689lUV9peCI8UsAkBWK8OPYXaxIkTG+epWvpurEKphwAqB3oZVQtpp0XVxdixY5vtNyG8Xn/99aKpYZref//9Jp+jOigFLlI1SVItKcfqEPqjyoLxU00zP1gvVIOwXso763nBPDRXJcJ6qO1Gczmw54Z1kKrX1P0Z6N0QdZiUaDm5RmmQEjj1u6kEPq8I3RSoc6svnxvCj50CJVXqfBl22tEQFoQdJcZahAthSBATrMwX8zi3EG4OIZPmiRJkawKR5ceOkgAF08RzZak7BtND/Xe69px5I3BTnTQ7H+ad/4Qi80qo19uBtQbLMH22teuF5UUdfipls6x/+ctfNs4T/ymFg3MDdGPbAeNg/uqtn9ZgvtkJGfDdl4HeDRF4BAWBkR5anE56gdJ3uQROsJWbQXMKPIZD+FLNwUnAchVCuT/et7TTIJBXWWWVWCKluoV+mU5OqvEgX3Y8VB9worQeTlYS+vTLg5oJynTEUG/c5WkDzbzAZzkpygOwqXrh6o7Ub3l5MMzyA5GpgmB6E64eIeSYJqoX6EYJnZOFVF0wHk4sgqtFaCZMCTWCkp1vUju95elIaE7zyXJi2pkHdorDhw+P7VH+bPk92wDbAjt7MD9HHnlknA7mgeGlK3hox8OjUzf6ZR5SFRPDLE8f01V++DXonuaJk+0sn+aOCNT1vGyxG6M0RumT0uC8HCbXQxAQQuU603mVpofgLgcBKN22djoJBIaVrg6ZX2l6ynX4c8NyoKqGYEtBDaafZZPClmZKz+WAJvgPOuig+LnUHztHrsyZ31L6/KwXdjgs5/I6YBgs1/I8JKlbvfU2L1jejLst25A6loGuXoeqBy61JKDLoT43BBpHIHwmnXjkqIOqE45YpK5moKtXIoCpgiCcqe5oTQmbHQDVV+X7u7BzoJqDsJe6mnXo6pW4coVgpu69tWFM1c7UqVNjPTJVMpwk5IRqS/eNkTqTJXRpHlBK50odTuZSJ00pn1BvS9201F4MdEnKhFUukpQJA12SMmGgS1ImDHRJyoSBLkmZMNAlKRMGuiRlwkCXpEwY6JKUCQNdkjJhoEtSJgx0ScqEgS5JmTDQJSkTBrokZcJAl6RMGOiSlAkDXZIyYaBLUiYMdEnKhIEuSZkw0CUpEwa6JGXCQJekTBjokpQJA12SMmGgS1ImDHRJyoSBLkmZMNAlKRMGuiRlwkCXpEz0qVQV79WNffrPWeG+KdPCpL/8PUx5Znp44dUPwlvvfBw+/Ghm+NxVqHawQJ8+YcAi/cLQwQuHkcstGtZZZVAY/5Wlwrh1hoT+X+hb9KXuzEDv5iY/NT2cP/HZcN2dr4T3Z3xWtJU6z2IDFwzbb7p8OHC3lcOY1QYVbdUdGejd1KPP/m84/ueTwx0PvVm0kbreZmOXDj8+bExYe+UvFW3UnRjo3cyMjz4LPzrv0XDOb54p2kjdz6F7rhJOOmjtMHCRBYs26g4M9G7khVf/EXb84Z3huZf/UbSRuq8Vh38xXPuLTcPI5b5YtFFXM9C7iYeffKca5neE6e99WrSRur9Bi/evhvpm4aurDy7aqCsZ6N0AYb71QbeFDz70pKd6nkUHLBhuPO8bhno3YKB3MapZNtrnJkvm6tEoqd9z6VZWv3Qxf1jUhTgBSp25Ya6ejm2YbZltWl3HQO9CXM3iCVDlgm2ZbVpdxyqXLsJ15ut/54aiScrHg7/d1uvUu4gl9C7Cj4akHLltdx0DvQvwc35/AapcsW2zjavzGehdgHuzSDlzG+8aBnon466J3GhLyhnbONu6OpeB3sm4Ba53TVTu2MbZ1tW5vMqlk3FZ12kXPF40dRzuX33od1YJO22+fBgyaOHw/gf/DLfe/0Y485Inm1z3Tn9H7L1qtb/h8cchzfWX7L3dyPiqZ49/+1P8TL++fcIeW3857LvjimH4MgPCp5/OCvc9+vfwk4ueiPdxr2fNlZYIZx711aKpweSnp4dTf/VY+PDjmbGZXyMy7LLafkA/B+6+cthtixFh2JBF4j3j75n8Vjjz4ifDy29+WPQVwm5bjggH7LJS0TTbY399Nxx95sON83pU9f3j1XYsxwmnjW9cPmUsu8t/unHR1NTex00K06Z/XDQ1OKM6r2tV5zmZUZ3Gc3/7TLjzz03PrQwZtFB1nBuFLf7l1qJNU4st+oVw0LdGx3nhRllcBz7xlpfCeVdOjesSF5+6YRi21CLxfRnzwLx0lOMOWDPewEudxxJ6J+PhFB0t/Wrv1B9+JYxZdXCYNatSDdaB4YjvrhYmX7l9YygSFvdftnU4+eB1wlqjvxT7G73CYo39rTRizl/9ESAMi18EbrTu0PCVVQfFZl79+i4Qh/0/1QC64Efjwrh1lgoL9lsgDBm8cPju9qPCQ5dvG7bbZLliSE0tXh1ueXjrrbFknI5bL9iycXo3Hbt02KA6zDQ++qWf68/dPHbHgIX7hVt+vWXcOYxdc8nQp/pHvwfsOjo8dMV2YYO1lyr6DGH0iMXiOFcbtXjjMHkNri4/8J7uTBsW6t83NrOMahGmdGO6y8PiVQ9hTv90Z3hbb7RsuPH8b8yxfA7fe7XY30ZjhhRtZiOkWc+svzRNrBea77zom7EZzHMaV/nV0Q+t6IxtXU0Z6J2suRJqezrn39ePAX1/tVS82g7XhNHb/j4M3fiKWNI84qd/DjOrwQ1Cd7VRS4Tr7341DP/GlbG/YZteGS646q/xqTUTf/b1xjBNKEXS36b73xybr7njldjMi1Losd9bM+xcLe1Tcv7KbtdVhzsxDvPQ/3wwBiKlRXYkzUnDG1Kd3hsnvVbdIQ0KW2wwrOgawuvTPmocH8O986E3Y8inwCPI2ZGkeR+51VVxWJTiCebfVkvR7JTKjj1rcuMwee13wr1Fl3n35yfebjIsXrWl8zK6s4w2/T8Ny/O46vJLmM79dloxvj+8uuOqxY6TnRLrb+Q3r4rDSvPK8q5VniZefK4jdca2rqYM9E7GY+M6Eo8OI1Dfee+TsNNhdzZ+qQhxwvia21+OzVRxEJSPTf3fsMfRd1dD55PYnsN0woAwpdS31fhlY/vWoMR3+N6rhveqw9j5sDvC0y+8F9tzcoydxAm/+EssyR60+8qxfUv4zK33vx7fc8RRD/2w4wDhR39UkUyrLuPtDr69cd7pj5A773fPxh1Vc1VGXYkdEMutPK9UB7ETYn62rq4H1llCqZsdF/cC2uvYexrXX5pXhtfVOnpb15wM9E5GfW5HSlUKt93/RmMdaj2UfHHJtc81ltjLCGBQhdBao0d8MQY2QZwCpmzC9S/E/+Vqj1qU3iltU/991L6rx3YptMEzL1Pd9iHfWaW6cxgdg/CeydPiPPXrt0D47Y1/a1Knnsyep6Z3BaSa44Tvr9X4aktVBMtr6g07N7723XFU0aU+5vXr6y1dPaoaG8M7zWs6B/LyGzPC3sfdE9vRnKR5uO6uV2OIt0Z5us478WtF247T0du65mSgZ4qTbGVPXbtj45eZk3tUf2DmzPrnxDmRidRfa6R+qYuv55NimC3hqIF68wmnbxSWHTIglupTSR+DF18oVhXxonqFk7A7V49E2HmlIG4u4FL7hWoCe/uvL98k0CnFt5cF+7b8FWNebzr/G7GOn9I2J2Pxna1XiOcezqkeVbGzoiqHE82puiot6/K8sl7Lod3ckQ3Y8Sk/rtVORgmzI0196f34f4sNlmlS//363z+KQcbJMMLgqecbQrK5KpWtNmqot376+Xfj/9ZgmDNnfR5L4PVKudt/veGEX0t1q1QBUWVwxE8einXwtVeTpDr0k/9rSmy+8pYXG6sXUvA3O09F+/IOAlz9ssUBt8QXddmUiudXbR36BVc3HBU0h3llXvY4+k/V+b0+ricctV/D0Qk4Gpn64vsxhFP7x6c2rJfyvLLsmfZ04rr28XDl6TrgpPuKth2no7d1zclA72TtWfqr589PvBNDkS/0r08e1xisXPZ26wOzL1EjBJ964d14dQVVG+Xw36saIAd9a+VYlfH7O1r/IyiqOS6/8W9x3Jz85IqThCqCM45suCyRuuzmcHlgQ3331DmCFym0zvqfp2Pd8qHfWbWx1MqOgpOknBA+69/Wa7JT+UZ1B3fyD9aORwmp6idhJ0gpmFdn1z0zr6df+ES45o6XG0vbVAGl+4pzFMLRyN7bN1Td7L3dqBjY/LyeEn2aV9YfRyus58er67876OhtXXMy0DsZJy072nePuyeG3Xe2+XJ44aZdwq2/3iLcd9k2YY+tVij6aDhJut/x98bQ5vLGZ6uH6Fzn/djVO4QLqwESqvnOcFqqh6/nqDMfiQHJiVkO+xkm477n0q3D4CUWCsee9UgM7bYi/M6olt452jj10K8UbUMseb4+7cNw0LdXbhz/5Cu3i5c20i8l/7ZefbHB2ktWd5YbNL7KpeSVRizWpBuvlqo+6qEUzo5rt3+9q/HIgRdHEtSz77fjqDj/XI3DdefM6/M37RrXM5eGcoliPbXT1dK5jPbQGdu6mjLQO9k6qzScjOxIU1/iKUg3xtJyuj6aE4YvvPZBPLxPVx8QrOP2+mP4/e0vx7pprvMeufyisZTLU5Ra+tHJzJmfN/mfsAPgs9T9EqAMk3HHq2n+7e5w9oSniz6bSidmW6pnp1v5BC4nOQlv6pbTD2eostigOk8Trn++Ou/94vi5NJOS9/aH3BEuvvb52B/SuOqdFAah2vC/oXuaV0rPXFefXmuNXqKxG6XScjdetXX2YJhp+GWrjlw8jF1jyfjjIC4rTEcOvE678PF49VI6OcrRGOvvurteiUHPeqbEzg6VS1RZNkjTXztdHEl1pM7Y1tWUvxTtZHc+9EbY+qDbi6bOwReXknhLpW2qJwijd979pO4VIvOrNePuKFRDDBsyoMvG35nSvLb3+muLG8/bvLpDXaZoUmcw0DsZh8rLb36l93NR1hYbuGB45fZv1T05ro5jlUsnYwPfftPliyYpT2zjhnnnM9C7wIG7zf2XklJP5jbeNQz0LjBmtUFhs7FLF01SXti22cbV+Qz0LvLjw8YU76S8uG13HQO9i/BU9EP3nH1vDikHbNM+8b/reJVLF+JHIV/b84/huZf/UbSReq4Vh38xPPCbbea45YA6jyX0LsSGf+0vNp3nXxJK3Q3bMNuyYd61DPQuxq8Or/3FZmHRAX4R1DOx7bINp/vPqOsY6N3AV1cfHO85YkldPQ3bLNsu27C6nnXo3Qh3z9vxh3dap64egTpzqlksmXcfltC7Eb4YnFTy6hd1d2yjbKuGefdiCb2bevTZ/w3H/3xyvO+11F3woyGuM/fSxO7JQO/mJj81PZw/8dlw3Z2veEMvdQlutMW9Wfg5v78A7d4M9B6CuzTeN2VamPSXv4cpz0yPD2ngvuY8iPdzV6HawQJ9+sTHxnEbZR5Owf3Mx39lqTBunSHeaKuHMNAlKROeFJWkTBjokpQJA12SMmGgS1ImDHRJyoSBLkmZMNAlKRMGuiRlwkCXpEwY6JKUCQNdkjJhoEtSJgx0ScqEgS5JmTDQJSkTBrokZcJAl6RMGOiSlAkDXZIyYaBLUiYMdEnKhIEuSZkw0CUpEwa6JGXCQJekTBjokpQJA12SMmGgS1ImDHRJyoSBLkmZMNAlKRMGuiRlwkCXpEwY6JKUCQNdkjJhoEtSJgx0ScqEgS5JmTDQJSkTBrokZcJAl6RMGOiSlAkDXZIyYaBLUiYMdEnKhIEuSZkw0CUpEwa6JGXCQJekTBjokpQJA12SMmGgS1ImDHRJyoSBLkmZMNAlKRMGuiRlwkCXpEwY6JKUCQNdkjJhoEtSJgx0ScqEgS5JmTDQJSkTBrokZcJAl6RMGOiSlAkDXZIyYaBLUiYMdEnKhIEuSZkw0CUpEwa6JGXCQJekTBjokpQJA12SMmGgS1ImDHRJyoSBLkmZMNAlKRMGuiRlwkCXpEwY6JKUCQNdkjJhoEtSJgx0ScqEgS5JmTDQJSkTBrokZcJAl6RMGOiSlAkDXZIyYaBLUiYMdEnKhIEuSZkw0CUpEwa6JGXCQJekTBjokpQJA12SMmGgS1ImDHRJyoSBLkmZMNAlKRMGuiRlwkCXpEwY6JKUCQNdkjJhoEtSJgx0ScqEgS5JmTDQJSkTBrokZcJAl6RMGOiSlAkDXZIyYaBLUiYMdEnKhIEuSZkw0CUpEwa6JGXCQJekTBjokpQJA12SMmGgS1ImDHRJyoSBLkmZMNAlKRMGuiRlwkCXpEwY6JKUCQNdkjJhoEtSJgx0ScqEgS5JmTDQJSkTBrokZcJAl6RMGOiSlAkDXZIyYaBLUiYMdEnKhIEuSZkw0CUpEwa6JGXCQJekTBjokpQJA12SMmGgS1ImDHRJyoSBLkmZMNAlKRMGuiRlwkCXpEwY6JKUCQNdkjJhoEtSJgx0ScqEgS5JmTDQJSkTBrokZcJAl6RMGOiSlAkDXZIyYaBLUiYMdEnKhIEuSZkw0CUpEwa6JGXCQJekTBjokpQJA12SMmGgS1ImDHRJyoSBLkmZMNAlKRMGuiRlwkCXpEwY6JKUCQNdkjJhoEtSJgx0ScqEgS5JmTDQJSkTBrokZcJAl6RMGOiSlAkDXZIyYaBLUiYMdEnKhIEuSZkw0CUpEwa6JGXCQJekTBjokpQJA12SMmGgS1ImDHRJyoSBLkmZMNAlKRMGuiRlwkCXpEwY6JKUCQNdkjJhoEtSJgx0ScqEgS5JmTDQJSkTBrokZcJAl6RMGOiSlAkDXZIyYaBLUiYMdEnKhIEuSZkw0CUpEwa6JGXCQJekTBjokpQJA12SMmGgS1ImDHRJyoSBLkmZMNAlKRMGuiRlwkCXpEwY6JKUCQNdkjJhoEtSJgx0ScqEgS5JmTDQJSkTBrokZcJAl6RMGOiSlAkDXZIyYaBLUiYMdEnKhIEuSZkw0CUpEwa6JGXCQJekTBjokpQJA12SMmGgS1ImDHRJyoSBLkmZMNAlKRMGuiRlwkCXpEwY6JKUCQNdkjJhoEtSJgx0ScqEgS5JmTDQJSkTBrokZcJAl6RMGOiSlAkDXZIyYaBLUiYMdEnKhIEuSZkw0CUpEwa6JGXCQJekTBjokpQJA12SMmGgS1ImDHRJyoSBLkmZMNAlKRMGuiRlwkCXpEwY6JKUCQNdkrIQwv8H0uBQbjzpYdEAAAAASUVORK5CYII=;imageBorder=#33FF33;fillColor=#d5e8d4;strokeColor=#82b366;" parent="WIyWlLk6GJQsqaUBKTNV-1" vertex="1">
          <mxGeometry x="400" y="950" width="160" height="280" as="geometry" />
        </mxCell>
        <mxCell id="KWgbuxi52lWq2ZlGSnJL-60" style="edgeStyle=orthogonalEdgeStyle;rounded=0;orthogonalLoop=1;jettySize=auto;html=1;fillColor=#d5e8d4;strokeColor=#82b366;" parent="WIyWlLk6GJQsqaUBKTNV-1" source="KWgbuxi52lWq2ZlGSnJL-54" target="KWgbuxi52lWq2ZlGSnJL-64" edge="1">
          <mxGeometry relative="1" as="geometry">
            <mxPoint x="240" y="1310" as="targetPoint" />
          </mxGeometry>
        </mxCell>
        <mxCell id="KWgbuxi52lWq2ZlGSnJL-54" value="" style="shape=image;verticalLabelPosition=bottom;labelBackgroundColor=default;verticalAlign=top;aspect=fixed;imageAspect=0;image=data:image/png,iVBORw0KGgoAAAANSUhEUgAAAXQAAAJMCAYAAADqol0OAAAAAXNSR0IArs4c6QAAAARnQU1BAACxjwv8YQUAAAAJcEhZcwAADsMAAA7DAcdvqGQAAEVjSURBVHhe7d0LvE1l4v/x57iEEEJHKZeIqEiUIqkoqUSl0c3QlEmjBpOZ9KMf/TJDU/On0QwTTRpNNxWlFF00nUomcqsQDaIQBlGUy/7v73PWs62z7XMczjn77P2cz/u89uvsddnrttf+rmc965YRiTIAgLRXKvgPAEhzBDoAeIJABwBPEOgA4AkCHQA8QaADgCcIdADwBIEOAJ4g0AHAEwQ6gGI3b948c/PNN5v69eubjIwMU61aNdO9e3fzxhtvBH0gPwh0AMVm79695s477zRXXnmladWqlcnKyjK6G8mqVatMt27dzIABA2zQqz+faAM2fPhw8/777wdtCgf3cgFQbHr37m3WrVtnpk2bZipVqhS0PWD37t020MuXL2+eeuqpoG36q1Wrlhk8eLDp2LGjOf3004O2BZfUEvrcJZvMBb1mRLe2+4M2AEoqVae8++67uYa5KMifffZZs3DhQvPqq68GbdPbsmXLTI0aNezeR2GGuSSthL5tx0+m8ZUvme3R/zMfu9S0b1Ur6AKgJFKVikqoqnI5FIX+pEmT7P9UNGbMGLNo0aKgKW8bNmwwFStWNC+88ELQpvAUaaC/MvsrM+rxJebDp64wE15Ybu76w1zb/s4bm5iHB51t3wMomVTtoBL6qaeeGrTJnape1P+2bduCNqlFexIKdf0/FG2UzjzzTFuHXtiKLNC/XPudaX7Ny2bvvoiZ/3wXMyNrnblv7ALbrfZxR5sv3+hu3wMomXQ2y6ZNm2z1Q34o0FW6TUUXXnihDWj9PxSdvXP99dfb/4WtyOrQn5+52oa5TH93rWnZ9MCX9vW3P5gPFnwbNAEoiWrXrm02b94cNOVNJfSdO3cGTalHQa69jfxQHXp+9kqORJEF+sbNu4J3xrz01hpzQctMU71quaCNMVPfXhO8A1ASKQTze6BTYXn++ecHTaknv4Gu0y9Xr15d6AdDnSIL9DYtjgveGbP4i61mzfqdpsuFJwVtjK2CCdOZL2o39uml5p2564O2AHzVt29f8/DDDx+yXlwhqOoM9Z+qzj33XFvy/vTTT4M2iamfhg0bBk2Fr8jq0Hf+sMfUvvg58+NP2acoDv/VmeacM2qay+940zbL3GeuNM0bH2sWLf+vuWXo++bzLw98sRefc7x55dEOpkyZpJ5ZCSCJdIaLTknUKYyJTl1UmP/sZz8zW7duNbNnzw7apiadtaL5qVChQtDmYKo6at++vT0VsygUWVpWOrqsubRN7aDJmJkffmOrXSpWKBO0MWbqW2vMuOeWmQt6vZ4jzFU107dHY8Ic8JzODNEZH2eccYa9cMjVkyv4dDaIrh798ccfzYIFC4rkNL/CpIOcukhKG57cXtdee62d36JyxCX0O/5vjtm7L+8LhD6LhvQnn2+x708+sbL5/JWroyXxLPPMjFW2XZnSGbEDp067aOg/MeJ8c2JmxaANAN/pEvhHH33U/t+4caOpXr26DfPbbrvNnq+u9ro9wMSJE4vk7JBk0bzo6lj9LwpHHOid+84ys/+d/1OIbru2kXl0yLnmX/M2mE6/nBW0PaB0NNyH3t7cDOx5mnli2gpbcv/P2h22VP/Ar1ualk2rB30CKInSIdS1h+H2KuKp+qhKlSrmo48+yvXK2II64kBXvfelfWaa7Tv3BG1yp/POP3jqClOrRnbd0th/LjWDx8wz+4LSuUrvE+5vY+qdUMn0vDfLfLgw5ymN13eubyb9vl3QBKCkSpeSuurIu3TpYq8IFYX5iy++aHr06GGbi0qBDoqu+WanLUkvX/2d+f6Hg4O9SuWjTLNG1cxdNzU1VaPvw9Zt/N68N2+jqVGtXLQUXsvM+vBr02f4h/bWAE65o0qZUQNbmTt6FM05mwDSj0J90KBBtqSbirZv326aNWtmnnvuOXv2i+jsFt3mQHdZ1AVSRaXAgZ4blcrzc1Bz94/7zG8f/thMePGLoE22pg2q2rp0nQUDADi0AgX6Wde9kuPslLByR5U2A3/e1Az9ZfNcg33z1t3m0l/OOmgYqm8fNbClPVMGAJA/BTovsE/3RsG7g/340z4zauIS8/Ck3E+0Hzr2kxxhXqVSWfP0H9vbg6eEOQAcngKV0OWB8YvMqMcXxw5wxtM55V+/k/hAQOYFz8QOqp53Zk0zaUQ7U/eEojn6CwC+K3Cgi64KDR8Y1aX7um2us/uTnwfvcqp90XNmy/bs03t08PSZh9qbBicdY5sBpD9dCq8zPnShkO7FojNUypQ5cHFhYdA4dNGRDpQW1emAh/LWW2/Zl+ZTB0J1Bk5hz2d+FEqgxwtfPNSo3jFm8UuJT6K/8/cfmYmhg6G6inTMPeeYnlcV3b0OACSHzkJp166dvUhI9wlfs2aNGTZsWKHfB1wPvrjlllvsc0jr1asXtE0OnXeu8J45c6YpV66cnU+d5dKyZUs7/8kO9UK/tl432Xpl9tqgyZirO9S1/1Vq13nremrRDb9913y2cqs98Hle8wM38fp+11576uKIv+XvyR8AUpcu3df51ytXrrR3GJw6dWq+nk6UTrRXoDDXhko3GdNrypQp9nmh+Q1z7WGMGjUqaCqYQg/09+ZvtMHsXNOxrn1ykW7KpW461XHq21+Z1je8ap6YusK8OeFSM6Bn06DvbKMmLjYbQrffBZB+3D2/FW4KOl3unt+HWaQDzdPjjz9uOnXqZPc63NOKVGI/nIueVF107733Bk0FU+iB/vzM7KoWqXN8RXse+b1j5gdtDtA9XH77p3nmmgHvmEG9Tzcvj+1gMqtnLxB1y+10SADpQU/rv+mmm8xf/vIXU79+fRt6KrGLqklq1qxpX7pBl4wfP95Uq1bNlC1bNlaSVzfdNvf444+3IemqONRPkyZN7AU7TufOnW17dXfjKUoqWWs87uKhRHTfFt19sXLlyvbmY6KnFWme1F4l80ceecS21zIq6MVShRroqm7R04mcqy6sY+Z/vtl8uXZH0Cb7Mn7dt8WZ9eE3puXPXjFly5Qyc5/pYi457wTbXleZAkhfqnJQiM2ZM8fWKd9///22ikLVL3369DG33nqrufvuu83AgQNtMOug6RNPPGHbaSOg8FYpWOH/wAMPmBEjRtgn5etBEuPGjTMdOnQIxpStbdu2ZuTIkfYSexeeRcntbeT11CUF+uTJk+20ug2XHqOnA6iaV918TLfTFVXbFPgYgA6KFpa3P/omUq7Fk7HX+59sjAx79JNY8wkXPRvZs2df5KNF30YaXf5Cjn71+uPfl9jhPPnyCvsfQHrbsWOH/b9nz55IZmZmpG7dupFokOlEjEg0yGKvrKysSL9+/Ww/jRs3tt1XrVoViYac/YzToEGDSK9evYKmbG546l9q165tP5cMmp5KlSpFli5dGrTJnudNmzZFdu3aFYluyOz8uHkXzW94HjSthRXFhVpCV125o0v327Y4zjw/a3XQxphL25wQ3WqXMq2b1TRzn+1iul+ac2t039hPzHvzNpifc5YLkPZUhXLKKafYagWVTrds2WLr1V0VhR7bpvp1lbpVOldJfOjQofaVG/Wng5A64KrSfqJH2CXzzBJNc3RjZVq0aGFL45oX3dtd86YHd8yfP9/Wket0zdxUrVrV/tcNx3Q/9QIJgr1QnNxpii1p6//CZVvsK1wCf+1fa4M+D3j8pS8ix7b5Z6yffiPmBF0ApLMVK1ZEOnXqFClXrpwtgXbo0CGyfv16223cuHGRihUrRkqXLh0rrd599922P5Vq9VK/o0ePjrRt29Z2F7XTMNWfSrxz5syJTJkyxb53w1b/+lyyfPzxx3aaNC+artatW0fefPNNW0LXtKhd165dbclcevToYefVWbJkiV0WemleCqLQzkPXxUUTXvjC1M482lze7kR76f7wvyyIXWB00Tm1zOvjL7Xv4y1ftd30vPc9++zR3t0amvH/2yboAgDIryK5sMjpPSTLnq2igB90y+l53p9Fd13UvV3OalLd3HjFyUFbAEB+FWmgAwCSp9DPQwcAFA8CHQA8QaADgCcIdADwBIEOAJ4g0AHAEwQ6AHiCQAcATxDoAOAJAh0APEGgA4AnCHQA8ETGd999x825AMAD3G0RADxBlQsAeIJABwBPEOgA4AkCHQA8QaADgCcIdADwBIEOAJ4g0AHAEwQ6AHiCQAcATxDoAOAJAh0APEGgA4AnCHQA8ASBDgCeINABwBMEOgB4gkAHAE8Q6ADgCQIdADxRqA+J3rw5YnbuMKZe/YygTe727jXm0yURs29f0CLqxJMyTGZm0FAAP/6YPezjTzDmhBMOPS0A4INCC3SF+e23RcyOaKA//kSGOalO3kH6zTcR0+Xyg0fdqLExI0dl5GujkJsZr0bMfUOjw7/KmOH/x04IgJKhUNLOhfnq1SplG1O9Rv7D+KijjGnZKvtVtaoxXyw3pv+vI7YEf6TCpX4AKCkKHOjhMG9+pjGP/rWUOfrooGM+VK9uzGMTS9nXpH9kbwjWrdWr0GqCAKBEKFCgFzTM41UIPqtSe/Ua2e8BAPlzxIFeWGGuOve/jY/Y16/6ZpfKB/wmw1SunF1aX7ggYib9Pbv7c89GzA8/2NYxWe9ld5v8ZMRs25q4VK/PTH8lYma8RqkfgL+O+KDo3QP3m3dnZ5emp88oZWocZok6t4Oi9eoZM+bPBw6q9uq533y6xL612l9ozP8bk70duvee/WbWTPvWUvXN8y9kREPemOHDsg+K/m5wKXPXr/abhQujG4qBGaZnryM/2AoAqeyIS+j3Dsmw4fvTT8bcM2j/QSXn/FII/21ihn31vsXYEv/NN0XMxo3ZYT/8/zLMjJkZ5sO5pUzd6Pjez7KtzVtvRmyYaxr+Oj7DDP3fDNPt6gxTtdqBwNY0uTC/4UbCHIDfjjjQa9TIDmEFqgJTwXkkoa4SfqtWGfZ1V/9StvpG57K//Wb2uerP/DNiru0WMW1a7zfrvzlwBsucD7MD/45+Gab1uRnm6msyzK/uzBnYb7+VPW2NGhkz6HeEOQC/FeigaGGFuqNS+ZpoCV0U3Koff/EFY6tOps/IHo9TqXL2/7Vrs/+LqnHCLrwouwT/xRfG1rEDgM8KFOhS0FD/9ltjrrx8v32pTn3btuzz0TtfcaA0rmodnZ+ufh1Vr5Qubcy4v0TMvYP3m1tv2W+6dYmYzz87ENyVo6E/9q8ZtlpnzOjsg6oA4KsCB7qEQ10l5i2bDx2cCmNRaKsqRS+1O69Ndp26htnuggxbBTNtqg6ARsz57Q58rn79DHvwVGE96w1jliyObhiiJflGjTNipz+qX136r/4qVDDmTw9FzNyPCHUAfir0e7noNESFbWFSVYxOiXSnMsZTVcvR0cAOHxAFgJKmUAMdAFB8CqXKBQBQ/Ah0APAEgQ4AniDQAcATBDoAeIJABwBPEOgA4AkCHQA8QaADgCcIdADwBIEOAJ4g0AHAEwQ6AHiCQAcATxDoAOAJAh0APEGgA4AnCHQA8ASBDgCeINABwBMEOgB4gkAHAE8Q6ADgCQIdADxBoAOAJwh0APAEgQ4AniDQAcATBDoAeIJABwBPEOgA4AkCHQA8QaADgCcIdADwBIEOAJ4g0AHAEwQ6AHiCQAcATxDoAOAJAh0APEGgA4AnCHQA8ASBDgCeINABwBMEOgB4gkAHAE8Q6ADgCQIdADxBoAOAJwh0APAEgQ4AniDQAcATGZGo4D2Q9pZuWGE+/M+/zeKvPzert6w1m3ZuMT/8tMscfVQFU7NSdVOv+kmmWe2mps3J55gmtU4JPgX4gUBH2tuzb695efEb5pl5L5mVm1YFbQ+tYc365oZW15iuzS4zZUuXCdoC6YtAR1qb/9ViM/y1h8xXW9cFbQ5fnWonmuFX/Na0rNMsaAOkJwIdaWt81pNmXNakoKng7mjX2/Rt1ytoAtIPgY609IeZY8xz818OmgpPj5Zdzf90GhA0AemFs1yQdh5+669FEuai4Wr4QDoi0JFWpiyYbib/e0rQVDQ0fI0HSDcEOtLGhu++NWPe+VvQVDiOq1zDXHFaR1O5XKWgTTaNR+MD0gmBjrTxyOzHzM4fvw+aCi6zck3zzC1/M3/oOsQ82O2+oG02jUfjA9IJgY60sHbrN+b1z94JmgruqNJHmdHdHzA1Kh1rm93/MI1P4wXSBYGOtDBt0esmEv0rLPd2+rU57fjG9v2+/fvMyJl/tu/DND6NF0gXBDrSwjvLs4J3BXd188vN1WdeHjQZ88c3HzUL1i0JmnIqzPECRY1AR8rbvPO/5j9b1gRNBdO0ViMztPNvTEb0T3TLgGfnT7PvE9F4NX4gHRDoSHlffPtl8K5gqlc81ozpPsKUKVXaNi/fuNKMeH20fZ+Xwho/UNQIdKS8r7dtCN4dudLREP9jt/tM5jE1bfPWH7abAS/cZ37a95NtzkthjB9IBgIdKW/bru3BuyP3m4v7mlZ1z7TvdRD0nmkPmG+25y+oC2P8QDIQ6EhrfdrebF687e+m46ntgzYH04VDN5/TPWgy9oZec1fPD5oAfxDoSHlVK1QJ3uWk9ne2v9U0PK6++cNV/2MaZzYIuhygdjoI6ry57F9mwgdPBU35k9v4gVRDoCPl1a5aK3iXk6pC9GQiOapMWfPAlYPtBUOOLud/+Jr77dOKdE75qi1fmfumPxh0zb/cxg+kGgIdKa/RcQeXvJ37Xn3QPmJOpyE2zmxo+l/Ux7bXQVBdzl+nWm3bvOun3fYg6K49u2zz4chr/EAqIdCR8nRZ/snV6wZNOa2OlrrD91xRXXnremfZuvU2Dc4O2hp7EFT9Hi6NN9FtAYBURKAjLVzcuF3w7mC6MOi9lXOCJhMtmf+vffqQSu2qapnwweQc3Q9HXuMFUg2BjrTQrXlnG9C5Ud24zi2XakcfOIj54X8+NuOyngyaDo/Gp/EC6YJAR1o4qdoJpvNpFwdNB9MB0oEv3mfr0x1dCXrP1AfseedHQuPTeIF0wTNFkTb0wIlrJ/wiz3ui68yWtg3OMTt27zQfrZ5/xGFeqVxF82Kfv5taxxwXtAFSH4GOtKJHw414/f8FTUVH565f16JL0ASkB6pckFYUsj3PuS5oKhoaPmGOdESgI+0M6vgr06Nl16CpcGm4Gj6QjqhyQdoan/WkvS9LYdGpjn3b9QqagPRDoCOtzf9qsRn+2kPmq63rgjaHr061E83wK35rWtZpFrQB0hOBjrS3Z99e++ShZ+a9ZFZuWhW0PbSGNeubG1pdY7o2u8yULV0maAukLwIdXlm6YYX58D//tjftWr1lrdm0c4s9N1036KpZqbqpV/0k06x2U9Pm5HNMk1qnBJ8C/ECgA4AnOMsFADxBoAOAJwh0APAEgQ4AniDQAcATBDoAeIJABwBPEOgA4AkCHQA8QaADgCcIdADwBIEOAJ4g0AHAEwQ6AHiCQAcATxDoAOAJAh0APEGgA4AnCHQA8ASBDgCeINABwBMEOorNunXrzMKFC83mzZuDNgAKgkBH0k2cONGcdNJJ9tWiRQtTs2ZN+3/SpElBHwCOREYkKngPFLkxY8aYgQMHBk0HGz16tBkwYEDQBOBwEOhImr1799rS+LZt20zdunVtifzEE0807777rhk1apRtv2zZMlOjRo3gEwAOB4GOpFm9erWpX7++fX/PPffYEHcU9qpTr1evXtAGwOGiDh1JU7VqVVO6dGn7ftq0aTkOhpYpU4YwBwqIQEfSKNC7d+9u3y9fvtycccYZtk59586dtl1BaQOhKhtV3eRG3VeuXBk0HWzDhg3m008/Nbt37w7a5KTPqnuiadb41Y2zdlBsVOUCJMuOHTsibdu2VTVf7BUN+sgDDzwQ2bNnT9BXJDJ58mTbrVKlSkGbbOXLl7ftp0yZErSJRNauXRvp2rVrbHjqp1+/fjmG98QTT0Rq1aoV66dhw4aROXPmBF0jkaVLl0bat2+fYxiaJkfd9Zlw9yFDhthuu3btyjF+vTQsINkIdCSdgnb06NGRzMzMHCGooFfgiwLYtQ9z7dRdtm7dGqlbt26sffjlQn/s2LEJuzdu3Nh21zBq165t22lYV1xxRaR06dK2+aGHHrL9uMBWf5rOihUrRoYNG2a7jRs3znZTOwW55qtly5a2G5BMBDqKjYJdwVy9enUbiHr179/fdstvoKuUrOZy5cpFpk6datvpvys9awOhUr766dSpU2TTpk02wG+//XZb6paRI0fa7gpzlbbD7RTg0qFDB9us/+vXr7fDdXsA4X4//vhj207jAJKNQEexW7JkiQ1EvVS6lfwGuqu+uemmm2xzvNmzZ8c+s2LFiqBtTi6sc3uJqwLSq0yZMpFevXrZYBcNV6Vz1/3cc8/NUZ0DJAsHRZFUOqg4b968oCnb6aefbqJBbt8nOqCoUxrD/4tKNNhNdEOR4xUNctvt5ptvNtOnTzfNmze30/Hkk0+ajh072oOnDRs2tPPUtWtX2+9HH31k2rVrZw+QAslEoCOpFIxnn3226d27t72gSAE/ePBgs3HjRtv9/PPPt/9r1apl/4tuFaAQHTFiRNDmgAsvvND+f/HFF82rr75q37/xxhvmsssus2estGrVypQrV862v/POO+0GQ2fBaPyPPvqoba9glkWLFplo6dp203B10ZOmVzR+DUv3ntHVrPLZZ5/ZZilfvrw9FTO6t2FPwVT/agaSKiipA0VO9dfxB0LDL1VbuDpo1WW7A5WJXq7KRcPMrT93looOwCbqrvGpLjx8UFSvevXq2f+qWsnKyooNQ82qTonuUdjuOnCqM2wWLFhgm0899dRIdIMUG46bRiBZCHQkleqddUCySpUqseDTq3Xr1rEwdxSm4TNYdFaKQlJBGj5tcdWqVfaAp+tPB0jjT1ucMGFCjoOvGlZepy1qHD169LAbDFGgh6dZ711gazjh6dRn48cPJAOX/qPY6FYAqoPWvVvyun+LqmXycyWpqlP0UnWNLmKKp2oQjTOvYamaRlUyqm6pVKlS0Dab+7z+q95cwwnTrQt0wVGizwLJQKADgCc4KAoAniDQAcATBDoAeIJABwBPEOgA4AkCHQA8QaADgCcIdADwBIEOAJ4g0AHAEwQ6AHiCQAcATxDoAOAJAh0APEGgA4AnCHQA8ASBDgCeINABwBMEOgB4gkAHAE8Q6ADgCQIdADxBoAOAJwh0APAEgQ4AniDQAcATBDoAeMKrQN+7d695//337f9ENmzYYBYuXBg0FY1t27aZ1atXB0152717t1m2bFnQZMynn36a67QXh/jpi6flqVdxWLdundm8eXPQVPj0Heq79E1Rr/9h+V2fNU07d+4Mmg549913E7ZX/4f6bt56663Y7zD+N5nMZZB0EY9s2rQpUr169cgDDzwQtDlg165dkdNOOy3Sq1evoE3ReOKJJyLt27cPmg527bXXRsaNG2ffz549O0e/devWjWRlZdn399xzT6R///72fXHR9DVo0CBoOtitt94aGTZsWNCUXPoei3LcHTp0sN+lT1atWhVJ5k8+vD7npWXLlgm/y9q1ax/0Heh3XL58+cibb74ZtDnY1q1b7Xy635byIPy79yz2cvCqhF6jRg0zadIkc//995uPPvooaJtt0KBBtsT56KOPBm2Kx7nnnmtOPfXUoOlgrkRz5pln2ldxy6uElUp7E4XN53lLpvwsx8suu8yWxsP0+/3666/NtGnTgjbZ1F80t8z5558ftDlY1apVzeTJk2Ol+5L0XXpXh37llVeafv36meuvvz62W6aVYvz48eaFF14wlSpVsu2KizYsF154YdCUO01/7969gyYguVRloerLZFCgf/DBBzmqV1599VUTLbmbmTNn5mivQNfvJ1pKD9okpt95x44dg6aSw8uDoqNGjbJb6b59+9q61j59+piHH344JUq8QDp46qmnbKgng/ZaK1asmKOUrsLX0KFDTe3atW24O5omFdryog2AMmDw4MFBm5IjQ/UuwXuv6ICMVpRq1aqZ5s2b51gpdFBEzWXKlDHdu3c3DRs2tO1VJaPSvErHjkoptWrVsv3oAKAOruhg3Lx588zpp59uPx+mKp8xY8aY2267zfan6hX1o3GJVtp69erZl94PHz48tiKrnT6vEoimX9PTqlUr+1/Toe5a0dWslVrdHO1W6rPagDndunU7aCOm/jSPGr5o2jQfjls26k+lIO3ZhA8oqZvmXSWgN954w+76ah70I9JusmuvZaYNqqjZdbv55pttN9Hy0TTrsypNud1oDV/jie8/THsvWh6aP02zqtu0zF3JTctB86lxaDiaFv0XTYumSZ/Rd63/8fQdaPmqYKBlEZ4+59lnn7UHjfV5Taf6dcLrmL4HV82mZan51d6jwknTq8+eeOKJtns8Bau+Izdf8euF1h2NQ+tHounQ+DSd6lfL8Y477rBVFq6blpGmRZ/R8tMy0jAVphqepl3rvpv38PBUstZvzNFwNL1a5pofrRdqzs8eqeZRn9FvZ+XKlfZ71XAUyvqv4Wj4+j2vWLEi9pvN7besZey+b02HplvrmmRkZMSWgW+8PW1RIaWVYceOHbEvUrQyagXTD14/Rv0wXKAqsG+44Qb73pk4cWJs11P9X3LJJXZl18qlFS0RrZAKJfWjfvWjcMIBnhcFt6vv13RdffXV9sejYet13nnn2ZXZ0Ti00mvF1mc1jkRBpRVb3RUQCqp27drZ/6Ifhsah0NAPQssqTNVFClLNt6YhPH610zQqUMLLRvN/55132vFpuC1atLDTINooaRga14gRI2w7ddP3o8DQ8tbyz82f/vQnu+elz2tZadyOgkrTqKBSeGvaRd+LgkjzrO9V/eXGbRC0rijQtXFzNC6Fj+ZLwazlpvkWLV+NQ/Ogz6ub+871X8tcy1H9u2WufhPp2bNnjjOJ4teLzp07x+ZN0xueDi3bM844w86n5jf++1T/Wt5aT9TNfQcartvoqLv7LrXs9HtRd61n+v7cb0v9atxq1rxomYen+1C0vPQZ0bRoeWvZKqRffvllO0wt57p168ZCW+Ny36XGpWnTNIoL8xJHJXRf6Qi5jrQ7OkIe/YFHXn/99aBNxJ5x0rhxY/s+0VkAOjrujrTrrA+dKbNnzx7bnEj8WS464q4zb9xReXULDy/+LBe1Ex31d0fm3XStX7/eNkvXrl0jQ4YMse+XLFkSyczMjE1XtAQTia7Q9v2h6HMavmjexo4da9+LpsUtPw2zdOnSkaVLl9pmCZ9pomFoPqMbUNssa9eujVSpUiXHdN90002Ru+++277XWQwTJkyw7x3Niz7jpik3Gvftt98eNEXsdGkZhccvWiZa9m4567vXeDVteQl/TzJ9+nS77mh4c+bMsctF65PTtm3b2LLTMlU/zsiRI2Pj1zDD65D+h9ePeJqn8LJItF64YUmnTp1i34nOqOrXr599L67/RDR/4XUx/N06msf4ZaJlKQ899FCkdevWOaYlvD4fir4Pt45rPJMnTw66ZK8nGpe+b/edazz6PhYsWGCbRWez6HcRL7zMJLdl4ANvS+iJaOsdDSW7VXdU0lq+fHmOqoq8qDSj0kl+qYSoEmf8WTdHIlz1oF1SN80qQWl31U2X3quE5UpWYSq1qiSlz6saYMuWLUEXYz777LMcexNhWnba68nrDB2VisIlI83z999/b/cm6tevb1+vvfZarOSmEpY7SOxK+xqHSvT6P2DAgFhpM5Hw8nDT5eZZeyuqktG8hkvu+u5VsjzllFPsuLWc8kOfUb9a5irxark1adIkNl+LFi2y41aJduPGjXZPz3V75JFHcqxf4XVI/zWv+V3/Egmvj5pOt0ep7yy371O0x+GWkasey8vcuXPNfffdF5svVd+471J7X1q2h/PbCNM6G93Q2T0yrTeaD0fD1d6E9m5cey1nrRvaK3TT85e//CXP6yZKghIV6PohKWDCu7f6ESrkFbxFRSt9ouqPwqJdTQW1dse1+6kDQjpDINE4VQWiemMFqFZ+HXRyypUrl3AjIBpWbt1yo89ES58mWkqLvaIlqljVhXar9cNUoKgawv0Yteuv6VNI5Kf+NZ6CVwGlYFCoxVc1aPzRErQNCO3S54fCQ8tW1QBaV6J7dTnmK7pnYav43AZtypQpsW4aV0E26LlVxySi78hNg/7n9p2pvaZX06WXNoCHogOXo0ePjs1XVlZWbEOk5ZLXxjc/FNyqRtN3Hv49an197rnn7Lri1gc3j9GSe6EtZx+UqEBXKU4HSFUC1I9TP3y9149aK4hKfFpp3cqtMHj77bft+8Ohkq4rcapeUO/zKikVlAJL064g1HyohBYfYo7m2QW9AjNcQtcPR4GvZaMQCdcZu4Nirv7WlVTzoqBWiU0lcZUE9dI4XSlOdaKaXm2AGjRoYJeTxqugVT2pSmsq+R5uUGgYOvDlfvSu/lo0LH2v2kPRvIS7xdN0u3Er/Nq3b2+Xs0qJ2vjos5onlS41Xwo1LVv1p3lSv+quINIyPRJaX913qY226tzjuXVNYaa9AXe6q/ZM3DEG0fw4rp1bRvouwjQvWo56ueG74ekzmi8Nw5XQte48+eSTsY2yChc6j9zRdGsZ5kWBruUd/1tRiKuwofXJTa+WbevWrQttOfvC60DXlx+/C6hdN610Olpes2ZN290deNNKrBVWP4gKFSrYoNcPyg1D/+OHF0/d9RmtlMcff7xd0bWB0Eon4WmKH57euxU2/r02NGHh7gpeHaBzgagfpztwFE/VGNqIqbpA86kgddOgYegHoWWj6dXycOPQewWLfkBabtorUFWB+6z+u/eO+4zmX8PUSxsdV2rUctewNC0aj4JS3TR9qhLRD3jIkCEJ95407PjxaU9L7RSqvXr1srvh7ofu+tV7fScapwJE33cimh4FtT6v6dZGwG3otWz0XgGl6Vd3bRxcSGqeFXRqr3VAewsar2g63DJ1ErVztLw0jZUrV7bLXN9rfL+aD62vCr7+/fvHAlFVSvqO3DRqvdcek2i+tH5rOWt+wstItPf04IMP2vG6ZaTvXstE83TSSSfZflyAa9zDhg2zG0p1V7+qQnHTqmWiZZRX4KrQoPU8PtA1XZpHvcI0TI1f8xe/nMM0DeF508bBV96etngo+sHpS3al1TCVEvTSSl8QWrlcMBYlBaDqpt3uqLg9kfCK7Ch4NH/6cSai0rdCNFHI6Aep7vpsomHnRstCw4tf3gpwDdNt8ByNQ/0XpCpMw9Y0JhqGpkfTkmgew7SB1HASLSu3LDT8ROPQOqZ+clvO+aVp0LDil7nmQRutPXv22OnIbX7cBjTRuq7hav1MNP25LT+11zqU6Peh9UrTG/99qp1eicYTpmEnmk6NT9OS6LekeVe3+HGWRCU20H2iH7ZKNyqR6QejH45K2yrpqKQEP7lA5ycMh0D3gKpRFOLhOm/tqquON75uFP4g0BGvRB0U9ZUO9uriC4W3fuQ6TqBTuFRXDKDkoITuAdXTqmpFB+pUn6iAV6k9fP41/KP6Zm202QuDQ6ADgCeocgEATxDoAOAJAh0APEGglzC6RF0HUVOZpk+XiutsHV34gsKns6F0ERD8QqCXMLq8XmfCpCqdT6/Lx3XfeN17RJe6u0vui4umSZfdH+reNalM94HRvdHdBlLLVxtM+IVAR0pReOvybt07RYGjkmT8PTySTdOjK3HT+dJyXUGsm4Yd6lYHSG8EOlKK9h50QylH9/VIdG+PoqSbSMVX9ehWCrnd8CwdaBlqvvIT6CrNF/deEY4MgQ7E0d0F3V0ESyJVLeX16D+krtLDVZmGlKDbgeo+0iohNW3aNHZnPZUWdZ+WWbNm2XZ16tSx7XUHuvfee8/s37/fPPbYY/aKQe1ah6sGdOBLP84ZM2bY6gv184tf/CLhXe/cgw7Uj0rKzZo1C7ocTNOY2zhdN91L5phjjsnRTdUoKi3+/e9/t9Ok+mlX8tW943UwVOMuVaqUvR2we+nqV827qmJ++OEH8/zzz9t+NSz1u3jxYrucNF7106hRI/PTTz/F5j08HtG0aXlr+rWM3BOPVG+v4Wq6NR0avt676T766KNtf7pK869//etB34lomMcee6xdlq+88opd7trr0HQmEv6ONA/hPRSNV6VqjUvTrOHqpfl364q+JzdsNf/jH/+wy1IHwM866yzbTQean3766dh3quHqbok6XhGmDZmWy+eff27Hq2Y3PVqGWj6aJ02nlllu84TiwbeRIvSDdttW/VD1YxQXZgoF0T2s3U24FCrxD48+++yzY59VUKibgkU/xviHDsRzD3RQQOvOje6hvfHU3j2QVz9s3bZXYSP6r24KAgWiuoV33zW9ChH1p+nX/ChARMPS+LWh0vy61y233GK7iaoN9KBpha7600vzq4d36zJ4NWs+Nd8aj0qbGo/uPKn2jpah+tW86mn37kk3Gp/CT+PTe02P6FYKbrlqObuHL6u75iH88AbdGE03zdL41F3dcnu4g6ZN06rxq65e64Cmx3Hfr6ZF49fj/FSf7+6/rnFp2hwtSy13zZe+T3cvc7XTA6cPRdOradL64pa/aFzuQdluvFqmqX7GVImjS/9R/PQg2w4dOuR48LBcccUVkdGjRwdNkUhWVpZ9OK64h/5u2rTJNoseEqyH5Yr+68G/4Qf3qv9DPYBZ9CDn+IcEO/EPd9aDet3DmfXAbT1429FDmTW9br40/tmhBwfrAcqaRyf+gb4SnmZ1Cz8cWjS88AOqNS49aPqZZ56xzXLPPfckfICwlo0eXB1++HGihxuH2+nhy+5B16JpK1euXOwB2lrmmi9n6tSpkQYNGgRNOWm6br311qApYr9LDUsP5RbNe/iB0/p+w/OvadK8xtN86Tvq0aOHbY5/QLSWY3iew9Re8xCm+dHDm926pGWs7zr8MGcUP0roKUIlYlHJLnwbXJXQ9eQYtddLpSxXinJUFeCoVOpKsypB6zRFV3WTF5W09MQX7YarhK3SXSIqnaqUH77xl8ap3XONVw/cjn8os54kpGlxwg9GUHWMSnyHI9HZJhq/O+Cnkq72asKlRzW70rbaqzTv5tWdTZNfKpmH72TphhN+nmV4GlVl8eWXXwZNOekzulOm+361h7Vv377YdyjhYWk8Kj07Gvf27duDpuyDt3oQhkrx2isID6cgtEeleXbrkpaxSuhuzwypgUBPEQoj1b1GS7d2d9ZVv6h9tKQdexCuXuvXr88R4mH6obmAVBCEgz8vqsLQLr0CW+Grpx0l4kIz0XDVTeEd7qbw0YO5VQWQTFoOuVUHqHrLVSlog6kqk8OheYkPSm0s3LKJl9cGVcOKltBzfL/R0rkN5ETyGpaquXTXTf3XhiK3x+sdCa1v8fOs5mR/r8gbgZ4i9CNUwKjUo9K6u4hFzaov1Q9ZpTGFVH5LXfqsStoatri66kQUSApBjUcbhHBpM0wbiQ4dOtjAV3+aHm2AFJIKNIVjuJvqd/VsyfCBvuKmMHfhq/lWqMfTtOv7SLSstQeiDa7rpuDUcLQ3dLhU6n388cft5/X96jvQRvVIaL70ebcxc+vQ4dKycXsBbj1Qvb7use+WlQofOkbALZpTC4GeIvQj1u60DraplOUOoik4FIZul1wHyNyPSuGb18OjVd2hahRVieghugoehWuiUp6CWCVrjUPVEy7cE3EHWfXgYb10kNSFmYJdn3PdVOpX6d/R9IaHq2kNN+u9m34n/Jn4/kXNmt6w+OGo2X1OIaSg0rxqmauKItyvllfnzp3tcnehGF4e+m7c5zSPqiJTtY2bhkTjjv+eHAX67bffbr9XPXhZZ+KEqzHcg6+d+GFrnOpHNN2aLg1HGwdtVF2/6i/8cGQNJzzcMA1D31vZsmXtg8Q1HB3cHjlypP2vedZ0az3QOJE6uB96ClFIqtQX/zBgUdjqh6Uf6uFS6U/DTlT3HE+lUvUXH5CJaJpUEkw03Ly6pQrNa6JlLflZDlqurmRdUPputczyu+zzonVIQR4O/sOl6dG8afmE5bWOovgR6ADgCapcAMATBDoAeIJABwBPEOgA4AkCHQA8QaADgCcIdADwBOeho1joyljdHyS3e4HoIhtdregu/tEVlIVxAU9h0hW7XCmJVEIJHUmh8NN9zHX1oejeILpcPp4uydd9t3UpvG4joFDXJea6tYDuRJjbPdqTQZf4h2/kpfnRBgdIFQQ6kkKXtOshxXld1q7AVNAPHTrUluAV5Lr/jG4wpmAfO3asvdlXYd5F8HBoL0EbGiBVUeWCYqGbPOnGT3qJSt7uLpN53ZJV9xjRTbNUeldJvjhlZGSYVatWpVxVEEouSugodrqJl265q5L4oe6vrRtO6XbCuT3SDSjJKKHD1murekMHInXr1PB9vXXrW91OV/e+VvDqHuuuWfdZV+lUt6N1d95T1Yh78LKqWVSFom66S1/4/tnhErrGoZAO14+rysWNU5/RcMPTpWGrXl7/xfWv8YjGqaob3RlQ9dwajqZLGwT3zE43z3qYRLi0r/5Ul6/PhJeHhqPxuH4PVULX3oYbp+bBTavk1k3LTfOlDZu7Ja9bhpo/PRs0/jsCHEroJZwCTwf3FGAKD1V7hB86rIcUK3wVZgpVPaRYZ3aoNK3qD4VmuLQcfkixHoeml2g8uT2kWMGme7c72lAotBSeCmh1i3+CkjYq7sEd+q+6bY1DgagHbrgNjLrp3ubuvt6aPg1b1TaaZ31Gww/fs111+Rqvwlb3/dZ8i+5TrmHnh/pT6GqDofGEDwjrfvfaMKpZwa5ubhwK8y5dutiDr+ruHsitZa73Gp6mKa+HlaAEUwkdJZcedtyvX7+gKRJZu3ZtpHTp0pH169fbZq0iH3/8sX0v8Q8pnj59un1AcyJ6WLR74HP8Q4r1EGL3kGI9JFrDcTR8PTzZWbJkiX1Ic5iG6x4CrekfMmSIfS+ap/79+9v3s2fPjmRmZsYeUu0eID1lyhTbLOpXD4pORA9ZdtMZ//BkzY/mK56mN/zQaNHDvUX9V6xYMUc3zauWq2h6ww+81kOZNf3hB2/rgc2ufyCMEnoJp+eHPvfcc7EnIrVr185WJah07ISfX6qqgXDVgUq6W7ZsCZqyS6Y6b1wlZvdc1ENRyVmlYUelau0VOOFujqbPPXxBewThag+1d6Vh0Z6HO7tG/7X3EP9gbQ1DVDJX6VhntLhS8eFSSV6lau1FOO4ZoSqRa5mFu6nK5V//+lfQlD2/bp61p6F+3fSLlr+rWgLCCPQSTsGhR6CFH1KseuHcHlKcF1Ub6OwTBbKqGVS1kB+ahvgAVtWCo8APB5jea1zuoh5VmaiaRKGsqqGCnAGjz4o2GKr+UNXI4dLGIjz9YdqYqJonTM3RUnnQBBw5Ar2EU2lU9eEKSZVyFabh0vnhUPDq83rpgGL42Zh5UWlWJVdHAa26d4WihqNSv967IFSdvYJWGwJ1V5grRBXw2jPQPLmDr4dL8+DOtNE4Fer5oWXozo/X9Ouzrr5dGytNjzZ02tC4eRL1p/lxB2oPl6ZXxxe0AQUI9BJOBwsVNqoGcA+IDoeDHiwc3t1XiLoDjqL37uHDClNtFPSQYlV7KLhcvxqGe5ixhIfjHjiscBIFlKZHD7bWA4k1TFXf6ErRJk2a2GDUWTGiKiONxx0wVOiHq3o0Do0rLNE8uH60LHSQ9pRTTrEbGm0oXL/6H14Wmm/XTdPvDgBrg6CDrAr5ypUr2yoStVM1jj6v4eugpuZN3TQeHVyW+GmT+PGG+9EeiTZo4Q0iSi5OW4SlMFUgKmDC4XEk3Fku8UGaFwWp+lc4OZoecfXdroQersNXPwp/nSni2mvDoQ3VkVQbiTYQmgdtlOLDNTfaw9HLle4dDUfzFd9e8up2OLRcwssEJReBjpSgDYpKqqqSUEk3v0EqqqvXOdt9+/a1zSq1/v73vzdLly61pWKgpCDQkTJU2lZJ/euvv7b3bQmf6ZKXChUqmI8//tiW1B2VWFUtE76ZFuA7Ah0px92FMb9nmCjI9XJ156q71kt17QWtzgDSCYGOtKezcnSFqzuYq7pzVcNQ3YKShkAHAE9w2iIAeIJABwBPEOgA4AkCHQA8QaADgCcIdADwBIEOAJ4g0AHAEwQ6AHiCQAcATxDoAOAJAh0APEGgA4AnCHQA8ASBDgCeINABwBMEOgB4gkAHAE8Q6ADgCQIdADxBoAOAJwh0APAEgQ4AniDQAcATBDoAeIJABwBPEOgA4AkCHQA8QaADgCcIdADwBIEOAJ4g0AHAExmRqOA9UtiPP+0zHyzYaLI++dYsWLrFfLl2h9mweZf5/oe9Zj9fIQpBqYwMU/HoMqZWjQqmwUmVTYsm1U27s44zbVtkmnJHlQ76Qioj0FPc/M+2mPFTlplX3vnKbN+5J2gLJE+VSmXNVRfXMX2vO9W0PK160BapiEBPUQuX/dcMeWS+eXvu+qANUPw6tD7e/L5/S3PmqccGbZBKCPQUs/OHPeb+cQvN2H8uDdoAqeeum5qYYXecaSodXTZog1RAoKeQL9d+Z7r9+h2zYs13QRsgdZ1S9xgz7c8XmwYnHRO0QXEj0FPEx59ujob522bLth+DNkDqq161XDTUO5izT68RtEFxItBTgML88jveNDu+56An0k/limXNjHGXEOopgEAvZqpmuaDX65TMkdZUUn/vyc5UvxQzLiwqRjoAqjpzwhzpTuuw1mWt0yg+BHox0tksHACFL7Qua51G8aHKpZjoPPNzb3w1aAL88dHTV3KeejGhhF5MdNEQ4CPW7eJDoBcDXc7PFaDwldZtreNIPgK9GOjeLIDPWMeLB4GeZLprom60BfhM67jWdSQXgZ5kugUud02E77SOa11HcnGWS5LptK6RExYHTUVH96++68Ym5uqOdUxm9Qpm+46fzKwPvzEPT/o0x3nv6m9gz6bR/urai0Ny68/p2aWBfSVyw+/+ZT9TpnSGueHyk03vbqeYuidUND/+uM98sPBb8+DjS+x93BNp1qiaeXjQ2UFTtvmfbzEj/rbIfL9rr23W1Ygadlh8P6J++vY41Vx3aT1TO/Noe8/49+ZvMA8/8alZs/77oC9jrutUz/S5tlHQdMCiL7aa3z78cWxeB0XfL46203KcPLJdbPmEadk988f2QVNOPe/NMhu37Aqasj0Undfm0Xl2dkan8dGnl5p3/p3z2Epm9fLRcV5gLv3lrKBNTlUqH2Xu+FljOy+6UZbOA58yc7UZ9/xy+13KEyPON7WPO9q+D9M8aF6Kyr19mtkbeCF5KKEnmR5OUdTcVXsjfn2Wadm0htm3LxIN1kpm4M9PM/OfvyoWigqLD5+63Azv18I0b3ys7a9x/Sqx/hrVO/iqPwWIhqUrAi9oVcuc1bS6bdarTOlSdtj/iAbQhPvbmrYtjjNly5QymTUqmJ9f1dDMfeZK0+XCk4Ih5VQ1Otzw8M45o6adjlkTOsWm9+LWx5s20WG68alf9TP90Y62u1SsUMbMfKyT3Ti0blbTZET/1G+f7o3N3Ge7mDZnHhf0aUzjelXsOE9rWDU2TL1qRJef6L26a9qkfLnStlnLKJ7CVN003eFh6ZWIwlz9q7uGd/kFJ5oZ4y85aPkM6Hma7e+ClplBmwMU0vqe9f25adL3ouZ3Hr/MNovm2Y0r/Crqh1YkY11HTgR6kuVWQi1MY//nXBvQH0ZLxad1nWoaX/mSqdX+WVvSHPjHf5u90eAWhe5pDauZ6e+uNXUved72V/vi582EF76wT62Z8qeLYmHqqBSp/i6+9Q3bPPXtr2yzXiqFDr6tmbkmWtpXyfms616JDneKHeZdf/jIBqJKi9qQ5MYNLzM6vTOy1kU3SNXNpW1qB12N+XrjD7HxabjvzF1vQ94FnoJcGxI37w06v2CHpVK8gvnpaClaG6WwwaPnx4ap1y1D3w+6HL5/L9mUY1h6xZfOw9Rdy+jiX2Qvz3ujy8/RdN5y9Sn2/YDohiueNpzaKOn7a3DZC3ZYbl61vOOFp0kvfa4oJWNdR04EepLpsXFFSY8OU6Bu3rbbXN3/ndiPSiGuMJ761hrbrCoOBeWi5f81N/z23Wjo7LbttZuuMFCYqtTXud2Jtn1+qMQ3oGdTsy06jGv6v20+/3Kbba+DY9pIDP3zJ7Yke0ePU237vOgzsz782r7XHkci6kcbDlH4qT9VkWyMLuMu/d6Kzbv6U8iNe26Z3VDlVmVUnLQB0nILz6uqg7QR0vxcHv0e9J05KnVrw6V7Ad08+L3Y9+fmVcMrbkW9ruNgBHqSqT63KLkqhTc//CZWh5qISr4yadqKWIk9TAEsqkLIr8b1jrGBrSB2ARM2efqX9n+42iOeSu8qbav+e1Dv0207F9qiZ166uu07b2wS3Tg0tkH43vyNdp7KlCllnp7xnxx16s6Becp5V0BVcwy9vXnsVZCqCC2v5a9eE3v17tYw6JKY5vWic46P7lW1tuHt5tUdA1nzzU7T8973bDs1O24eXpm91oZ4foSna9x95wVti05Rr+s4GIHuKR1kC/tsWrfYj1kH91T9IXv3Jj4mrgOZ4vrLD9ev6uIT2R0MMy/aa1C9+eRRF5gTMyvaUr0r6UuNquVtVZFeql7RQdhronsi2ni5IM4t4Fz78nGBfdVFdXIEukrxhaVs6bx/YprX18dfYuv4VdrWwVi58fL69tjD2OhelTZWqsrRgWZXXeWWdXhe9b2GQzu3PRvRhg/+4VtNMpUwi9Ly1dvt/0vbnJCj/vvrb3+wQaaDYQqDz1Zmh2RuVSqdL8iut/585Vb7Pz80zL379tsSeKJS7lUXZR/wy6tuVVVAqjIY+OBcWwcffzaJq0Mf/tcFtvn5mati1Qsu+HOdp6B9eAMhOvvl0j4z7Ut12SoVH6n4OvQJL2bvFeRG86p5ueG3/4rO73T7PcmgW7L3TkR7I8tXbbch7NovXp79vYTnVcte0+4OXMc/Hi48XX2GfRC0LTpFva7jYAR6khVm6S+Rfy/ZbENRP+jHhreNBatOe5s158ApagrBz77cas+uUNVGOPxvjgbIHT871VZlvPR2/i+CUjXHMzP+Y8etg58648RRFcFDd2eflqi67Nzo9MDs+u7lBwWvuNAa/Y/Pbd3yXTc2jZVataHQQVIdEB79u3NybFQuiW7ghv/qTLuX4Kp+HG0EVQrWK9l1z5rXUROXmKlvr4mVtlUF5O4rrr0Q7Y30vCq76qZnl4Y2sHV5vUr0bl71/WlvRd/z4uj3nwqKel3HwQj0JNNBy6L283vfs2F34xUnmy9fv9bMeuxS88FTV5gbOtcP+sg+SHrLkPdtaOv0xmXRXXSd573oxa5mYjRATDTfNZy86uETGfTwPBuQOjCr3X4NU+N+78nLTY1q5c3g0fNsaBeUwu+haOldexsj7joraGtsyfPrjd+bO64/NTb++c93sac2ql+V/At69kWbM2tGN5ZtYq9wKblRvSo5uumVV9VHIiqFa8N13W9mx/Yc9NKehOrZb+nW0M6/zsbReeea15Wvd7ffs04N1SmKicRPV17HMgpDMtZ15ESgJ1mLJtkHI4vS8tV6CtIMW1p250frgOGX63bY3Xt39oGCte3Nr5mX3lpj66Z1nneDOpVtKVdPUcrropO9e/fn+O9oA6DPqu5XAaphatz2bJrfvWvGTP486DMnd2A2r3p2dQsfwNVBToW36pbdhTOqsmgTnafJ01dG572MHb9OzVTJ+6o73zZPTFtp+xM3rkQHhUWhmv0/u7ubV5WedV69ezVvXC3WTaXScDe94uvsRcN0ww9r2qCqaX1GTXtxkE4rdHsOeo2cuNieveQOjmpvTN/fK7O/skGv71kldm1QdYqqlo246Y+fLu1JFaVkrOvIiStFk+ydud+Yy+94K2hKDv1wVRLPq7St6gmF0eatuxOeIXKk8jPuoqJqiNqZFYtt/Mnk5rWwv7+CmDGuY3SDekLQhGQg0JNMu8p1Oj7P/VzgtSqVypqv3vpZwoPjKDpUuSSZVvCrLq4TNAF+0jpOmCcfgV4M+l536CslgXTGOl48CPRi0PK06qZD6+ODJsAvWre1jiP5CPRi8vv+LYN3gF9Yt4sPgV5M9FT0u246cG8OwAdap3nif/HhLJdipItCzrvpNbNizXdBGyB9nVL3GDPnn1ccdMsBJA8l9GKkFX/any8+7CsJgVSjdVjrMmFevAj0YqarDqf9uYOpXJEfAtKT1l2tw+7+Myg+BHoKOPv0GvaeI5TUkW60zmrd1TqM4kcdegrR3fO6/fod6tSRFlRnrmoWSuapgxJ6CtEPQweVOPsFqU7rqNZVwjy1UEJPUQuX/dcMeWS+ve81kCp00ZDOM+fUxNREoKe4+Z9tMeOnLDOvvPMVN/RCsdCNtnRvFl3OzxWgqY1ATxO6S+MHCzaarE++NQuWbrEPadB9zfUg3v18hSgEpTIy7GPjdBtlPZxC9zNvd9Zxpm2LTG60lSYIdADwBAdFAcATBDoAeIJABwBPEOgA4AkCHQA8QaADgCcIdADwBIEOAJ4g0AHAEwQ6AHiCQAcATxDoAOAJAh0APEGgA4AnCHQA8ASBDgCeINABwBMEOgB4gkAHAE8Q6ADgCQIdADxBoAOAJwh0APAEgQ4AniDQAcATBDoAeIJABwBPEOgA4AkCHQA8QaADgCcIdADwBIEOAJ4g0AHAEwQ6AHiCQAcATxDoAOAJAh0APEGgA4AnCHQA8ASBDgCeINABwBMEOgB4gkAHAE8Q6ADgCQIdADxBoAOAJwh0APAEgQ4AniDQAcATBDoAeIJABwBPEOgA4AkCHQA8QaADgCcIdADwBIEOAJ4g0AHAEwQ6AHiCQAcATxDoAOAJAh0APEGgA4AnCHQA8ASBDgCeINABwBMEOgB4gkAHAE8Q6ADgCQIdADxBoAOAJwh0APAEgQ4AniDQAcATBDoAeIJABwBPEOgA4AkCHQA8QaADgCcIdADwBIEOAJ4g0AHAEwQ6AHiCQAcATxDoAOAJAh0APEGgA4AnCHQA8ASBDgCeINABwBMEOgB4gkAHAE8Q6ADgCQIdADxBoAOAJwh0APAEgQ4AniDQAcATBDoAeIJABwBPEOgA4AkCHQA8QaADgCcIdADwBIEOAJ4g0AHAEwQ6AHiCQAcATxDoAOAJAh0APEGgA4AnCHQA8ASBDgCeINABwBMEOgB4gkAHAE8Q6ADgCQIdADxBoAOAJwh0APAEgQ4AniDQAcATBDoAeIJABwBPEOgA4AkCHQA8QaADgCcIdADwBIEOAJ4g0AHAEwQ6AHiCQAcATxDoAOAJAh0APEGgA4AnCHQA8ASBDgCeINABwBMEOgB4gkAHAE8Q6ADgCQIdADxBoAOAJwh0APAEgQ4AniDQAcATBDoAeIJABwBPEOgA4AkCHQA8QaADgCcIdADwBIEOAJ4g0AHAEwQ6AHiCQAcATxDoAOAJAh0APEGgA4AnCHQA8ASBDgCeINABwBMEOgB4gkAHAE8Q6ADgCQIdADxBoAOAJwh0APAEgQ4AniDQAcATBDoAeIJABwBPEOgA4AkCHQA8QaADgCcIdADwBIEOAJ4g0AHAEwQ6AHiCQAcATxDoAOAJAh0APEGgA4AnCHQA8ASBDgCeINABwBMEOgB4gkAHAE8Q6ADgCQIdADxBoAOAJwh0APAEgQ4AniDQAcATBDoAeIJABwBPEOgA4AkCHQA8QaADgCcIdADwBIEOAJ4g0AHAEwQ6AHiCQAcATxDoAOAJAh0APEGgA4AnCHQA8ASBDgCeINABwBMEOgB4gkAHAE8Q6ADgiYyZQzdFgvcAgLRlzP8HGvz5ZvcEQe0AAAAASUVORK5CYII=;imageBorder=#33FF33;fillColor=#d5e8d4;strokeColor=#82b366;" parent="WIyWlLk6GJQsqaUBKTNV-1" vertex="1">
          <mxGeometry x="160.92000000000002" y="950" width="158.16" height="250" as="geometry" />
        </mxCell>
        <mxCell id="KWgbuxi52lWq2ZlGSnJL-63" style="edgeStyle=orthogonalEdgeStyle;rounded=0;orthogonalLoop=1;jettySize=auto;html=1;fillColor=#d5e8d4;strokeColor=#82b366;" parent="WIyWlLk6GJQsqaUBKTNV-1" source="KWgbuxi52lWq2ZlGSnJL-58" target="KWgbuxi52lWq2ZlGSnJL-64" edge="1">
          <mxGeometry relative="1" as="geometry">
            <mxPoint x="720" y="1310" as="targetPoint" />
            <Array as="points">
              <mxPoint x="720" y="1280" />
              <mxPoint x="360" y="1280" />
            </Array>
          </mxGeometry>
        </mxCell>
        <mxCell id="KWgbuxi52lWq2ZlGSnJL-58" value="" style="shape=image;verticalLabelPosition=bottom;labelBackgroundColor=default;verticalAlign=top;aspect=fixed;imageAspect=0;image=data:image/png,iVBORw0KGgoAAAANSUhEUgAAAXQAAAKLCAYAAADmT3MCAAAAAXNSR0IArs4c6QAAAARnQU1BAACxjwv8YQUAAAAJcEhZcwAADsMAAA7DAcdvqGQAAEnjSURBVHhe7d0JvF3joffxJxINEkUTEoJEE2IeGhUVQVFqnquK4lW3FMXFxcVLL7209KWllxYXN1oqlKLmqWIsacykqHlIyUXFVIn97t9z1nOyzs4+Jyc583N+3/PZn7PXsNe8/+tZz1p7rT5n3Dy9EqReoE+fPqFSqcT/9aRu9fopd0O5e2u7lf+XtfbzSepe7lb+31w3pO6Yl25I3cvdyv/L6n0umdvnUjfUdkdruqGlYdf7LDpivElHDbv82T7Vhtl9S5J6rAWK/5KkHs5Al6RMGOiSlAkDXZIyYaBLUiYMdEnKhIEuSZkw0CUpEwa6JGXCQJfU5R555JGw1157hRVWWCH+hH2JJZYIu+66a7j55puLPtQaBrqkLjNz5sxwyCGHhG233Tasu+66YdKkSfHeJC+++GLYcccdw+GHHx6Dnv5ywg7s5JNPDvfee2/Rpn14LxdJXWbfffcNr732Wrj22mvDwIEDi7azffLJJzHQF1pooXDZZZcVbXu+oUOHhmOPPTZsvvnmYfXVVy/atl2nltAfeuLtsNE+N1b3tp8XbST1VlSn3H333c2GOQjyK664Ijz66KPhhhtuKNr2bM8++2wYPHhwPPpozzBHp5XQ3/vgn2H0tr8P71f/3/LrLcLG6w4tukjqjahSoYRKlcvcEPqXXHJJ/N8dnX322eGxxx4rmlr21ltvhQEDBoSrrrqqaNN+OjTQr7vrlXD6RU+E+y/bJlxw1dRw6H8+FNsf8p1VwplHfTW+l9Q7Ue1ACX3llVcu2jSPqhf6f++994o23QtHEoQ6/+eGndLaa68d69DbW4cF+guv/iOstfMfwsxZlTD5yu3CjZNeCyeeMyV2G7bUIuGFm3eN7yX1TlzN8vbbb8fqh9Yg0CnddkebbLJJDGj+zw1X73z729+O/9tbh9WhX3nLSzHMcf3dr4Yxq85eaa///aNw35S/F02SeqNhw4aFd955p2hqGSX0GTNmFE3dD0HO0UZrUIfemqOS+dFhgT7tnY+LdyH8/vaXw0ZjhoRBi/cv2oRwzR0vF+8k9UaEYGtPdBKWG264YdHU/bQ20Ln88qWXXmr3k6FJhwX6BussVbwL4fG/vhtefnNG2G6T5Yo2IVbBlHHlC+3O+e0z4c6H3izaSsrVgQceGM4888y51osTglRn0H93tf7668eS95NPPlm0qY9+Ro0aVTS1vw6rQ5/x0Wdh2Ka/C5/+s+ESxZN/sHZYb40lw9YH3Rab8dDl24a1Rn8pPDb1f8N+J9wbnn5h9orddL2lw3Xnbhb69evUKysldSKucOGSRC5hrHfpImH+rW99K7z77rvhrrvuKtp2T1y1wvwsvPDCRZs5UXW08cYbx0sxO0KHpeXARRYMW2wwrGgK4Zb734jVLgMW7le0CeGa218O5/3u2bDRPjc1CXOqZg7cfbRhLmWOK0O44mONNdaIPxxK9eQEH1eD8OvRTz/9NEyZMqVDLvNrT5zk5EdS7Hiae+2yyy5xfjvKfJfQD/qPB8LMWS3/QOipakj/5enp8f2Xl100PH3dTtWS+KRw+Y0vxnb9+vZpPHGajK+G/sWnbhiWHTKgaCMpd/wE/txzz43/p02bFgYNGhTD/Hvf+168Xp323B7gwgsv7JCrQzoL88KvY/nfEeY70Lc68NZw159bfwnR93ZZKZx7/PrhT4+8Fbb8l1uLtrP1rYb7Cd9fKxyx92rh4mufiyX3v736QSzVn/LDMWHMqoOKPiX1Rj0h1DnCSEcVtag+WmyxxcKDDz7Y7C9j22q+A5167y0OuCW8P+Ozok3zuO78vsu2CUMHN9QtnfObZ8KxZz8SZhWlc0rvF/xogzBimYFh7+MmhfsfbXpJ47e3WiFc8uPxRZOk3qqnlNSpI99uu+3iL0JBmF999dVh9913j80dpU0nRV9+Y0YsSU996R/hw4/mDPbFFv1CWHOlJcKhe64aFq++L3tt2ofhnkemhcFL9K+WwoeGW+9/PRxw8v3x1gBJ/y8sEE4/Yt1w0O4dc82mpJ6HUD/qqKNiSbc7ev/998Oaa64Zfve738WrX8DVLdzmgLss8gOpjtLmQG8OpfLWnNT85NNZ4egzHw4XXP3Xok2DVUcuHuvSuQpGkjR3bQr0r+x2XZOrU8r6f6FvOOK7q4YT/mWtZoP9nXc/CVv8y61zDIP69tOPGBOvlJEktU6brgs8YNeVindz+vSfs8LpFz4Rzryk+QvtTzjnL03CfLGBC4bf/nTjePLUMJekedOmEjpOOf+xcPpFjzee4KzFNeWv31n/RMCQjS5vPKn6tbWXDJecOj4MX6Zjzv5KUu7aHOjgV6HlE6P8dJ/b5iaf/OW7xbumhn39d2H6+w2X93Dy9PIzNg4jl/tibJbU8/FTeK744IdC3IuFK1T69Zv948L2wDj40REnSjvqcsC5uf322+OL+eREKFfgtPd8tka7BHqt8o+HVhrxxfD47+tfRH/Ijx8MF5ZOhvIr0rOPWS/svX3H3etAUufgKpTx48fHHwlxn/CXX345nHTSSe1+H3AefLHffvvF55COGDGiaNs5uO6c8L7llltC//7943xylcuYMWPi/Hd2qLf7b+u5ydZ1d71aNIWw02bD439K7Vy3zlOL9jj67vDU8+/GE59fW2v2Tbw+/HhmvHTx1F+17skfkrovfrrP9dfPP/98vMPgNddc06qnE/UkHBUQ5uyouMkYr4kTJ8bnhbY2zDnCOP3004umtmn3QL9n8rQYzMnOmw+PTy7iplx041LHa+54JYzd44Zw8TXPhdsu2CIcvveqRd8NTr/w8fBW6fa7knqedM9vwo2g4+furX2YRU/APF100UVhyy23jEcd6WlFlNjn5UdPVBcdd9xxRVPbtHugX3lLQ1ULll96QLyO/LizJxdtZuMeLkf/7JGw8+F3hqP2XT384ZzNwpBBDQuEbs1dDimpZ+Bp/XvuuWf45S9/GVZYYYUYepTYQTXJkksuGV/coAvnn39+WGKJJcKCCy7YWJKnG7fNXXrppWNIpioO+llllVXiD3aSrbbaKranexpPR6JkzXjSj4fq4b4t3H1x0UUXjTcfA08rYp5oT8n85z//eWzPMmrrj6XaNdCpbuHpRMn2mywfJj/9Tnjh1Q+KNg0/4+e+Lcmt978RxnzrurBgvwXCQ5dvF77xtWVie35lKqnnosqBEHvggQdinfKPfvSjWEVB9csBBxwQ9t9//3DkkUeGI444IgYzJ00vvvji2I6dAOFNKZjwP+WUU8Kpp54an5TPgyTOO++8sNlmmxVjajBu3Lhw2mmnxZ/Yp/DsSOloo6WnLhHoEyZMiNOadlw8Ro8TqMwrNx/jdrqg2qbN5wA4Kdpe7njwjUr/dS5tfN37l2mVk879S2PzMl+/ovLZZ7MqDz7298pKW1/VpF9eP/3vJ+JwLv3Dc/G/pJ7tgw8+iP8/++yzypAhQyrDhw+vVIOMCzEq1SBrfE2aNKly8MEHx35Gjx4du7/44ouVasjFzyQjR46s7LPPPkVTgzQ8+sewYcPi5zoD0zNw4MDKM888U7RpmOe333678vHHH1eqO7I4P2newfyW54Fpba8obtcSOnXlCT/dH7fOUuHKW18q2oSwxQbLVPfaC4Sxay4ZHrpiu7DrFk33Riee85dwzyNvhe96lYvU41GFsuKKK8ZqBUqn06dPj/XqqYqCx7ZRv06pm9I5JfETTjghvppDf5yE5IQrpf16j7DrzCtLmObqziqss846sTTOvHBvd+aNB3dMnjw51pFzuWZzFl988fifG45xP/U2KYK9XXx5y4mxpM3/R5+dHl/lEvgf//Rq0edsF/3+r5UvbfCbxn4OPvWBoouknuy5556rbLnllpX+/fvHEuhmm21WefPNN2O38847rzJgwIBK3759G0urRx55ZOyPUi0v+j3rrLMq48aNi91BO4ZJf5R4H3jggcrEiRPj+zRs+udzneXhhx+O08S8MF1jx46t3HbbbbGEzrTQbocddoglc+y+++5xXpMnnngiLgtezEtbtNt16Py46IKr/hqGDVkkbD1+2fjT/ZN/OaXxB0ZfX29ouOn8LeL7WlNffD/sfdw98dmj++44Kpz/fzcoukiSWqtDfliU7Hv8pHi1CgF/1H6rt3h/Fu66yL1dvrLKoPCdbb5ctJUktVaHBrokqfO0+3XokqSuYaBLUiYMdEnKhIEuSZkw0CUpEwa6JGXCQJekTBjokpQJA12SMmGgS1ImDHRJyoSBLkmZ6POPf/zDm3NJUga826IkZcIqF0nKhIEuSZkw0CUpEwa6JGXCQJekTBjokpQJA12SMmGgS1ImDHRJyoSBLkmZMNAlKRMGuiRlwkCXpEwY6JKUCQNdkjJhoEtSJgx0ScqEgS5JmTDQJSkTBrokZaJdHxL9zjuVMOODEEas0Kdo07yZM0N48olKmDWraFG17HJ9wpAhRUMbfPppw7CXXiaEZZaZ+7RIUg7aLdAJ8+9/rxI+qAb6RRf3Ccst33KQvvFGJWy39ZyjXml0CKed3qdVO4Xm3HhDJZx4QnX424dw8n94ECKpd2iXtEth/tJLlLJDGDS49WH8hS+EMGbdhtfii4fw16khHPbDSizBz69yqV+Seos2B3o5zNdaO4Rz/2uBsMgiRcdWGDQohF9fuEB8XfI/DTuC117l1W41QZLUK7Qp0Nsa5rUWLj5LqX3Q4Ib3kqTWme9Ab68wp879V+dX4usHBzaUyg//1z5h0UUbSuuPTqmES/67ofvvrqiEjz6KrRtNuqeh24RLK+G9d+uX6vnM9ddVwo1/tNQvKV/zfVL0yCM+D3ff1VCavv7GBcLgeSxRN3dSdMSIEM7+xeyTqvvs/Xl48on4Ntp4kxD+39kN+6Hjjvk83HpLfBtRfXPlVX2qIR/CySc1nBT9t2MXCIf+4PPw6KPVHcURfcLe+8z/yVZJ6s7mu4R+3PF9Yvj+858hHHPU53OUnFuLEP7VhX3ia9/9Qizx77VnJUyb1hD2J/9Hn3DjLX3C/Q8tEIZXx3fvpNg63H5bJYY50/Bf5/cJJ/zfPmHHnfqExZeYHdhMUwrzPb5jmEvK23wH+uDBDSFMoBKYBOf8hDol/HXX7RNfhx62QKy+4Vr2O25ruFb98t9Uwi47VsIGYz8Pb74x+wqWB+5vCPyDDu4Txq7fJ+y0c5/wg0OaBvYdtzdM20orhXDUvxnmkvLWppOi7RXqCaXyl6sldBDc1I9ffVWIVSfX39gwnmTgog3/X3214T+oxinb5OsNJfi//jXEOnZJylmbAh1tDfW//z2Ebbf+PL6oU3/vvYbr0bfaZnZpnGodrk+n34Tqlb59Qzjvl5Vw3LGfh/33+zzsuF0lPP3U7OBetBr65/xXn1itc/ZZDSdVJSlXbQ50lEOdQP7oo7kHJ2EMQpuqFF60+9oGDXXqDHP8Rn1iFcy113ACtBI2HD/7cyus0CeePCWsb705hCcer+4YqiX5lUb3abz8kX756T/9LbxwCD87oxIeetBQl5Sndr+XCwjj9kRVDJdEpksZa1HVskg1sMsnRCWpt2nXQJckdZ12qXKRJHU9A12SMmGgS1ImDHRJyoSBLkmZMNAlKRMGuiRlwkCXpEwY6JKUCQNdkjJhoEtSJgx0ScqEgS5JmTDQJSkTBrokZcJAl6RMGOiSlAkDXZIyYaBLUiYMdEnKhIEuSZkw0CUpEwa6JGXCQJekTBjokpQJA12SMmGgS1ImDHRJyoSBLkmZMNAlKRMGuiRlwkCXpEwY6JKUCQNdkjJhoEtSJgx0ScqEgS5JmTDQJSkTBrokZcJAl6RMGOiSlAkDXZIyYaBLUiYMdEnKhIEuSZkw0CUpEwa6JGXCQJekTBjokpQJA12SMmGgS1ImDHRJykSfSlXxXurxnnnruXD/3/4cHn/96fDS9FfD2zOmh4/++XFY5AsLhyUHDgojBi0X1hy2atjgy+uFVYauWHxKyoOBrh7vs1kzwx8evzlc/sjvw/Nvv1i0nbtRS64Q9lh357DDmt8MC/btV7SVei4DXT3a5FceDyf/8YzwyruvFW3m3fJLLBtO3uboMGb5NYs2Us9koKvHOn/SpeG8SZcUTW130Ph9w4Hj9ymapJ7HQFeP9J+3nB1+N/kPRVP72X3MDuHftzy8aJJ6Fq9yUY9z5u3/1SFhDobL8KWeyEBXjzJxyvVhwp8nFk0dg+EzHqmnMdDVY7z1j7+Hs+/8VdHUPpZadHDYZrXNw6L9BxZtGjAexif1JAa6eoyf3/XrMOPTD4umthuy6JLh8v1+Ff5zh+PDT3Y8sWjbgPEwPqknMdDVI7z67hvhpqfuLJra7gt9vxDO2vWUMHjgl2Jz+l/G+Biv1FMY6OoRrn3splCp/rWX47b8YVht6dHx/azPZ4XTbvlFfF/G+Biv1FMY6OoR7pw6qXjXdjuttXXYae2ti6YQfnrbuWHKa08UTU2153iljmagq9t7Z8b/hr9Nf7loaptVh64UTtjqX0Of6h+4ZcAVk6+N7+thvIxf6gkMdHV7f/37C8W7thk04Evh7F1PDf0W6Bubp057Ppx601nxfUvaa/xSRzPQ1e29/t5bxbv517ca4j/d8cQw5ItLxuZ3P3o/HH7VieGfs/4Zm1vSHuOXOoOBrm7vvY/fL97Nv3/d9MCw7vC143tOgh5z7SnhjfdbF9TtMX6pMxjo6tEOGLdXuPp7/x02X3njos2c+OHQXuvtWjSFeEOvh16aXDRJ+TDQ1e0tvvBixbumaH/IxvuHUUutEP5z+38Po4eMLLrMRjtOgia3PfuncMF9lxVNrdPc+KXuxkBXtzds8aHFu6aoCuHJRPhCvwXDKdseG38wlPBz/jN3/lF8WhHXlL84/ZVw4vU/Kbq2XnPjl7obA13d3kpLzVnyTk684SfxEXNchjh6yKhw2NcPiO05CcrP+ZdfYlhs/vifn8SToB9/9nFsnhctjV/qTgx0dXv8LP/Lg4YXTU29VC11l++5Ql352BFfiXXrG4z8atE2xJOg9DuvGG+92wJI3ZGBrh5h09Hji3dz4odB9zz/QNEUqiXz/xufPkSpnaqWC+6b0KT7vGhpvFJ3Y6CrR9hxra1iQDeHunGuLccSi8w+iXn/3x4O5026tGiaN4yP8Uo9hYGuHmG5JZYJW622adE0J06QHnH1ibE+PeGXoMdcc0q87nx+MD7GK/UUPlNUPQYPnNjlgv/T4j3RubJl3Mj1wgefzAgPvjR5vsN8YP8B4eoD/jsM/eJSRRup+zPQ1aPwaLhTb/p/RVPH4dr13dbZrmiSegarXNSjELJ7r7db0dQxGL5hrp7IQFePc9TmPwi7j9mhaGpfDJfhSz2RVS7qsc6fdGm8L0t74VLHA8fvUzRJPY+Brh5t8iuPh5P/eEZ45d3Xijbzbvkllg0nb3N0GLP8mkUbqWcy0NXjfTZrZnzy0OWP/D48//aLRdu5G7XkCmGPdXcOO6z5zbBg335FW6nnMtCVlWfeei7c/7c/x5t2vTT91fD2jOnx2nRu0LXkwEFhxKDlwprDVg0bfHm9sMrQFYtPSXkw0CUpE17lIkmZMNAlKRMGuiRlwkCXpEwY6JKUCQNdkjJhoEtSJgx0ScqEgS5JmTDQJSkTBrokZcJAl6RMGOiSlAkDXZIyYaBLUiYMdEnKhIEuSZkw0CUpEwa6JGXCQJekTBjokpQJA11d5rXXXguPPvpoeOedd4o2ktrCQFenu/DCC8Nyyy0XX+uss05Ycskl4/9LLrmk6EPS/OhTqSreSx3u7LPPDkcccUTRNKezzjorHH744UWTpHlhoKvTzJw5M5bG33vvvTB8+PBYIl922WXD3XffHU4//fTY/tlnnw2DBw8uPiFpXhjo6jQvvfRSWGGFFeL7Y445JoZ4QthTpz5ixIiijaR5ZR26Os3iiy8e+vbtG99fe+21TU6G9uvXzzCX2shAV6ch0Hfdddf4furUqWGNNdaIdeozZsyI7dqKHQRVNlTdNIfuzz//fNE0p7feeis8+eST4ZNPPinaNMVn6V5vmhk/3bxqR12GKheps3zwwQeVcePGUc3X+KoGfeWUU06pfPbZZ0VflcqECRNit4EDBxZtGiy00EKx/cSJE4s2lcqrr75a2WGHHRqHRz8HH3xwk+FdfPHFlaFDhzb2M2rUqMoDDzxQdK1UnnnmmcrGG2/cZBhMU0J3PlPufvzxx8duH3/8cZPx82JYUmcz0NXpCNqzzjqrMmTIkCYhSNAT+CCAU/uy1I7uePfddyvDhw9vbF9+pdA/55xz6nYfPXp07M4whg0bFtsxrG222abSt2/f2HzGGWfEflJg0x/TOWDAgMpJJ50Uu5133nmxG+0IcuZrzJgxsZvUmQx0dRmCnWAeNGhQDERehx12WOzW2kCnlExz//79K9dcc01sx/9UemYHQSmffrbccsvK22+/HQP8+9//fix147TTTovdCXNK2+V2BDg222yz2Mz/N998Mw43HQGU+3344YdjO8YhdTYDXV3uiSeeiIHIi9ItWhvoqfpmzz33jM217rrrrsbPPPfcc0XbplJYN/dCqgLi1a9fv8o+++wTgx0Ml9J56r7++us3qc6ROosnRdWpOKn4yCOPFE0NVl999VAN8vi+3glFLmks/+8o1WAP1R1Fk1c1yGO3vfbaK1x//fVhrbXWitNx6aWXhs033zyePB01alScpx122CH2++CDD4bx48fHE6RSZzLQ1akIxq9+9ath3333jT8oIuCPPfbYMG3atNh9ww03jP+HDh0a/4NbBRCip556atFmtk022ST+v/rqq8MNN9wQ3998883hm9/8ZrxiZd111w39+/eP7Q855JC4w+AqGMZ/7rnnxvYEMx577LFQLV3HbgyXHz0xvWD8DIt7z/BrVjz11FOxGQsttFC8FLN6tBEvwaR/mqVOVZTUpQ5H/XXtidDyi2qLVAdNXXY6UVnvlapcGGZz/aWrVDgBW68746MuvHxSlNeIESPif6pWJk2a1DgMmqlOqR5RxO6cOOUKmylTpsTmlVdeuVLdITUOJ02j1FkMdHUq6p05IbnYYos1Bh+vsWPHNoZ5QpiWr2DhqhRCkiAtX7b44osvxhOeqT9OkNZetnjBBRc0OfnKsFq6bJFx7L777nGHAQK9PM28T4HNcMrTyWdrxy91Bn/6ry7DrQCog+beLS3dv4Vqmdb8kpTqFF5U1/AjplpUgzDOloZFNQ1VMlS3DBw4sGjbIH2e/9SbM5wybl3AD47qfVbqDAa6JGXCk6KSlAkDXZIyYaBLUiYMdEnKhIEuSZkw0CUpEwa6JGXCQJekTBjokpQJA12SMmGgS1ImDHRJyoSBLkmZMNAlKRMGuiRlwkCXpEwY6JKUCQNdkjJhoEtSJgx0ScqEgS5JmTDQJSkTBrokZcJAl6RMGOiSlAkDXZIyYaBLUiZ6XaA/+OCDYcaMGUVTU5988km49957iyZ1VzNnzgxPPvlk0dRUS93qefTRR4t3Ibz00kvhvffeK5q6h/L01WI7fv7554um7o9l25OmtyfqdYF++OGHh7322qtoamrfffcNhxxySNGk7uq1114L66yzTtHUFDvsbbfdtmia08knnxy3ARDg5eF873vfC9dee218f8UVV4RNNtkkvu8qLc0nrrrqqjjNPQXLtidNb0/U6wKdL+rtt98ezj333KJNg0suuSTccMMNsbu6P0ri9TTXPll99dXD2muvXTQ1Vf7siBEjujzQ5zYvUq1eF+h8Uc8///xw9NFHNx7Ochh46KGHxpBfeeWVY7uehJIc86S523XXXeOR2Nysv/76sTQv9SS98qQoVS677LJL/E895Le//e2wzTbbtOqL3h2xQzr99NOLJkm9VZ9KVfG+VyHIOfyeNWtW6N+/fyytDxw4MHZ76623wmWXXRb7+eY3vxlLawlVMtTRpn45AUd/9MNJ1bvvvjsMHTo01hcOHjy4bp08h9LUfz777LOxX3YkCy20UHjnnXfiSdkdd9yx6DPE6iGOGpZddtk4/AsvvDD2t+6668bpIMxpx+vMM88M/fr1azxHwHiYD+qKGQalU7qD6WacjzzySJwOhs900C/TxmeZDpZRwkkthsf4qbYoTyfVVYyD5cM4jj322KLLbMwLddwMO00/GCfLkOHTD9PFPDBNCfPJdLEMWGYHHXRQqLfpsvz57KmnnhqHyzqgefHFF4/dy+uL7iussELjcKhiYRnwYhtgm2D9g/VJ9+bmHywDlmdSnsey5pYDytse03zEEUc0mU+Gf/PNN8f3TAfTyDyDaWR9pXVw1FFHxf/0w7ShvE7L21N5fjjiYxqYPqatXEWV5rF2ubb0mYRqTV5spwyH9UydOsMC6595YL2k7Zgjar4T9FM+emae+DztmA/GzTSk7Tht571Nryyhg0Bm42IjYKNOAc2GsuKKK8aNlg2ML3S5vn2PPfaIX4CEkEnVHXwZd9ppp/jF4LM010pBecIJJ8R+mIb0hSZs0gm7hGAiAHDggQfGDZ5hUCLn83zxGQ/t+CLwAs0E0Nlnnx37oX+aaQ+m+6tf/WqcN7ozng033DC+GAbL4Wtf+1pcPmCe6Z8g4otEYDM9yXbbbRc233zzOC315hssJ8bP5zkqYkcCAmn8+PHxi8g88WVPO0iwLjg5yBebz/PlbQnjZzmlLzrDYrgor6+WMG3lox7WC+HBumBZEDZsNwnLjwAF00k3djz1NLcc2GkxnwQ20848lLGtpB0R85OCPWHbYx0z/6w3Qo1lyXpheGlHlnYAzFPaeROyabtmG2BaaC4vA8KX7ZbpZh7ZGaXlWv4My6I5kydPjvOc1jPDSOs57Zz4LrJMKICA92nZJmwrfI4X88eyYrpYRmkn3CtRQu+tXnzxRYo+8X8ybty4ymmnnVY0VSpTpkypDBgwoPL222/H5tr+TzrppMo+++wT36fhvfnmm7G5ngsuuKAyevToygcffBCbP/vss8oDDzwQ3991112V4cOHx/fJxhtvXLn44ovj+x122KFy2GGHxfdl9T53zjnnVNZaa604fPCfZtqD6d5yyy3jezANtdM+ZsyYxv6POeaYyve///34Hq+++mqlb9++jcuCzz7xxBPxfWvssssulQkTJsT3zN9qq63WZFoHDRpUue2222LzNtts02S+03Kup3ZZMKzyOq23vpLysmY4NCcMk3YJwysvv2oIVZ577rn4nnEOGTIkbjtzU14Oe+65Z3wltdPHMCdOnFg0NSy38jTSb9qWkmHDhlUmTZpUNDVsFywPMO6DDz44vk+Y9uoRa+Wmm24q2jRgXhhW2m7B/J9xxhnxPd+R2s/Uam49l5dr8vHHHzfOO++Z97R8r7/++spmm20W3/N9Su9Bv0xn2nZ6m15bQm/Offfd11gyAIeOHPZRMm2t5kpmSFUq6YiAUhSlptagtESpLJXiWkKplpJQOvTkP/NF+6Q8nekQudyOQ/NUamP+r7766lhFwYsSdZ8+fRpL8EjzVA+lQ8Y/atSoOC5KuuloARxSl6eV0nAaNkcuqTpgXjEsSmyU/tqK7SBhOaWSJaVN5i91Z5x0T6XXspaWA+umvO2VUSqfNm1a3SqcsvL6Y/m9/vrrYe+9925cbz/+8Y8bj6DYnhh/eXti2jmqYdthmacjPpbf9OnTwxprrNE4rIceeqjx6IKScfoMJfXm1FvPaRxsY2xzlNrLVTaUvDka5GgTHE2kI1m+T5T60zStssoqcTqbO0rMnYFeo1rSaPJF5MtGqKV6vmqJojHk5gcbZ0uf5wvfHDZ+wq1awoxf/NpD8jLCtXajZrzNhS7T1RI+t//++4dqaarxVS0xxUPt1qAKgi8wX3bCYW4Bnb70YNrqhWNrsUxTXW9HYNjVo5lY1UDIU41BSBFMtVpaDmxjzW0bafrnZTmkdX355Zc3rrNqCb6xcMJOhe2pWkqP2xPTDd4T1OwcCHu2I9ZB9SilyfqvltobqyPLn6FqrrWBWl7PnG9iJ8OOLe0oEgI9XXLMMko7NpYLFzSUp+uZZ56JO5feyECvwYbD3j99cbh0jY0mfTn5EqRr1fnSzq2kXIu6Vz6fPscXmxIkQUCphPGmOk7+P/XUU/E92NAJJ6aPDbp81FAu5YENmlJT6oeSTCpFzQ++sJdeemljSZQveCpZtQbzlUKJL/u8lJiZZsKScTOftb8hqEWpNK0jgqEt890aLGPmibBhHgkl6ofr7TxbWg5MI6XQFIblcwUpuNgeWQYsi5Z26OAzW265ZZwedhasN0rt6ciC6WY41I2zftlGwHzQP8u5b9++jdso08V8MRxOPjLtKZBrP8OOYl4xLWnZMLwydhRM42677dakPp1lxpEj08h08XnGXd5R9Ca9OtDTSi+vfL4wbBhLLrlkWHTRReMGzBcn9cOXg1LWwgsvHAOYDTt1I+TYmFtCiZaNnmBfYokl4jAopfFZNkZOOnGSh+HzRVtttdUag4FpYYfCYS/BnU5KUnLny7DgggvGDZwSDOPh0JQvIuNhB0BzKlEzzbWBw9U+ZfST5o2TUJTQ2bEtt9xycZwpAMBnmYfmMC/sxDjhzDTw5U/Drjct5XYsEw7FWSe8CBaOlOrhMywz5nXppZeOy5cdICcLwXDTdNauLz5bnqb0HrXN5X7ZYTAOlgdhybpp7silpeXA+qT6jaoD5pPhDBkyJHYD2x3t6MZ2x/ZSniaOLsvNYNrYHvgMy4P1SPiB6U3bE+/TFVls46xjqi+YHl6Mi+8BO9a0HtiO2e7SZxg+n2EbScu7jGlraT1zop3tlPln/ZXnHSxjtrPyzplpO+uss+J3iPGzXNKRRm/Uay9bnBu+BHw52UBq0Z5QKYf5vKKURWmJkkdtEFKK44tSb9y0Z9rY6ZTRns/VfiZNa73xzI80/vkZXprn+V1ujBeEYGsw30xjKvV1FErSXF7IjjgtE8KIkmS9aZ3bcpjbfPJZ5qk2HFvCsmC8tdtHc9tTc9OQpp1x13ab1/VTD9sw2yzbVz3lI5yytJ0z7nlZLrkx0KU2IkwoKRLo6RrvVF1SW3UgdSQDXWoj6uupIkjnL0C1ClUDlCilzuJJUamNqId+7LHHYn01J4qpj6bev1zXK3UGS+hSO6CKhStUOOFI/S9hTqjP7zkWaX4Y6JKUCatcJCkTBrokZcJAl6RM9NpA59rh2vtF5ICTcvxYpDPwQw5+ZDI39Jd+nVjGZ+vdAoD+57ZuuJqkfI13eTh068rLBfmBTWuWS1dLt0UoX26pnq3XBjo/D04/nc8JPy3vrJ8+c19vruSYG34yzo9uavH5eg8A4Sfgc3v8Gz8D/8Y3vhHDm/DkJlIJn53b/V46EuNuzXLpSix7fgyVrpevdyOxzsZy434tmn+9NtD5CbM6B/eTefnll+copXNvGm5XnH4ynlDy5jMt4d4h3LOFo5F669L12zJ2OOxo+VEU66V8I7Cuwu0H2Mlo/lmH3ksRop1ViuWLOnLkyCZVJIQIh/yjR49uctdA2nG3xLkFOsPknh7cJEzzjnuGl8Ozs5cj1Tzs0Mu4MVftk4k0bwz0XopbjPJz9c5CQJcDnRCnXbqdcMItg9daa61mb86U8MWn2sUf7sy/9rhZ2/wizHvzXRE7Sq/9YREngyihUufMSTjuQke4lDdySosED4fvlB7KT1HhpBuHqZR0uSFTue6PjZU6SbpTJcBtUuvVIYN7UnN3uHRTJ07WMs70s3FCkGlrbjpolw6budMct1gl6NIzF5mWdG9qppHxUOfMvNNvCnX6B8Nj2dBPvWVCnSvTTLt04pL+5ybV1bK8CGGWCcueUiK3b3333XfjcuA2qJQWqVJBeTmzTJl/sFzTXfWoR+eWq2lTZl4owderh6fftANJ40pozzyxHJnvdFc/djL0xzzweZYL4yjvTOiHF8sl3Y+73nJhfliXDId+GU5zOy/WBaHHNNWOs6VujJ9hs02k7YvuzBfrlW1qv/32CxdffHHsP2HbYBmz3XD7AvpnWpk+zjcx/2x7jJf1kbZr+mWYjId1mpYb3ys+z3+mh24Mk9I5t+FlGLRj+OzcWSa8yrfeZful/9p1wnwwXDBdzDvbV+1dI3ubXl1CZ8NnYyQc+Nk2GydfFLCRsMHyBaQ7G1k6RGRDJIhSsFEfWT7BygOT2fC58oJ+CSE27Ho4OVUuqbCR8iDqhA2f6aA9r/J0MK1MM8HFNLLhl+up+XIwbKaR+UjzR78Mi/fpSwSaGX76DEHKFy0tE+YzhTKfZxm1FsMlKJhGPs+yY7kQlDwJJy0fQjFVtzCOdO93pocdVTokT2E+Lxg/T9MhDHilR5qB+aKZ8RBOrF+WE1i+3OebwKcd66R8Mpdm5iWtI+ahOWxvvAgm5ouQqodpZX0xbNYdO+C0M0vrnZ0e08M2lJYvWH/MJyeX6c500z9oTus7rXteqYAD5oEHTlMAYNw0g/ER+kw/7Zgetk2WBf2xvaTxgOXAd4B55X1aZqz/9L1i3Gn49FPeCdM/L/pj+yg/CYl1tNVWW8VpZHh8loeaM9xejRJ6b1T7gF0efjty5MjK5ZdfHpt5kDMPo03on4cmgwcm77///vE9eLAyD9YtPzC5/LDeI488Mj6Qtx4eWMyDi5N6Dy7mQbgJDwnmIbjgobw8PLf84N7yg45r0W+axrvqPFiaz40dO7ZoanjgLv0wHuaxWgqqPPzww0XXpg9cbg0e5nvKKafE+Skv++OPPz4+AJth87Dh9BBhHgxdfjh0ejB1emB3UrvMapdpwnLi8+WHJoNm5pP5TVgO5513XnzPtDLdCf1XdyjxffXIolLdCTRZ361ZLswj052GU+uss86KD1RO00T/admz/Goftsz01j4APHVnGpnv8kO8a7/65WlOy7O8XYHlwHQlLJPyg8gZD59L21jZM88802R7q7eMyt9Jludiiy3W5KHlu+++e+ODyumXZVCeRr6z5Ydo90bWoRco8VHKodTOXn7q1KnhoIMOanz47IknnhhLdaB0+Yc//KGxGyWDWbNmNXZH+TCaUg2liPmVDqVBqYiThoyL6WCamyutUlqnVMPRAtPAibCWUPJivtN8USrlwcSUiji0r+5I2nR5W6pHpwRZfpYm83TLLbfEIw9KeGl+Kd395je/aZye9GDqVNUzr1hOVDMxDkp2qaTKfLNsmN80Lh79l0qDoFoj4T2lRjCNPCmotVdnUJJkXdA/6y4NpxbLiaMGjhjAMknLnull+aXlxH/6ZdgJ21/qTgmZaZ7XbbDedpWqPMAwaS6Ph20kLVdK1dyJknlNR12txbywnsrfI45mWC4J1TDlaaTf5pZnb2Ggl7AxsIHw4tFkEyZMaHzwbLVU1lgXTfe2PDC51rxshClkmAa+QC0dYnLIXS0FxdBh2vmytYTh8QzK8nzxwF2+SIyP6UzVL/OD4OZJ8X/605+anHPgC88j5X72s581+eITZtUSWZPpqZb+5ns5g7pkAodhsyNmnphvTsSWx1MtzcblNzd89sMPP2z1cmH86VFy5QCuxXCbC2DWRe16ZwdPwHW1FO6gfpxQp+DR0rzWU2/+ae4O89id9epAnzx5ciztgP+UEAkaNkpKQNQZsgFxooUvUPoS0U9bHphcRqmLumiGRR0oX/ZahDGBwfipR+ZhwWzwTCPTnb4sBHf5odIprEC3cgmdUEh1rnzhQHBz5EHJnvli3hk3y4NSPsNKJ1EJkPJ5Ab5sfIHLdfi1qC/n0Wxcqlgu8YJlyvSWA51SJ3W7TGdazi0NvzVY1pTkGG71cD2W9lmOLB+WJeOhO82pdNwSlgvzk+p+WQ4tnVsor5OWQo51cdFFFzVun6yHVIfOcmb6Uzd2DvTbXH18VynPa7lkDZYt65XtmumvldZJOrHM94vzCewQ1bxeG+gE2pgxY+IGwsNl+bJwUohDRPCeDS49XJfuqUqFz9Q+MLm8wVK6L4cBgdhcOPAlpBsPcuah1ARW7cNxOalFN/oh1FPoEz5s8Gz8TCOhSEkzlZIIf148kJgQoISeuqWrO3iwNJ/jC0M48cBdmhkewZauCOFz7PAYN8uEfhk/yxF8+QiVtHNoTqruqMU8EIwMM2E5E+pUUVANwjTXGz7Lr/yAa6Y1TVcZAcNOmnljeIyT+WA+OaHHCdf0AGTmk/7BsNJyA+NjHScsI6qR+BzTyM6q3H8Zwc8RCeNneTZ31MSO7YwzzojbHeudo5K03JjmdJKUbizT0047rfHIhemrHT/N5Xb1HgielhnvqUaqVe4HtcsF5X44ic5Jbb4j7LzK3wGqm1hmPAydbRTlz7JOWD4sL+aR5cq2kC4+qDfueu16G++HXkVQU5JIG1MZVRyUImpLlOALT4mMja+8sc4PpoHxpxJNwoZPsPHlZToYVy12PExnOQwTppGdQL3pb+5zqX1tHWVC+NebZz5Tb/rKmB6+dPWWV3OH1OnoqD2WM5hOpqF2XCzftC3UrofWaG651GJeWMZzW1ZI66LecFvq1l2wTtHcem3NcmC5NrctqikDvZtLgc5LklriSVFJyoSBLkmZMNC7OU681qv/lqRa1qFLUiYsoUtSJgx0ScqEgS5JmTDQ1Ygf/bT1p/XdEb9ibQk/q+fn+vzik5/Tp1+Idhf8+GZ+b0im3sVA7+X44VL6eT8/xeYWAT0d95tJ88EvP8sPkE74VSj3EedWD9xzm3nntgLcE52fmfNDLn6h2FX4ZXBaL/zP8YHman8Gei9HoNe7ZUBPlm7ZCoK7FiVw7uNCaZwX9xnh3i2EOcFOkHO5KMuG0ntX4L4sXq6qeWWg93LpZlGtwY2tOPzv7gjrlo40KJFTCueGXPXuI8J9XuiHEjwl5a6YZ27d25bbBKt3MtDVascdd1y8GVRPRmmcOnV2TnPDHQ8J1Xq3NJa6I39Y1I1x+1DuFc2d5rjNbroDINUEVJNwIo86Ym4vy61VCSo+QwmT/tMhO3e1497lVCWkbqmahdv+plu+citeXrX36aaESj0uDxbmlq5MDyXXdAc9pofhcDc86p7r3VkvSdMIpplxg2mjKoQdBsNjGAyLdpSk+U/Alo8mGA7Do1qF6hFe4AQi80y/DJdb1abNnHnndrPlm52xHKk/p7TOMJhfblGbuhH+5WWS1ktCvxwVMAyWY1ov6Zav5fVCc1r2TCPtORFdu14YH+95NbdeEqaXZcQ4qW5iHAyvthvTwzJP3Zgu1hnzwjJjXEwDy4yqJ5ZreR2p+7OE3k3xxaI6hNuiEpaEEwEASoyc6COkaUf1QrpfNrcrJSToP1UV8MUlDNgh8MXlC5/w0IDahw/U4ovNlxwEA+/TsKkaYLxMB0HM/a+bu1KG6SWU+WwK3BRS/OcJQtyTnPCmuoN5oi6bemzGSdim+6HTTyo5s4zYwTBtYOfD5+thXssP0aDenOXHPLKcmKbygzsYf3l+WF7cv5tQJAgZT9px8p75JwyZPqpteGwe08Z6YdzME93AfKUdIdNOfwnrvrkAL2NYLBfuj84yZeeTTqDSjZ0X08V7pp0dTzqvwHzyiEK681nuX870MTx2rCxr1klPPyrrVSihq3vhYcDDhg2b4+HP6QG9PFz3tNNOi+8xYcKE+ADo8gOFBw0aNMfDkMEwy6ud4aaHSpcf0lsPnys/APi5555r8nBstPRAbKax/DBl5ieNLz30Nz1wmIcDM75y/zwkuPzQaKT+x40bFx98jXoPPAbzzkOoEz5b3clVpkyZUrRpmH4+X1ZeXtXwjQ88Bp9nPaXPM870EGPwwHHWQ1qP9M8yKD98PGHdzc96YVqZ97QcGFd6GDTbSLkb4+BBymwv4LPl6eVh4DxMmoc9J+X+1f1ZQu+GKPnxuDhKe1QX8HrsscealBTLJ/MoIVJKTQ85oPTIYXLqn5Iz1TKUNnm1F4bL8FI1ASj91ytZUsLmgdN77LFH4zz95Cc/aSxVg2qWVB3A/PHkplSaBPNESRL8p6RNO+aNxwmWh1VP7QM06J8nD6XqFdQ+RIHSKdORUNJN88u0Mp3l8ZbXC+8ZXhpmWi/poQ+s57Re+D8/WNYczaXlxrjSsOhWrn5h+6CEXl4/5ell2njYefnhHiybuS1XdR8GejfEF2rkyJFNHlpcLQU2Ps+zNdKXGBz689lUV9peCI8UsAkBWK8OPYXaxIkTG+epWvpurEKphwAqB3oZVQtpp0XVxdixY5vtNyG8Xn/99aKpYZref//9Jp+jOigFLlI1SVItKcfqEPqjyoLxU00zP1gvVIOwXso763nBPDRXJcJ6qO1Gczmw54Z1kKrX1P0Z6N0QdZiUaDm5RmmQEjj1u6kEPq8I3RSoc6svnxvCj50CJVXqfBl22tEQFoQdJcZahAthSBATrMwX8zi3EG4OIZPmiRJkawKR5ceOkgAF08RzZak7BtND/Xe69px5I3BTnTQ7H+ad/4Qi80qo19uBtQbLMH22teuF5UUdfipls6x/+ctfNs4T/ymFg3MDdGPbAeNg/uqtn9ZgvtkJGfDdl4HeDRF4BAWBkR5anE56gdJ3uQROsJWbQXMKPIZD+FLNwUnAchVCuT/et7TTIJBXWWWVWCKluoV+mU5OqvEgX3Y8VB9worQeTlYS+vTLg5oJynTEUG/c5WkDzbzAZzkpygOwqXrh6o7Ub3l5MMzyA5GpgmB6E64eIeSYJqoX6EYJnZOFVF0wHk4sgqtFaCZMCTWCkp1vUju95elIaE7zyXJi2pkHdorDhw+P7VH+bPk92wDbAjt7MD9HHnlknA7mgeGlK3hox8OjUzf6ZR5SFRPDLE8f01V++DXonuaJk+0sn+aOCNT1vGyxG6M0RumT0uC8HCbXQxAQQuU603mVpofgLgcBKN22djoJBIaVrg6ZX2l6ynX4c8NyoKqGYEtBDaafZZPClmZKz+WAJvgPOuig+LnUHztHrsyZ31L6/KwXdjgs5/I6YBgs1/I8JKlbvfU2L1jejLst25A6loGuXoeqBy61JKDLoT43BBpHIHwmnXjkqIOqE45YpK5moKtXIoCpgiCcqe5oTQmbHQDVV+X7u7BzoJqDsJe6mnXo6pW4coVgpu69tWFM1c7UqVNjPTJVMpwk5IRqS/eNkTqTJXRpHlBK50odTuZSJ00pn1BvS9201F4MdEnKhFUukpQJA12SMmGgS1ImDHRJyoSBLkmZMNAlKRMGuiRlwkCXpEwY6JKUCQNdkjJhoEtSJgx0ScqEgS5JmTDQJSkTBrokZcJAl6RMGOiSlAkDXZIyYaBLUiYMdEnKhIEuSZkw0CUpEwa6JGXCQJekTBjokpQJA12SMmGgS1ImDHRJyoSBLkmZMNAlKRMGuiRlwkCXpEz0qVQV79WNffrPWeG+KdPCpL/8PUx5Znp44dUPwlvvfBw+/Ghm+NxVqHawQJ8+YcAi/cLQwQuHkcstGtZZZVAY/5Wlwrh1hoT+X+hb9KXuzEDv5iY/NT2cP/HZcN2dr4T3Z3xWtJU6z2IDFwzbb7p8OHC3lcOY1QYVbdUdGejd1KPP/m84/ueTwx0PvVm0kbreZmOXDj8+bExYe+UvFW3UnRjo3cyMjz4LPzrv0XDOb54p2kjdz6F7rhJOOmjtMHCRBYs26g4M9G7khVf/EXb84Z3huZf/UbSRuq8Vh38xXPuLTcPI5b5YtFFXM9C7iYeffKca5neE6e99WrSRur9Bi/evhvpm4aurDy7aqCsZ6N0AYb71QbeFDz70pKd6nkUHLBhuPO8bhno3YKB3MapZNtrnJkvm6tEoqd9z6VZWv3Qxf1jUhTgBSp25Ya6ejm2YbZltWl3HQO9CXM3iCVDlgm2ZbVpdxyqXLsJ15ut/54aiScrHg7/d1uvUu4gl9C7Cj4akHLltdx0DvQvwc35/AapcsW2zjavzGehdgHuzSDlzG+8aBnon466J3GhLyhnbONu6OpeB3sm4Ba53TVTu2MbZ1tW5vMqlk3FZ12kXPF40dRzuX33od1YJO22+fBgyaOHw/gf/DLfe/0Y485Inm1z3Tn9H7L1qtb/h8cchzfWX7L3dyPiqZ49/+1P8TL++fcIeW3857LvjimH4MgPCp5/OCvc9+vfwk4ueiPdxr2fNlZYIZx711aKpweSnp4dTf/VY+PDjmbGZXyMy7LLafkA/B+6+cthtixFh2JBF4j3j75n8Vjjz4ifDy29+WPQVwm5bjggH7LJS0TTbY399Nxx95sON83pU9f3j1XYsxwmnjW9cPmUsu8t/unHR1NTex00K06Z/XDQ1OKM6r2tV5zmZUZ3Gc3/7TLjzz03PrQwZtFB1nBuFLf7l1qJNU4st+oVw0LdGx3nhRllcBz7xlpfCeVdOjesSF5+6YRi21CLxfRnzwLx0lOMOWDPewEudxxJ6J+PhFB0t/Wrv1B9+JYxZdXCYNatSDdaB4YjvrhYmX7l9YygSFvdftnU4+eB1wlqjvxT7G73CYo39rTRizl/9ESAMi18EbrTu0PCVVQfFZl79+i4Qh/0/1QC64Efjwrh1lgoL9lsgDBm8cPju9qPCQ5dvG7bbZLliSE0tXh1ueXjrrbFknI5bL9iycXo3Hbt02KA6zDQ++qWf68/dPHbHgIX7hVt+vWXcOYxdc8nQp/pHvwfsOjo8dMV2YYO1lyr6DGH0iMXiOFcbtXjjMHkNri4/8J7uTBsW6t83NrOMahGmdGO6y8PiVQ9hTv90Z3hbb7RsuPH8b8yxfA7fe7XY30ZjhhRtZiOkWc+svzRNrBea77zom7EZzHMaV/nV0Q+t6IxtXU0Z6J2suRJqezrn39ePAX1/tVS82g7XhNHb/j4M3fiKWNI84qd/DjOrwQ1Cd7VRS4Tr7341DP/GlbG/YZteGS646q/xqTUTf/b1xjBNKEXS36b73xybr7njldjMi1Losd9bM+xcLe1Tcv7KbtdVhzsxDvPQ/3wwBiKlRXYkzUnDG1Kd3hsnvVbdIQ0KW2wwrOgawuvTPmocH8O986E3Y8inwCPI2ZGkeR+51VVxWJTiCebfVkvR7JTKjj1rcuMwee13wr1Fl3n35yfebjIsXrWl8zK6s4w2/T8Ny/O46vJLmM79dloxvj+8uuOqxY6TnRLrb+Q3r4rDSvPK8q5VniZefK4jdca2rqYM9E7GY+M6Eo8OI1Dfee+TsNNhdzZ+qQhxwvia21+OzVRxEJSPTf3fsMfRd1dD55PYnsN0woAwpdS31fhlY/vWoMR3+N6rhveqw9j5sDvC0y+8F9tzcoydxAm/+EssyR60+8qxfUv4zK33vx7fc8RRD/2w4wDhR39UkUyrLuPtDr69cd7pj5A773fPxh1Vc1VGXYkdEMutPK9UB7ETYn62rq4H1llCqZsdF/cC2uvYexrXX5pXhtfVOnpb15wM9E5GfW5HSlUKt93/RmMdaj2UfHHJtc81ltjLCGBQhdBao0d8MQY2QZwCpmzC9S/E/+Vqj1qU3iltU/991L6rx3YptMEzL1Pd9iHfWaW6cxgdg/CeydPiPPXrt0D47Y1/a1Knnsyep6Z3BaSa44Tvr9X4aktVBMtr6g07N7723XFU0aU+5vXr6y1dPaoaG8M7zWs6B/LyGzPC3sfdE9vRnKR5uO6uV2OIt0Z5us478WtF247T0du65mSgZ4qTbGVPXbtj45eZk3tUf2DmzPrnxDmRidRfa6R+qYuv55NimC3hqIF68wmnbxSWHTIglupTSR+DF18oVhXxonqFk7A7V49E2HmlIG4u4FL7hWoCe/uvL98k0CnFt5cF+7b8FWNebzr/G7GOn9I2J2Pxna1XiOcezqkeVbGzoiqHE82puiot6/K8sl7Lod3ckQ3Y8Sk/rtVORgmzI0196f34f4sNlmlS//363z+KQcbJMMLgqecbQrK5KpWtNmqot376+Xfj/9ZgmDNnfR5L4PVKudt/veGEX0t1q1QBUWVwxE8einXwtVeTpDr0k/9rSmy+8pYXG6sXUvA3O09F+/IOAlz9ssUBt8QXddmUiudXbR36BVc3HBU0h3llXvY4+k/V+b0+ricctV/D0Qk4Gpn64vsxhFP7x6c2rJfyvLLsmfZ04rr28XDl6TrgpPuKth2no7d1zclA72TtWfqr589PvBNDkS/0r08e1xisXPZ26wOzL1EjBJ964d14dQVVG+Xw36saIAd9a+VYlfH7O1r/IyiqOS6/8W9x3Jz85IqThCqCM45suCyRuuzmcHlgQ3331DmCFym0zvqfp2Pd8qHfWbWx1MqOgpOknBA+69/Wa7JT+UZ1B3fyD9aORwmp6idhJ0gpmFdn1z0zr6df+ES45o6XG0vbVAGl+4pzFMLRyN7bN1Td7L3dqBjY/LyeEn2aV9YfRyus58er67876OhtXXMy0DsZJy072nePuyeG3Xe2+XJ44aZdwq2/3iLcd9k2YY+tVij6aDhJut/x98bQ5vLGZ6uH6Fzn/djVO4QLqwESqvnOcFqqh6/nqDMfiQHJiVkO+xkm477n0q3D4CUWCsee9UgM7bYi/M6olt452jj10K8UbUMseb4+7cNw0LdXbhz/5Cu3i5c20i8l/7ZefbHB2ktWd5YbNL7KpeSVRizWpBuvlqo+6qEUzo5rt3+9q/HIgRdHEtSz77fjqDj/XI3DdefM6/M37RrXM5eGcoliPbXT1dK5jPbQGdu6mjLQO9k6qzScjOxIU1/iKUg3xtJyuj6aE4YvvPZBPLxPVx8QrOP2+mP4/e0vx7pprvMeufyisZTLU5Ra+tHJzJmfN/mfsAPgs9T9EqAMk3HHq2n+7e5w9oSniz6bSidmW6pnp1v5BC4nOQlv6pbTD2eostigOk8Trn++Ou/94vi5NJOS9/aH3BEuvvb52B/SuOqdFAah2vC/oXuaV0rPXFefXmuNXqKxG6XScjdetXX2YJhp+GWrjlw8jF1jyfjjIC4rTEcOvE678PF49VI6OcrRGOvvurteiUHPeqbEzg6VS1RZNkjTXztdHEl1pM7Y1tWUvxTtZHc+9EbY+qDbi6bOwReXknhLpW2qJwijd979pO4VIvOrNePuKFRDDBsyoMvG35nSvLb3+muLG8/bvLpDXaZoUmcw0DsZh8rLb36l93NR1hYbuGB45fZv1T05ro5jlUsnYwPfftPliyYpT2zjhnnnM9C7wIG7zf2XklJP5jbeNQz0LjBmtUFhs7FLF01SXti22cbV+Qz0LvLjw8YU76S8uG13HQO9i/BU9EP3nH1vDikHbNM+8b/reJVLF+JHIV/b84/huZf/UbSReq4Vh38xPPCbbea45YA6jyX0LsSGf+0vNp3nXxJK3Q3bMNuyYd61DPQuxq8Or/3FZmHRAX4R1DOx7bINp/vPqOsY6N3AV1cfHO85YkldPQ3bLNsu27C6nnXo3Qh3z9vxh3dap64egTpzqlksmXcfltC7Eb4YnFTy6hd1d2yjbKuGefdiCb2bevTZ/w3H/3xyvO+11F3woyGuM/fSxO7JQO/mJj81PZw/8dlw3Z2veEMvdQlutMW9Wfg5v78A7d4M9B6CuzTeN2VamPSXv4cpz0yPD2ngvuY8iPdzV6HawQJ9+sTHxnEbZR5Owf3Mx39lqTBunSHeaKuHMNAlKROeFJWkTBjokpQJA12SMmGgS1ImDHRJyoSBLkmZMNAlKRMGuiRlwkCXpEwY6JKUCQNdkjJhoEtSJgx0ScqEgS5JmTDQJSkTBrokZcJAl6RMGOiSlAkDXZIyYaBLUiYMdEnKhIEuSZkw0CUpEwa6JGXCQJekTBjokpQJA12SMmGgS1ImDHRJyoSBLkmZMNAlKRMGuiRlwkCXpEwY6JKUCQNdkjJhoEtSJgx0ScqEgS5JmTDQJSkTBrokZcJAl6RMGOiSlAkDXZIyYaBLUiYMdEnKhIEuSZkw0CUpEwa6JGXCQJekTBjokpQJA12SMmGgS1ImDHRJyoSBLkmZMNAlKRMGuiRlwkCXpEwY6JKUCQNdkjJhoEtSJgx0ScqEgS5JmTDQJSkTBrokZcJAl6RMGOiSlAkDXZIyYaBLUiYMdEnKhIEuSZkw0CUpEwa6JGXCQJekTBjokpQJA12SMmGgS1ImDHRJyoSBLkmZMNAlKRMGuiRlwkCXpEwY6JKUCQNdkjJhoEtSJgx0ScqEgS5JmTDQJSkTBrokZcJAl6RMGOiSlAkDXZIyYaBLUiYMdEnKhIEuSZkw0CUpEwa6JGXCQJekTBjokpQJA12SMmGgS1ImDHRJyoSBLkmZMNAlKRMGuiRlwkCXpEwY6JKUCQNdkjJhoEtSJgx0ScqEgS5JmTDQJSkTBrokZcJAl6RMGOiSlAkDXZIyYaBLUiYMdEnKhIEuSZkw0CUpEwa6JGXCQJekTBjokpQJA12SMmGgS1ImDHRJyoSBLkmZMNAlKRMGuiRlwkCXpEwY6JKUCQNdkjJhoEtSJgx0ScqEgS5JmTDQJSkTBrokZcJAl6RMGOiSlAkDXZIyYaBLUiYMdEnKhIEuSZkw0CUpEwa6JGXCQJekTBjokpQJA12SMmGgS1ImDHRJyoSBLkmZMNAlKRMGuiRlwkCXpEwY6JKUCQNdkjJhoEtSJgx0ScqEgS5JmTDQJSkTBrokZcJAl6RMGOiSlAkDXZIyYaBLUiYMdEnKhIEuSZkw0CUpEwa6JGXCQJekTBjokpQJA12SMmGgS1ImDHRJyoSBLkmZMNAlKRMGuiRlwkCXpEwY6JKUCQNdkjJhoEtSJgx0ScqEgS5JmTDQJSkTBrokZcJAl6RMGOiSlAkDXZIyYaBLUiYMdEnKhIEuSZkw0CUpEwa6JGXCQJekTBjokpQJA12SMmGgS1ImDHRJyoSBLkmZMNAlKRMGuiRlwkCXpEwY6JKUCQNdkjJhoEtSJgx0ScqEgS5JmTDQJSkTBrokZcJAl6RMGOiSlAkDXZIyYaBLUiYMdEnKhIEuSZkw0CUpEwa6JGXCQJekTBjokpQJA12SMmGgS1ImDHRJyoSBLkmZMNAlKRMGuiRlwkCXpEwY6JKUCQNdkjJhoEtSJgx0ScqEgS5JmTDQJSkTBrokZcJAl6RMGOiSlAkDXZIyYaBLUiYMdEnKhIEuSZkw0CUpEwa6JGXCQJekTBjokpQJA12SMmGgS1ImDHRJyoSBLkmZMNAlKRMGuiRlwkCXpEwY6JKUCQNdkjJhoEtSJgx0ScqEgS5JmTDQJSkTBrokZcJAl6RMGOiSlAkDXZIyYaBLUiYMdEnKhIEuSZkw0CUpEwa6JGXCQJekTBjokpQJA12SMmGgS1ImDHRJyoSBLkmZMNAlKRMGuiRlwkCXpEwY6JKUCQNdkrIQwv8H0uBQbjzpYdEAAAAASUVORK5CYII=;imageBorder=#33FF33;fillColor=#d5e8d4;strokeColor=#82b366;" parent="WIyWlLk6GJQsqaUBKTNV-1" vertex="1">
          <mxGeometry x="640" y="950" width="160" height="280" as="geometry" />
        </mxCell>
        <mxCell id="KWgbuxi52lWq2ZlGSnJL-65" style="edgeStyle=orthogonalEdgeStyle;rounded=0;orthogonalLoop=1;jettySize=auto;html=1;entryX=1;entryY=0.5;entryDx=0;entryDy=0;fillColor=#d5e8d4;strokeColor=#33FF33;strokeWidth=3;" parent="WIyWlLk6GJQsqaUBKTNV-1" source="KWgbuxi52lWq2ZlGSnJL-64" target="KWgbuxi52lWq2ZlGSnJL-1" edge="1">
          <mxGeometry relative="1" as="geometry">
            <Array as="points">
              <mxPoint x="910" y="1350" />
              <mxPoint x="910" y="180" />
            </Array>
          </mxGeometry>
        </mxCell>
        <mxCell id="KWgbuxi52lWq2ZlGSnJL-66" style="edgeStyle=orthogonalEdgeStyle;rounded=0;orthogonalLoop=1;jettySize=auto;html=1;entryX=0;entryY=0.5;entryDx=0;entryDy=0;fillColor=#d5e8d4;strokeColor=#33FF33;strokeWidth=3;" parent="WIyWlLk6GJQsqaUBKTNV-1" source="KWgbuxi52lWq2ZlGSnJL-64" target="KWgbuxi52lWq2ZlGSnJL-1" edge="1">
          <mxGeometry relative="1" as="geometry">
            <Array as="points">
              <mxPoint x="-160" y="1350" />
              <mxPoint x="-160" y="180" />
            </Array>
          </mxGeometry>
        </mxCell>
        <mxCell id="KWgbuxi52lWq2ZlGSnJL-64" value="&lt;div&gt;&lt;u&gt;&lt;b&gt;GO TO PROFILE PAGE&lt;br&gt;&lt;/b&gt;&lt;/u&gt;&lt;br&gt;&lt;font style=&quot;font-size: 13px;&quot;&gt;button CTA&lt;/font&gt;&lt;/div&gt;" style="whiteSpace=wrap;html=1;fillColor=#CCFFCC;strokeColor=#82b366;" parent="WIyWlLk6GJQsqaUBKTNV-1" vertex="1">
          <mxGeometry x="280" y="1310" width="160" height="80" as="geometry" />
        </mxCell>
        <mxCell id="KWgbuxi52lWq2ZlGSnJL-68" value="Existing" style="shape=parallelogram;perimeter=parallelogramPerimeter;whiteSpace=wrap;html=1;fixedSize=1;fillColor=#dae8fc;strokeColor=#6c8ebf;" parent="WIyWlLk6GJQsqaUBKTNV-1" vertex="1">
          <mxGeometry x="970" y="100" width="130" height="40" as="geometry" />
        </mxCell>
        <mxCell id="KWgbuxi52lWq2ZlGSnJL-69" value="Dependancy" style="shape=parallelogram;perimeter=parallelogramPerimeter;whiteSpace=wrap;html=1;fixedSize=1;fillColor=#fff2cc;strokeColor=#d6b656;" parent="WIyWlLk6GJQsqaUBKTNV-1" vertex="1">
          <mxGeometry x="970" y="150" width="120" height="40" as="geometry" />
        </mxCell>
        <mxCell id="KWgbuxi52lWq2ZlGSnJL-70" value="Development" style="shape=parallelogram;perimeter=parallelogramPerimeter;whiteSpace=wrap;html=1;fixedSize=1;fillColor=#d5e8d4;strokeColor=#82b366;" parent="WIyWlLk6GJQsqaUBKTNV-1" vertex="1">
          <mxGeometry x="970" y="200" width="120" height="40" as="geometry" />
        </mxCell>
        <mxCell id="KWgbuxi52lWq2ZlGSnJL-73" value="" style="shape=flexArrow;endArrow=classic;html=1;rounded=0;width=23;endSize=9.09;endWidth=39;fillColor=#33FF33;strokeColor=#33FF33;" parent="WIyWlLk6GJQsqaUBKTNV-1" edge="1">
          <mxGeometry width="50" height="50" relative="1" as="geometry">
            <mxPoint x="970" y="289.5" as="sourcePoint" />
            <mxPoint x="1080" y="290" as="targetPoint" />
            <Array as="points">
              <mxPoint x="990" y="289.5" />
            </Array>
          </mxGeometry>
        </mxCell>
        <mxCell id="KWgbuxi52lWq2ZlGSnJL-78" value="&lt;font style=&quot;font-size: 15px;&quot;&gt;CTA&lt;/font&gt;" style="edgeLabel;html=1;align=center;verticalAlign=middle;resizable=0;points=[];labelBackgroundColor=#00FF00;fontColor=#000000;fontStyle=1;fontSize=15;" parent="KWgbuxi52lWq2ZlGSnJL-73" vertex="1" connectable="0">
          <mxGeometry x="0.0286" y="-1" relative="1" as="geometry">
            <mxPoint as="offset" />
          </mxGeometry>
        </mxCell>
        <mxCell id="KWgbuxi52lWq2ZlGSnJL-79" value="" style="rounded=0;whiteSpace=wrap;html=1;fillColor=none;strokeColor=#00FF00;strokeWidth=3;" parent="WIyWlLk6GJQsqaUBKTNV-1" vertex="1">
          <mxGeometry x="960" y="90" width="150" height="440" as="geometry" />
        </mxCell>
        <mxCell id="KWgbuxi52lWq2ZlGSnJL-80" value="&lt;a style=&quot;color: rgb(0, 101, 255); text-decoration: var(--aui-link-hover-decoration); cursor: pointer; font-family: -apple-system, BlinkMacSystemFont, &amp;quot;Segoe UI&amp;quot;, Roboto, Oxygen, Ubuntu, &amp;quot;Fira Sans&amp;quot;, &amp;quot;Droid Sans&amp;quot;, &amp;quot;Helvetica Neue&amp;quot;, sans-serif; font-size: 14px; text-align: left; background-color: rgb(240, 240, 240);&quot; href=&quot;https://deljira/browse/USCC-23214&quot;&gt;USCC-23214&lt;/a&gt;&lt;br&gt;Sanchit" style="ellipse;shape=cloud;whiteSpace=wrap;html=1;fillColor=#fff2cc;strokeColor=#d6b656;" parent="WIyWlLk6GJQsqaUBKTNV-1" vertex="1">
          <mxGeometry x="615" y="240" width="120" height="80" as="geometry" />
        </mxCell>
        <mxCell id="KWgbuxi52lWq2ZlGSnJL-81" value="&lt;a style=&quot;color: rgb(0, 82, 204); text-decoration: var(--aui-link-decoration); cursor: pointer; font-family: -apple-system, BlinkMacSystemFont, &amp;quot;Segoe UI&amp;quot;, Roboto, Oxygen, Ubuntu, &amp;quot;Fira Sans&amp;quot;, &amp;quot;Droid Sans&amp;quot;, &amp;quot;Helvetica Neue&amp;quot;, sans-serif; font-size: 14px; text-align: left; background-color: rgb(240, 240, 240);&quot; href=&quot;https://deljira/browse/USCC-11497&quot;&gt;USCC-11497&lt;/a&gt;&lt;br&gt;Avnish" style="ellipse;shape=cloud;whiteSpace=wrap;html=1;fillColor=#fff2cc;strokeColor=#d6b656;" parent="WIyWlLk6GJQsqaUBKTNV-1" vertex="1">
          <mxGeometry x="610" y="370" width="130" height="90" as="geometry" />
        </mxCell>
        <mxCell id="KWgbuxi52lWq2ZlGSnJL-82" value="&lt;a style=&quot;color: rgb(0, 82, 204); text-decoration: var(--aui-link-decoration); cursor: pointer; font-family: -apple-system, BlinkMacSystemFont, &amp;quot;Segoe UI&amp;quot;, Roboto, Oxygen, Ubuntu, &amp;quot;Fira Sans&amp;quot;, &amp;quot;Droid Sans&amp;quot;, &amp;quot;Helvetica Neue&amp;quot;, sans-serif; font-size: 14px; text-align: left; background-color: rgb(240, 240, 240);&quot; href=&quot;https://deljira/browse/USCC-23349&quot;&gt;USCC-23349&lt;/a&gt;&lt;br&gt;Dror&#39;s Team" style="ellipse;shape=cloud;whiteSpace=wrap;html=1;fillColor=#fff2cc;strokeColor=#d6b656;" parent="WIyWlLk6GJQsqaUBKTNV-1" vertex="1">
          <mxGeometry x="600" y="575" width="140" height="90" as="geometry" />
        </mxCell>
        <mxCell id="KWgbuxi52lWq2ZlGSnJL-83" value="If Success Response" style="whiteSpace=wrap;html=1;fillColor=#d5e8d4;strokeColor=#82b366;rounded=1;glass=1;shadow=1;" parent="WIyWlLk6GJQsqaUBKTNV-1" vertex="1">
          <mxGeometry x="-60" y="840" width="120" height="60" as="geometry" />
        </mxCell>
        <mxCell id="KWgbuxi52lWq2ZlGSnJL-84" value="If Success Response" style="whiteSpace=wrap;html=1;fillColor=#d5e8d4;strokeColor=#82b366;rounded=1;glass=1;shadow=1;" parent="WIyWlLk6GJQsqaUBKTNV-1" vertex="1">
          <mxGeometry x="180" y="840" width="120" height="60" as="geometry" />
        </mxCell>
        <mxCell id="KWgbuxi52lWq2ZlGSnJL-85" value="If Success Response" style="whiteSpace=wrap;html=1;fillColor=#d5e8d4;strokeColor=#82b366;rounded=1;glass=1;shadow=1;" parent="WIyWlLk6GJQsqaUBKTNV-1" vertex="1">
          <mxGeometry x="420" y="840" width="120" height="60" as="geometry" />
        </mxCell>
        <mxCell id="KWgbuxi52lWq2ZlGSnJL-86" value="If Success Response" style="whiteSpace=wrap;html=1;fillColor=#d5e8d4;strokeColor=#82b366;rounded=1;glass=1;shadow=1;" parent="WIyWlLk6GJQsqaUBKTNV-1" vertex="1">
          <mxGeometry x="660" y="840" width="120" height="60" as="geometry" />
        </mxCell>
        <mxCell id="KWgbuxi52lWq2ZlGSnJL-88" value="" style="rounded=0;whiteSpace=wrap;html=1;fillColor=none;dashed=1;strokeColor=#000000;dashPattern=12 12;strokeWidth=1;" parent="WIyWlLk6GJQsqaUBKTNV-1" vertex="1">
          <mxGeometry y="240" width="830" height="90" as="geometry" />
        </mxCell>
        <mxCell id="KWgbuxi52lWq2ZlGSnJL-90" value="" style="rounded=0;whiteSpace=wrap;html=1;dashed=1;dashPattern=12 12;fillColor=none;gradientColor=none;strokeColor=#FF00FF;strokeWidth=1;" parent="WIyWlLk6GJQsqaUBKTNV-1" vertex="1">
          <mxGeometry y="370" width="830" height="90" as="geometry" />
        </mxCell>
        <mxCell id="KWgbuxi52lWq2ZlGSnJL-91" value="" style="rounded=0;whiteSpace=wrap;html=1;fillColor=none;dashed=1;strokeColor=#FF0000;dashPattern=12 12;strokeWidth=1;" parent="WIyWlLk6GJQsqaUBKTNV-1" vertex="1">
          <mxGeometry x="-120" y="480" width="1010" height="340" as="geometry" />
        </mxCell>
        <mxCell id="KWgbuxi52lWq2ZlGSnJL-92" value="Sanchit" style="rounded=0;whiteSpace=wrap;html=1;fillColor=none;dashed=1;strokeColor=#000000;dashPattern=12 12;strokeWidth=1;" parent="WIyWlLk6GJQsqaUBKTNV-1" vertex="1">
          <mxGeometry x="975" y="330" width="95" height="40" as="geometry" />
        </mxCell>
        <mxCell id="KWgbuxi52lWq2ZlGSnJL-93" value="Avnish" style="rounded=0;whiteSpace=wrap;html=1;dashed=1;dashPattern=12 12;fillColor=none;gradientColor=none;strokeColor=#FF00FF;strokeWidth=1;" parent="WIyWlLk6GJQsqaUBKTNV-1" vertex="1">
          <mxGeometry x="975" y="400" width="95" height="40" as="geometry" />
        </mxCell>
        <mxCell id="KWgbuxi52lWq2ZlGSnJL-94" value="Dror" style="rounded=0;whiteSpace=wrap;html=1;fillColor=none;dashed=1;strokeColor=#FF0000;dashPattern=12 12;strokeWidth=1;" parent="WIyWlLk6GJQsqaUBKTNV-1" vertex="1">
          <mxGeometry x="977.5" y="460" width="90" height="40" as="geometry" />
        </mxCell>
        <mxCell id="5if4ORg1gCNdznczgkPr-4" value="API" style="swimlane;fontStyle=0;childLayout=stackLayout;horizontal=1;startSize=30;horizontalStack=0;resizeParent=1;resizeParentMax=0;resizeLast=0;collapsible=1;marginBottom=0;whiteSpace=wrap;html=1;fillColor=#f5f5f5;fontColor=#333333;strokeColor=#666666;" parent="WIyWlLk6GJQsqaUBKTNV-1" vertex="1">
          <mxGeometry x="960" y="545" width="550" height="240" as="geometry" />
        </mxCell>
        <mxCell id="5if4ORg1gCNdznczgkPr-6" value="http://illnqw2099:12050/rp-server/care/v1/&lt;font color=&quot;#ff00ff&quot;&gt;&lt;b&gt;&lt;u&gt;validateAddress&lt;/u&gt;&lt;/b&gt;&lt;/font&gt;?salesChannel=WR" style="text;strokeColor=#666666;fillColor=#f5f5f5;align=left;verticalAlign=middle;spacingLeft=4;spacingRight=4;overflow=hidden;points=[[0,0.5],[1,0.5]];portConstraint=eastwest;rotatable=0;whiteSpace=wrap;html=1;fontColor=#333333;" parent="5if4ORg1gCNdznczgkPr-4" vertex="1">
          <mxGeometry y="30" width="550" height="60" as="geometry" />
        </mxCell>
        <mxCell id="5if4ORg1gCNdznczgkPr-5" value="http://illnqw2099:12050/rp-server/care/v1/customer/100000624/&lt;font color=&quot;#ff00ff&quot;&gt;&lt;b&gt;&lt;u&gt;accountProfileAddressX9&lt;/u&gt;&lt;/b&gt;&lt;/font&gt;?salesChannel=WR" style="text;strokeColor=default;fillColor=none;align=left;verticalAlign=middle;spacingLeft=4;spacingRight=4;overflow=hidden;points=[[0,0.5],[1,0.5]];portConstraint=eastwest;rotatable=0;whiteSpace=wrap;html=1;" parent="5if4ORg1gCNdznczgkPr-4" vertex="1">
          <mxGeometry y="90" width="550" height="70" as="geometry" />
        </mxCell>
        <mxCell id="5if4ORg1gCNdznczgkPr-7" value="http://illnqw2099:12050/rp-server/care/v1/user/customer/100000624/&lt;b&gt;&lt;u&gt;&lt;font color=&quot;#ff00ff&quot;&gt;assembleUserProfileAccountDetailsX9&lt;/font&gt;&lt;/u&gt;&lt;/b&gt;?salesChannel=WR" style="text;strokeColor=default;fillColor=none;align=left;verticalAlign=middle;spacingLeft=4;spacingRight=4;overflow=hidden;points=[[0,0.5],[1,0.5]];portConstraint=eastwest;rotatable=0;whiteSpace=wrap;html=1;" parent="5if4ORg1gCNdznczgkPr-4" vertex="1">
          <mxGeometry y="160" width="550" height="80" as="geometry" />
        </mxCell>
        <mxCell id="UKE3LF2oUU9fScmGRMiw-4" value="&lt;b style=&quot;border-color: var(--border-color); color: rgb(255, 0, 255); text-align: left;&quot;&gt;&lt;u style=&quot;border-color: var(--border-color);&quot;&gt;validateAddress&lt;/u&gt;&lt;/b&gt;" style="swimlane;fontStyle=0;childLayout=stackLayout;horizontal=1;startSize=30;horizontalStack=0;resizeParent=1;resizeParentMax=0;resizeLast=0;collapsible=1;marginBottom=0;whiteSpace=wrap;html=1;" vertex="1" parent="WIyWlLk6GJQsqaUBKTNV-1">
          <mxGeometry x="1630" y="260" width="340" height="410" as="geometry" />
        </mxCell>
        <mxCell id="UKE3LF2oUU9fScmGRMiw-5" value="&lt;ol style=&quot;box-sizing: border-box; min-width: 0px; min-height: 0px; list-style-type: none; padding-left: 10px; color: rgb(32, 33, 36); font-family: consolas, &amp;quot;lucida console&amp;quot;, &amp;quot;courier new&amp;quot;, monospace;&quot; role=&quot;group&quot; class=&quot;children expanded&quot;&gt;&lt;li style=&quot;box-sizing: border-box; min-width: 0px; min-height: 12px; text-overflow: ellipsis; position: relative; display: block; align-items: center; user-select: text; padding-left: 5px; line-height: 20px; margin-top: 1px; margin-left: 10px;&quot; data-object-property-name-for-test=&quot;city&quot; role=&quot;treeitem&quot;&gt;{&quot;formattedAddress1&quot;:&quot;31 Pine Street&quot;,&lt;/li&gt;&lt;li style=&quot;box-sizing: border-box; min-width: 0px; min-height: 12px; text-overflow: ellipsis; position: relative; display: block; align-items: center; user-select: text; padding-left: 5px; line-height: 20px; margin-top: 1px; margin-left: 10px;&quot; data-object-property-name-for-test=&quot;city&quot; role=&quot;treeitem&quot;&gt;&quot;formattedAddress2&quot;:&quot;fswefr&quot;,&lt;/li&gt;&lt;li style=&quot;box-sizing: border-box; min-width: 0px; min-height: 12px; text-overflow: ellipsis; position: relative; display: block; align-items: center; user-select: text; padding-left: 5px; line-height: 20px; margin-top: 1px; margin-left: 10px;&quot; data-object-property-name-for-test=&quot;city&quot; role=&quot;treeitem&quot;&gt;&quot;city&quot;:&quot;Shelton&quot;,&lt;/li&gt;&lt;li style=&quot;box-sizing: border-box; min-width: 0px; min-height: 12px; text-overflow: ellipsis; position: relative; display: block; align-items: center; user-select: text; padding-left: 5px; line-height: 20px; margin-top: 1px; margin-left: 10px;&quot; data-object-property-name-for-test=&quot;city&quot; role=&quot;treeitem&quot;&gt;&quot;stateOrProvince&quot;:&quot;WA&quot;,&lt;/li&gt;&lt;li style=&quot;box-sizing: border-box; min-width: 0px; min-height: 12px; text-overflow: ellipsis; position: relative; display: block; align-items: center; user-select: text; padding-left: 5px; line-height: 20px; margin-top: 1px; margin-left: 10px;&quot; data-object-property-name-for-test=&quot;city&quot; role=&quot;treeitem&quot;&gt;&quot;zipCode&quot;:&quot;98584&quot;}&lt;br&gt;&lt;/li&gt;&lt;/ol&gt;" style="text;strokeColor=default;fillColor=none;align=left;verticalAlign=middle;spacingLeft=4;spacingRight=4;overflow=hidden;points=[[0,0.5],[1,0.5]];portConstraint=eastwest;rotatable=0;whiteSpace=wrap;html=1;" vertex="1" parent="UKE3LF2oUU9fScmGRMiw-4">
          <mxGeometry y="30" width="340" height="130" as="geometry" />
        </mxCell>
        <mxCell id="UKE3LF2oUU9fScmGRMiw-6" value="{&quot;validatedAddressX9&quot;:{&quot;city&quot;:&quot;Shelton&quot;,&lt;br&gt;&quot;country&quot;:&quot;US&quot;,&lt;br&gt;&quot;displayCountry&quot;:&quot;USA&quot;,&lt;br&gt;&quot;stateOrProvince&quot;:&quot;WA&quot;,&lt;br&gt;&quot;street&quot;:&quot;Pine&quot;,&lt;br&gt;&quot;buildingNumber&quot;:&quot;4&quot;,&lt;br&gt;&quot;formattedAddress1&quot;:&quot;31 Pine Street&quot;,&lt;br&gt;&quot;formattedAddress2&quot;:&quot;fswefr&quot;,&lt;br&gt;&quot;addressStatus&quot;:&quot;valid&quot;,&lt;br&gt;&quot;zipCode&quot;:&quot;98584&quot;,&lt;br&gt;&quot;addressType&quot;:&quot;ST&quot;,&lt;br&gt;&quot;geoCode&quot;:&quot;480450680&quot;,&lt;br&gt;&quot;incorporatedIndicator&quot;:&quot;I&quot;,&lt;br&gt;&quot;poBoxInd&quot;:false},&lt;br&gt;&quot;validationStatusX9&quot;:&quot;Exact Match&quot;}" style="text;strokeColor=none;fillColor=none;align=left;verticalAlign=middle;spacingLeft=4;spacingRight=4;overflow=hidden;points=[[0,0.5],[1,0.5]];portConstraint=eastwest;rotatable=0;whiteSpace=wrap;html=1;" vertex="1" parent="UKE3LF2oUU9fScmGRMiw-4">
          <mxGeometry y="160" width="340" height="250" as="geometry" />
        </mxCell>
        <mxCell id="UKE3LF2oUU9fScmGRMiw-8" style="edgeStyle=orthogonalEdgeStyle;rounded=0;orthogonalLoop=1;jettySize=auto;html=1;entryX=0.003;entryY=0.039;entryDx=0;entryDy=0;entryPerimeter=0;" edge="1" parent="WIyWlLk6GJQsqaUBKTNV-1" source="5if4ORg1gCNdznczgkPr-6" target="UKE3LF2oUU9fScmGRMiw-4">
          <mxGeometry relative="1" as="geometry" />
        </mxCell>
        <mxCell id="UKE3LF2oUU9fScmGRMiw-15" value="&lt;b style=&quot;border-color: var(--border-color); color: rgb(255, 0, 255); text-align: left;&quot;&gt;&lt;u style=&quot;border-color: var(--border-color);&quot;&gt;accountProfileAddressX9&lt;/u&gt;&lt;/b&gt;" style="swimlane;fontStyle=0;childLayout=stackLayout;horizontal=1;startSize=30;horizontalStack=0;resizeParent=1;resizeParentMax=0;resizeLast=0;collapsible=1;marginBottom=0;whiteSpace=wrap;html=1;" vertex="1" parent="WIyWlLk6GJQsqaUBKTNV-1">
          <mxGeometry x="1790" y="720" width="530" height="360" as="geometry" />
        </mxCell>
        <mxCell id="UKE3LF2oUU9fScmGRMiw-16" value="&lt;ol style=&quot;box-sizing: border-box; min-width: 0px; min-height: 0px; list-style-type: none; padding-left: 10px; color: rgb(32, 33, 36); font-family: consolas, &amp;quot;lucida console&amp;quot;, &amp;quot;courier new&amp;quot;, monospace;&quot; role=&quot;group&quot; class=&quot;children expanded&quot;&gt;&lt;li style=&quot;box-sizing: border-box; min-width: 0px; min-height: 12px; text-overflow: ellipsis; position: relative; display: block; align-items: center; user-select: text; padding-left: 5px; line-height: 20px; margin-top: 1px; margin-left: 10px;&quot; data-object-property-name-for-test=&quot;city&quot; role=&quot;treeitem&quot;&gt;&lt;ol style=&quot;border-color: var(--border-color); box-sizing: border-box; min-width: 0px; min-height: 0px; list-style-type: none; padding-left: 10px;&quot; role=&quot;group&quot; class=&quot;children expanded&quot;&gt;&lt;li style=&quot;border-color: var(--border-color); box-sizing: border-box; min-width: 0px; min-height: 12px; text-overflow: ellipsis; position: relative; display: block; align-items: center; user-select: text; padding-left: 5px; line-height: 20px; margin-top: 1px; margin-left: 10px;&quot; data-object-property-name-for-test=&quot;city&quot; role=&quot;treeitem&quot;&gt;{&quot;address&quot;:&amp;nbsp;&lt;/li&gt;&lt;ol style=&quot;border-color: var(--border-color);&quot;&gt;&lt;li style=&quot;border-color: var(--border-color); box-sizing: border-box; min-width: 0px; min-height: 12px; text-overflow: ellipsis; position: relative; display: block; align-items: center; user-select: text; padding-left: 5px; line-height: 20px; margin-top: 1px; margin-left: 10px;&quot; data-object-property-name-for-test=&quot;city&quot; role=&quot;treeitem&quot;&gt;{&quot;city&quot;:&quot;Shelton&quot;,&quot;country&quot;:&quot;US&quot;,&quot;displayCountry&quot;:&quot;USA&quot;,&lt;/li&gt;&lt;li style=&quot;border-color: var(--border-color); box-sizing: border-box; min-width: 0px; min-height: 12px; text-overflow: ellipsis; position: relative; display: block; align-items: center; user-select: text; padding-left: 5px; line-height: 20px; margin-top: 1px; margin-left: 10px;&quot; data-object-property-name-for-test=&quot;city&quot; role=&quot;treeitem&quot;&gt;&lt;span style=&quot;border-color: var(--border-color); background-color: initial;&quot;&gt;&quot;stateOrProvince&quot;:&quot;WA&quot;,&quot;street&quot;:&quot;Pine&quot;,&lt;/span&gt;&lt;span style=&quot;border-color: var(--border-color); background-color: initial;&quot;&gt;&quot;buildingNumber&quot;:&quot;4&quot;,&lt;/span&gt;&lt;/li&gt;&lt;li style=&quot;border-color: var(--border-color); box-sizing: border-box; min-width: 0px; min-height: 12px; text-overflow: ellipsis; position: relative; display: block; align-items: center; user-select: text; padding-left: 5px; line-height: 20px; margin-top: 1px; margin-left: 10px;&quot; data-object-property-name-for-test=&quot;city&quot; role=&quot;treeitem&quot;&gt;&quot;formattedAddress1&quot;:&quot;31 Pine Street&quot;,&lt;/li&gt;&lt;li style=&quot;border-color: var(--border-color); box-sizing: border-box; min-width: 0px; min-height: 12px; text-overflow: ellipsis; position: relative; display: block; align-items: center; user-select: text; padding-left: 5px; line-height: 20px; margin-top: 1px; margin-left: 10px;&quot; data-object-property-name-for-test=&quot;city&quot; role=&quot;treeitem&quot;&gt;&quot;formattedAddress2&quot;:&quot;fswefr&quot;,&lt;/li&gt;&lt;li style=&quot;border-color: var(--border-color); box-sizing: border-box; min-width: 0px; min-height: 12px; text-overflow: ellipsis; position: relative; display: block; align-items: center; user-select: text; padding-left: 5px; line-height: 20px; margin-top: 1px; margin-left: 10px;&quot; data-object-property-name-for-test=&quot;city&quot; role=&quot;treeitem&quot;&gt;&quot;addressStatus&quot;:&quot;valid&quot;,&quot;zipCode&quot;:&quot;98584&quot;,&lt;/li&gt;&lt;li style=&quot;border-color: var(--border-color); box-sizing: border-box; min-width: 0px; min-height: 12px; text-overflow: ellipsis; position: relative; display: block; align-items: center; user-select: text; padding-left: 5px; line-height: 20px; margin-top: 1px; margin-left: 10px;&quot; data-object-property-name-for-test=&quot;city&quot; role=&quot;treeitem&quot;&gt;&quot;addressType&quot;:&quot;ST&quot;,&quot;geoCode&quot;:&quot;480450680&quot;,&lt;/li&gt;&lt;li style=&quot;border-color: var(--border-color); box-sizing: border-box; min-width: 0px; min-height: 12px; text-overflow: ellipsis; position: relative; display: block; align-items: center; user-select: text; padding-left: 5px; line-height: 20px; margin-top: 1px; margin-left: 10px;&quot; data-object-property-name-for-test=&quot;city&quot; role=&quot;treeitem&quot;&gt;&quot;incorporatedIndicator&quot;:&quot;I&quot;,&quot;poBoxInd&quot;:false},&lt;/li&gt;&lt;/ol&gt;&lt;li style=&quot;border-color: var(--border-color);&quot;&gt;&lt;span style=&quot;border-color: var(--border-color); background-color: initial;&quot;&gt;&quot;addressType&quot;:&quot;Physical&quot;}&lt;/span&gt;&lt;/li&gt;&lt;/ol&gt;&lt;/li&gt;&lt;/ol&gt;" style="text;strokeColor=default;fillColor=none;align=left;verticalAlign=middle;spacingLeft=4;spacingRight=4;overflow=hidden;points=[[0,0.5],[1,0.5]];portConstraint=eastwest;rotatable=0;whiteSpace=wrap;html=1;" vertex="1" parent="UKE3LF2oUU9fScmGRMiw-15">
          <mxGeometry y="30" width="530" height="250" as="geometry" />
        </mxCell>
        <mxCell id="UKE3LF2oUU9fScmGRMiw-17" value="{&quot;status&quot;:&quot;success&quot;}" style="text;strokeColor=none;fillColor=none;align=left;verticalAlign=middle;spacingLeft=4;spacingRight=4;overflow=hidden;points=[[0,0.5],[1,0.5]];portConstraint=eastwest;rotatable=0;whiteSpace=wrap;html=1;" vertex="1" parent="UKE3LF2oUU9fScmGRMiw-15">
          <mxGeometry y="280" width="530" height="80" as="geometry" />
        </mxCell>
        <mxCell id="UKE3LF2oUU9fScmGRMiw-18" value="&lt;b style=&quot;border-color: var(--border-color); text-align: left;&quot;&gt;&lt;u style=&quot;border-color: var(--border-color);&quot;&gt;&lt;font style=&quot;border-color: var(--border-color);&quot; color=&quot;#ff00ff&quot;&gt;assembleUserProfileAccountDetailsX9&lt;/font&gt;&lt;/u&gt;&lt;/b&gt;" style="swimlane;fontStyle=0;childLayout=stackLayout;horizontal=1;startSize=30;horizontalStack=0;resizeParent=1;resizeParentMax=0;resizeLast=0;collapsible=1;marginBottom=0;whiteSpace=wrap;html=1;" vertex="1" parent="WIyWlLk6GJQsqaUBKTNV-1">
          <mxGeometry x="930" y="840" width="840" height="750" as="geometry" />
        </mxCell>
        <mxCell id="UKE3LF2oUU9fScmGRMiw-19" value="&lt;ol style=&quot;box-sizing: border-box; min-width: 0px; min-height: 0px; list-style-type: none; padding-left: 10px; color: rgb(32, 33, 36); font-family: consolas, &amp;quot;lucida console&amp;quot;, &amp;quot;courier new&amp;quot;, monospace;&quot; role=&quot;group&quot; class=&quot;children expanded&quot;&gt;&lt;li style=&quot;box-sizing: border-box; min-width: 0px; min-height: 12px; text-overflow: ellipsis; position: relative; display: block; align-items: center; user-select: text; padding-left: 5px; line-height: 20px; margin-top: 1px; margin-left: 10px;&quot; data-object-property-name-for-test=&quot;city&quot; role=&quot;treeitem&quot;&gt;&lt;ol style=&quot;border-color: var(--border-color); box-sizing: border-box; min-width: 0px; min-height: 0px; list-style-type: none; padding-left: 10px;&quot; role=&quot;group&quot; class=&quot;children expanded&quot;&gt;&lt;li style=&quot;border-color: var(--border-color); box-sizing: border-box; min-width: 0px; min-height: 12px; text-overflow: ellipsis; position: relative; display: block; align-items: center; user-select: text; padding-left: 5px; line-height: 20px; margin-top: 1px; margin-left: 10px;&quot; data-object-property-name-for-test=&quot;city&quot; role=&quot;treeitem&quot;&gt;{&quot;faId&quot;:&quot;500000375&quot;,&quot;userName&quot;:&quot;100000410&quot;}&lt;br&gt;&lt;/li&gt;&lt;/ol&gt;&lt;/li&gt;&lt;/ol&gt;" style="text;strokeColor=default;fillColor=none;align=left;verticalAlign=middle;spacingLeft=4;spacingRight=4;overflow=hidden;points=[[0,0.5],[1,0.5]];portConstraint=eastwest;rotatable=0;whiteSpace=wrap;html=1;" vertex="1" parent="UKE3LF2oUU9fScmGRMiw-18">
          <mxGeometry y="30" width="840" height="60" as="geometry" />
        </mxCell>
        <mxCell id="UKE3LF2oUU9fScmGRMiw-20" value="&lt;ol style=&quot;box-sizing: border-box; min-width: 0px; min-height: 0px; list-style-type: none; padding-left: 12px; color: rgb(32, 33, 36); font-family: consolas, &amp;quot;lucida console&amp;quot;, &amp;quot;courier new&amp;quot;, monospace;&quot; role=&quot;group&quot; class=&quot;children expanded&quot;&gt;&lt;li style=&quot;box-sizing: border-box; min-width: 0px; min-height: 16px; text-overflow: ellipsis; position: relative; display: flex; align-items: center; user-select: text;&quot; aria-expanded=&quot;true&quot; class=&quot;parent expanded&quot; data-object-property-name-for-test=&quot;billingAddress&quot; role=&quot;treeitem&quot;&gt;&lt;span style=&quot;box-sizing: border-box; min-width: 0px; min-height: 0px; flex-shrink: 0;&quot; class=&quot;separator&quot;&gt;&lt;span style=&quot;color: var(--color-syntax-2); background-color: initial;&quot;&gt;{billingAddress: {&lt;/span&gt;&lt;/span&gt;&lt;span style=&quot;box-sizing: border-box; min-width: 0px; min-height: 0px; overflow: hidden; line-height: 16px; display: flex;&quot; class=&quot;name-and-value&quot;&gt;&lt;/span&gt;&lt;/li&gt;&lt;ol style=&quot;box-sizing: border-box; min-width: 0px; min-height: 0px; list-style-type: none; padding-left: 12px;&quot; role=&quot;group&quot; class=&quot;children expanded&quot;&gt;&lt;li style=&quot;box-sizing: border-box; min-width: 0px; min-height: 16px; text-overflow: ellipsis; position: relative; display: flex; align-items: center; user-select: text;&quot; data-object-property-name-for-test=&quot;addressStatus&quot; role=&quot;treeitem&quot;&gt;&lt;span style=&quot;box-sizing: border-box; min-width: 0px; min-height: 0px; overflow: hidden; line-height: 16px; display: flex;&quot; class=&quot;name-and-value&quot;&gt;&lt;span style=&quot;box-sizing: border-box; min-width: 0px; min-height: 0px; color: var(--color-syntax-2); flex-shrink: 0;&quot; title=&quot;billingAddress.addressStatus&quot; class=&quot;name&quot;&gt;addressStatus&lt;/span&gt;&lt;span style=&quot;box-sizing: border-box; min-width: 0px; min-height: 0px; flex-shrink: 0;&quot; class=&quot;separator&quot;&gt;: &lt;/span&gt;&lt;span style=&quot;box-sizing: border-box; min-width: 0px; min-height: 0px; unicode-bidi: -webkit-isolate; color: var(--color-syntax-1);&quot; title=&quot;valid&quot; class=&quot;object-value-string value&quot;&gt;&quot;valid&quot;&lt;/span&gt;&lt;/span&gt;&lt;/li&gt;&lt;li style=&quot;box-sizing: border-box; min-width: 0px; min-height: 16px; text-overflow: ellipsis; position: relative; display: flex; align-items: center; user-select: text;&quot; data-object-property-name-for-test=&quot;city&quot; role=&quot;treeitem&quot;&gt;&lt;span style=&quot;box-sizing: border-box; min-width: 0px; min-height: 0px; overflow: hidden; line-height: 16px; display: flex;&quot; class=&quot;name-and-value&quot;&gt;&lt;span style=&quot;box-sizing: border-box; min-width: 0px; min-height: 0px; color: var(--color-syntax-2); flex-shrink: 0;&quot; title=&quot;billingAddress.city&quot; class=&quot;name&quot;&gt;city&lt;/span&gt;&lt;span style=&quot;box-sizing: border-box; min-width: 0px; min-height: 0px; flex-shrink: 0;&quot; class=&quot;separator&quot;&gt;: &lt;/span&gt;&lt;span style=&quot;box-sizing: border-box; min-width: 0px; min-height: 0px; unicode-bidi: -webkit-isolate; color: var(--color-syntax-1);&quot; title=&quot;Shelton&quot; class=&quot;object-value-string value&quot;&gt;&quot;Shelton&quot;&lt;/span&gt;&lt;/span&gt;&lt;/li&gt;&lt;li style=&quot;box-sizing: border-box; min-width: 0px; min-height: 16px; text-overflow: ellipsis; position: relative; display: flex; align-items: center; user-select: text;&quot; data-object-property-name-for-test=&quot;country&quot; role=&quot;treeitem&quot;&gt;&lt;span style=&quot;box-sizing: border-box; min-width: 0px; min-height: 0px; overflow: hidden; line-height: 16px; display: flex;&quot; class=&quot;name-and-value&quot;&gt;&lt;span style=&quot;box-sizing: border-box; min-width: 0px; min-height: 0px; color: var(--color-syntax-2); flex-shrink: 0;&quot; title=&quot;billingAddress.country&quot; class=&quot;name&quot;&gt;country&lt;/span&gt;&lt;span style=&quot;box-sizing: border-box; min-width: 0px; min-height: 0px; flex-shrink: 0;&quot; class=&quot;separator&quot;&gt;: &lt;/span&gt;&lt;span style=&quot;box-sizing: border-box; min-width: 0px; min-height: 0px; unicode-bidi: -webkit-isolate; color: var(--color-syntax-1);&quot; title=&quot;US&quot; class=&quot;object-value-string value&quot;&gt;&quot;US&quot;&lt;/span&gt;&lt;/span&gt;&lt;/li&gt;&lt;li style=&quot;box-sizing: border-box; min-width: 0px; min-height: 16px; text-overflow: ellipsis; position: relative; display: flex; align-items: center; user-select: text;&quot; data-object-property-name-for-test=&quot;displayCountry&quot; role=&quot;treeitem&quot;&gt;&lt;span style=&quot;box-sizing: border-box; min-width: 0px; min-height: 0px; overflow: hidden; line-height: 16px; display: flex;&quot; class=&quot;name-and-value&quot;&gt;&lt;span style=&quot;box-sizing: border-box; min-width: 0px; min-height: 0px; color: var(--color-syntax-2); flex-shrink: 0;&quot; title=&quot;billingAddress.displayCountry&quot; class=&quot;name&quot;&gt;displayCountry&lt;/span&gt;&lt;span style=&quot;box-sizing: border-box; min-width: 0px; min-height: 0px; flex-shrink: 0;&quot; class=&quot;separator&quot;&gt;: &lt;/span&gt;&lt;span style=&quot;box-sizing: border-box; min-width: 0px; min-height: 0px; unicode-bidi: -webkit-isolate; color: var(--color-syntax-1);&quot; title=&quot;USA&quot; class=&quot;object-value-string value&quot;&gt;&quot;USA&quot;&lt;/span&gt;&lt;/span&gt;&lt;/li&gt;&lt;li style=&quot;box-sizing: border-box; min-width: 0px; min-height: 16px; text-overflow: ellipsis; position: relative; display: flex; align-items: center; user-select: text;&quot; data-object-property-name-for-test=&quot;formattedAddress1&quot; role=&quot;treeitem&quot;&gt;&lt;span style=&quot;box-sizing: border-box; min-width: 0px; min-height: 0px; overflow: hidden; line-height: 16px; display: flex;&quot; class=&quot;name-and-value&quot;&gt;&lt;span style=&quot;box-sizing: border-box; min-width: 0px; min-height: 0px; color: var(--color-syntax-2); flex-shrink: 0;&quot; title=&quot;billingAddress.formattedAddress1&quot; class=&quot;name&quot;&gt;formattedAddress1&lt;/span&gt;&lt;span style=&quot;box-sizing: border-box; min-width: 0px; min-height: 0px; flex-shrink: 0;&quot; class=&quot;separator&quot;&gt;: &lt;/span&gt;&lt;span style=&quot;box-sizing: border-box; min-width: 0px; min-height: 0px; unicode-bidi: -webkit-isolate; color: var(--color-syntax-1);&quot; title=&quot;31 Pine Street&quot; class=&quot;object-value-string value&quot;&gt;&quot;31 Pine Street&quot;&lt;/span&gt;&lt;/span&gt;&lt;/li&gt;&lt;li style=&quot;box-sizing: border-box; min-width: 0px; min-height: 16px; text-overflow: ellipsis; position: relative; display: flex; align-items: center; user-select: text;&quot; data-object-property-name-for-test=&quot;formattedAddress2&quot; role=&quot;treeitem&quot;&gt;&lt;span style=&quot;box-sizing: border-box; min-width: 0px; min-height: 0px; overflow: hidden; line-height: 16px; display: flex;&quot; class=&quot;name-and-value&quot;&gt;&lt;span style=&quot;box-sizing: border-box; min-width: 0px; min-height: 0px; color: var(--color-syntax-2); flex-shrink: 0;&quot; title=&quot;billingAddress.formattedAddress2&quot; class=&quot;name&quot;&gt;formattedAddress2&lt;/span&gt;&lt;span style=&quot;box-sizing: border-box; min-width: 0px; min-height: 0px; flex-shrink: 0;&quot; class=&quot;separator&quot;&gt;: &lt;/span&gt;&lt;span style=&quot;box-sizing: border-box; min-width: 0px; min-height: 0px; unicode-bidi: -webkit-isolate; color: var(--color-syntax-1);&quot; title=&quot;GD&quot; class=&quot;object-value-string value&quot;&gt;&quot;GD&quot;&lt;/span&gt;&lt;/span&gt;&lt;/li&gt;&lt;li style=&quot;box-sizing: border-box; min-width: 0px; min-height: 16px; text-overflow: ellipsis; position: relative; display: flex; align-items: center; user-select: text;&quot; data-object-property-name-for-test=&quot;id&quot; role=&quot;treeitem&quot;&gt;&lt;span style=&quot;box-sizing: border-box; min-width: 0px; min-height: 0px; overflow: hidden; line-height: 16px; display: flex;&quot; class=&quot;name-and-value&quot;&gt;&lt;span style=&quot;box-sizing: border-box; min-width: 0px; min-height: 0px; color: var(--color-syntax-2); flex-shrink: 0;&quot; title=&quot;billingAddress.id&quot; class=&quot;name&quot;&gt;id&lt;/span&gt;&lt;span style=&quot;box-sizing: border-box; min-width: 0px; min-height: 0px; flex-shrink: 0;&quot; class=&quot;separator&quot;&gt;: &lt;/span&gt;&lt;span style=&quot;box-sizing: border-box; min-width: 0px; min-height: 0px; unicode-bidi: -webkit-isolate; color: var(--color-syntax-1);&quot; title=&quot;268449151&quot; class=&quot;object-value-string value&quot;&gt;&quot;268449151&quot;&lt;/span&gt;&lt;/span&gt;&lt;/li&gt;&lt;li style=&quot;box-sizing: border-box; min-width: 0px; min-height: 16px; text-overflow: ellipsis; position: relative; display: flex; align-items: center; user-select: text;&quot; data-object-property-name-for-test=&quot;stateOrProvince&quot; role=&quot;treeitem&quot;&gt;&lt;span style=&quot;box-sizing: border-box; min-width: 0px; min-height: 0px; overflow: hidden; line-height: 16px; display: flex;&quot; class=&quot;name-and-value&quot;&gt;&lt;span style=&quot;box-sizing: border-box; min-width: 0px; min-height: 0px; color: var(--color-syntax-2); flex-shrink: 0;&quot; title=&quot;billingAddress.stateOrProvince&quot; class=&quot;name&quot;&gt;stateOrProvince&lt;/span&gt;&lt;span style=&quot;box-sizing: border-box; min-width: 0px; min-height: 0px; flex-shrink: 0;&quot; class=&quot;separator&quot;&gt;: &lt;/span&gt;&lt;span style=&quot;box-sizing: border-box; min-width: 0px; min-height: 0px; unicode-bidi: -webkit-isolate; color: var(--color-syntax-1);&quot; title=&quot;WA&quot; class=&quot;object-value-string value&quot;&gt;&quot;WA&quot;&lt;/span&gt;&lt;/span&gt;&lt;/li&gt;&lt;li style=&quot;box-sizing: border-box; min-width: 0px; min-height: 16px; text-overflow: ellipsis; position: relative; display: flex; align-items: center; user-select: text;&quot; data-object-property-name-for-test=&quot;zipCode&quot; role=&quot;treeitem&quot;&gt;&lt;span style=&quot;box-sizing: border-box; min-width: 0px; min-height: 0px; overflow: hidden; line-height: 16px; display: flex;&quot; class=&quot;name-and-value&quot;&gt;&lt;span style=&quot;box-sizing: border-box; min-width: 0px; min-height: 0px; color: var(--color-syntax-2); flex-shrink: 0;&quot; title=&quot;billingAddress.zipCode&quot; class=&quot;name&quot;&gt;zipCode&lt;/span&gt;&lt;span style=&quot;box-sizing: border-box; min-width: 0px; min-height: 0px; flex-shrink: 0;&quot; class=&quot;separator&quot;&gt;: &lt;/span&gt;&lt;span style=&quot;box-sizing: border-box; min-width: 0px; min-height: 0px; unicode-bidi: -webkit-isolate; color: var(--color-syntax-1);&quot; title=&quot;04344&quot; class=&quot;object-value-string value&quot;&gt;&quot;04344&quot;&lt;/span&gt;&lt;/span&gt;&lt;/li&gt;&lt;li style=&quot;box-sizing: border-box; min-width: 0px; min-height: 16px; text-overflow: ellipsis; position: relative; display: flex; align-items: center; user-select: text;&quot; data-object-property-name-for-test=&quot;zipCode&quot; role=&quot;treeitem&quot;&gt;&lt;span style=&quot;box-sizing: border-box; min-width: 0px; min-height: 0px; unicode-bidi: -webkit-isolate; color: var(--color-syntax-1);&quot; title=&quot;04344&quot; class=&quot;object-value-string value&quot;&gt;}&lt;/span&gt;&lt;/li&gt;&lt;/ol&gt;&lt;li style=&quot;box-sizing: border-box; min-width: 0px; min-height: 16px; text-overflow: ellipsis; position: relative; display: flex; align-items: center; user-select: text;&quot; aria-expanded=&quot;true&quot; class=&quot;parent expanded&quot; data-object-property-name-for-test=&quot;customerAddress&quot; role=&quot;treeitem&quot;&gt;&lt;span style=&quot;box-sizing: border-box; min-width: 0px; min-height: 0px; overflow: hidden; line-height: 16px; display: flex;&quot; class=&quot;name-and-value&quot;&gt;&lt;span style=&quot;box-sizing: border-box; min-width: 0px; min-height: 0px; color: var(--color-syntax-2); flex-shrink: 0;&quot; title=&quot;customerAddress&quot; class=&quot;name&quot;&gt;customerAddress&lt;/span&gt;&lt;span style=&quot;box-sizing: border-box; min-width: 0px; min-height: 0px; flex-shrink: 0;&quot; class=&quot;separator&quot;&gt;: &lt;/span&gt;&lt;span style=&quot;box-sizing: border-box; min-width: 0px; min-height: 0px;&quot; title=&quot;{id: &amp;quot;268448793&amp;quot;, city: &amp;quot;Shelton&amp;quot;, country: &amp;quot;US&amp;quot;, displayCountry: &amp;quot;USA&amp;quot;, stateOrProvince: &amp;quot;WA&amp;quot;,…}&quot; class=&quot;object-value-object value&quot;&gt;{&lt;/span&gt;&lt;/span&gt;&lt;/li&gt;&lt;ol style=&quot;box-sizing: border-box; min-width: 0px; min-height: 0px; list-style-type: none; padding-left: 12px;&quot; role=&quot;group&quot; class=&quot;children expanded&quot;&gt;&lt;li style=&quot;box-sizing: border-box; min-width: 0px; min-height: 16px; text-overflow: ellipsis; position: relative; display: flex; align-items: center; user-select: text;&quot; data-object-property-name-for-test=&quot;addressStatus&quot; role=&quot;treeitem&quot;&gt;&lt;span style=&quot;box-sizing: border-box; min-width: 0px; min-height: 0px; overflow: hidden; line-height: 16px; display: flex;&quot; class=&quot;name-and-value&quot;&gt;&lt;span style=&quot;box-sizing: border-box; min-width: 0px; min-height: 0px; color: var(--color-syntax-2); flex-shrink: 0;&quot; title=&quot;customerAddress.addressStatus&quot; class=&quot;name&quot;&gt;addressStatus&lt;/span&gt;&lt;span style=&quot;box-sizing: border-box; min-width: 0px; min-height: 0px; flex-shrink: 0;&quot; class=&quot;separator&quot;&gt;: &lt;/span&gt;&lt;span style=&quot;box-sizing: border-box; min-width: 0px; min-height: 0px; unicode-bidi: -webkit-isolate; color: var(--color-syntax-1);&quot; title=&quot;valid&quot; class=&quot;object-value-string value&quot;&gt;&quot;valid&quot;&lt;/span&gt;&lt;/span&gt;&lt;/li&gt;&lt;li style=&quot;box-sizing: border-box; min-width: 0px; min-height: 16px; text-overflow: ellipsis; position: relative; display: flex; align-items: center; user-select: text;&quot; data-object-property-name-for-test=&quot;city&quot; role=&quot;treeitem&quot;&gt;&lt;span style=&quot;box-sizing: border-box; min-width: 0px; min-height: 0px; overflow: hidden; line-height: 16px; display: flex;&quot; class=&quot;name-and-value&quot;&gt;&lt;span style=&quot;box-sizing: border-box; min-width: 0px; min-height: 0px; color: var(--color-syntax-2); flex-shrink: 0;&quot; title=&quot;customerAddress.city&quot; class=&quot;name&quot;&gt;city&lt;/span&gt;&lt;span style=&quot;box-sizing: border-box; min-width: 0px; min-height: 0px; flex-shrink: 0;&quot; class=&quot;separator&quot;&gt;: &lt;/span&gt;&lt;span style=&quot;box-sizing: border-box; min-width: 0px; min-height: 0px; unicode-bidi: -webkit-isolate; color: var(--color-syntax-1);&quot; title=&quot;Shelton&quot; class=&quot;object-value-string value&quot;&gt;&quot;Shelton&quot;&lt;/span&gt;&lt;/span&gt;&lt;/li&gt;&lt;li style=&quot;box-sizing: border-box; min-width: 0px; min-height: 16px; text-overflow: ellipsis; position: relative; display: flex; align-items: center; user-select: text;&quot; data-object-property-name-for-test=&quot;country&quot; role=&quot;treeitem&quot;&gt;&lt;span style=&quot;box-sizing: border-box; min-width: 0px; min-height: 0px; overflow: hidden; line-height: 16px; display: flex;&quot; class=&quot;name-and-value&quot;&gt;&lt;span style=&quot;box-sizing: border-box; min-width: 0px; min-height: 0px; color: var(--color-syntax-2); flex-shrink: 0;&quot; title=&quot;customerAddress.country&quot; class=&quot;name&quot;&gt;country&lt;/span&gt;&lt;span style=&quot;box-sizing: border-box; min-width: 0px; min-height: 0px; flex-shrink: 0;&quot; class=&quot;separator&quot;&gt;: &lt;/span&gt;&lt;span style=&quot;box-sizing: border-box; min-width: 0px; min-height: 0px; unicode-bidi: -webkit-isolate; color: var(--color-syntax-1);&quot; title=&quot;US&quot; class=&quot;object-value-string value&quot;&gt;&quot;US&quot;&lt;/span&gt;&lt;/span&gt;&lt;/li&gt;&lt;li style=&quot;box-sizing: border-box; min-width: 0px; min-height: 16px; text-overflow: ellipsis; position: relative; display: flex; align-items: center; user-select: text;&quot; data-object-property-name-for-test=&quot;displayCountry&quot; role=&quot;treeitem&quot;&gt;&lt;span style=&quot;box-sizing: border-box; min-width: 0px; min-height: 0px; overflow: hidden; line-height: 16px; display: flex;&quot; class=&quot;name-and-value&quot;&gt;&lt;span style=&quot;box-sizing: border-box; min-width: 0px; min-height: 0px; color: var(--color-syntax-2); flex-shrink: 0;&quot; title=&quot;customerAddress.displayCountry&quot; class=&quot;name&quot;&gt;displayCountry&lt;/span&gt;&lt;span style=&quot;box-sizing: border-box; min-width: 0px; min-height: 0px; flex-shrink: 0;&quot; class=&quot;separator&quot;&gt;: &lt;/span&gt;&lt;span style=&quot;box-sizing: border-box; min-width: 0px; min-height: 0px; unicode-bidi: -webkit-isolate; color: var(--color-syntax-1);&quot; title=&quot;USA&quot; class=&quot;object-value-string value&quot;&gt;&quot;USA&quot;&lt;/span&gt;&lt;/span&gt;&lt;/li&gt;&lt;li style=&quot;box-sizing: border-box; min-width: 0px; min-height: 16px; text-overflow: ellipsis; position: relative; display: flex; align-items: center; user-select: text;&quot; data-object-property-name-for-test=&quot;formattedAddress1&quot; role=&quot;treeitem&quot;&gt;&lt;span style=&quot;box-sizing: border-box; min-width: 0px; min-height: 0px; overflow: hidden; line-height: 16px; display: flex;&quot; class=&quot;name-and-value&quot;&gt;&lt;span style=&quot;box-sizing: border-box; min-width: 0px; min-height: 0px; color: var(--color-syntax-2); flex-shrink: 0;&quot; title=&quot;customerAddress.formattedAddress1&quot; class=&quot;name&quot;&gt;formattedAddress1&lt;/span&gt;&lt;span style=&quot;box-sizing: border-box; min-width: 0px; min-height: 0px; flex-shrink: 0;&quot; class=&quot;separator&quot;&gt;: &lt;/span&gt;&lt;span style=&quot;box-sizing: border-box; min-width: 0px; min-height: 0px; unicode-bidi: -webkit-isolate; color: var(--color-syntax-1);&quot; title=&quot;31 Pine Street&quot; class=&quot;object-value-string value&quot;&gt;&quot;31 Pine Street&quot;&lt;/span&gt;&lt;/span&gt;&lt;/li&gt;&lt;li style=&quot;box-sizing: border-box; min-width: 0px; min-height: 16px; text-overflow: ellipsis; position: relative; display: flex; align-items: center; user-select: text;&quot; data-object-property-name-for-test=&quot;formattedAddress2&quot; role=&quot;treeitem&quot;&gt;&lt;span style=&quot;box-sizing: border-box; min-width: 0px; min-height: 0px; overflow: hidden; line-height: 16px; display: flex;&quot; class=&quot;name-and-value&quot;&gt;&lt;span style=&quot;box-sizing: border-box; min-width: 0px; min-height: 0px; color: var(--color-syntax-2); flex-shrink: 0;&quot; title=&quot;customerAddress.formattedAddress2&quot; class=&quot;name&quot;&gt;formattedAddress2&lt;/span&gt;&lt;span style=&quot;box-sizing: border-box; min-width: 0px; min-height: 0px; flex-shrink: 0;&quot; class=&quot;separator&quot;&gt;: &lt;/span&gt;&lt;span style=&quot;box-sizing: border-box; min-width: 0px; min-height: 0px; unicode-bidi: -webkit-isolate; color: var(--color-syntax-1);&quot; title=&quot;fswefr&quot; class=&quot;object-value-string value&quot;&gt;&quot;fswefr&quot;&lt;/span&gt;&lt;/span&gt;&lt;/li&gt;&lt;li style=&quot;box-sizing: border-box; min-width: 0px; min-height: 16px; text-overflow: ellipsis; position: relative; display: flex; align-items: center; user-select: text;&quot; data-object-property-name-for-test=&quot;id&quot; role=&quot;treeitem&quot;&gt;&lt;span style=&quot;box-sizing: border-box; min-width: 0px; min-height: 0px; overflow: hidden; line-height: 16px; display: flex;&quot; class=&quot;name-and-value&quot;&gt;&lt;span style=&quot;box-sizing: border-box; min-width: 0px; min-height: 0px; color: var(--color-syntax-2); flex-shrink: 0;&quot; title=&quot;customerAddress.id&quot; class=&quot;name&quot;&gt;id&lt;/span&gt;&lt;span style=&quot;box-sizing: border-box; min-width: 0px; min-height: 0px; flex-shrink: 0;&quot; class=&quot;separator&quot;&gt;: &lt;/span&gt;&lt;span style=&quot;box-sizing: border-box; min-width: 0px; min-height: 0px; unicode-bidi: -webkit-isolate; color: var(--color-syntax-1);&quot; title=&quot;268448793&quot; class=&quot;object-value-string value&quot;&gt;&quot;268448793&quot;&lt;/span&gt;&lt;/span&gt;&lt;/li&gt;&lt;li style=&quot;box-sizing: border-box; min-width: 0px; min-height: 16px; text-overflow: ellipsis; position: relative; display: flex; align-items: center; user-select: text;&quot; data-object-property-name-for-test=&quot;stateOrProvince&quot; role=&quot;treeitem&quot;&gt;&lt;span style=&quot;box-sizing: border-box; min-width: 0px; min-height: 0px; overflow: hidden; line-height: 16px; display: flex;&quot; class=&quot;name-and-value&quot;&gt;&lt;span style=&quot;box-sizing: border-box; min-width: 0px; min-height: 0px; color: var(--color-syntax-2); flex-shrink: 0;&quot; title=&quot;customerAddress.stateOrProvince&quot; class=&quot;name&quot;&gt;stateOrProvince&lt;/span&gt;&lt;span style=&quot;box-sizing: border-box; min-width: 0px; min-height: 0px; flex-shrink: 0;&quot; class=&quot;separator&quot;&gt;: &lt;/span&gt;&lt;span style=&quot;box-sizing: border-box; min-width: 0px; min-height: 0px; unicode-bidi: -webkit-isolate; color: var(--color-syntax-1);&quot; title=&quot;WA&quot; class=&quot;object-value-string value&quot;&gt;&quot;WA&quot;&lt;/span&gt;&lt;/span&gt;&lt;/li&gt;&lt;li style=&quot;box-sizing: border-box; min-width: 0px; min-height: 16px; text-overflow: ellipsis; position: relative; display: flex; align-items: center; user-select: text;&quot; data-object-property-name-for-test=&quot;zipCode&quot; role=&quot;treeitem&quot;&gt;&lt;span style=&quot;box-sizing: border-box; min-width: 0px; min-height: 0px; overflow: hidden; line-height: 16px; display: flex;&quot; class=&quot;name-and-value&quot;&gt;&lt;span style=&quot;box-sizing: border-box; min-width: 0px; min-height: 0px; color: var(--color-syntax-2); flex-shrink: 0;&quot; title=&quot;customerAddress.zipCode&quot; class=&quot;name&quot;&gt;zipCode&lt;/span&gt;&lt;span style=&quot;box-sizing: border-box; min-width: 0px; min-height: 0px; flex-shrink: 0;&quot; class=&quot;separator&quot;&gt;: &lt;/span&gt;&lt;span style=&quot;box-sizing: border-box; min-width: 0px; min-height: 0px; unicode-bidi: -webkit-isolate; color: var(--color-syntax-1);&quot; title=&quot;98584&quot; class=&quot;object-value-string value&quot;&gt;&quot;98584&quot;&lt;/span&gt;&lt;/span&gt;&lt;/li&gt;&lt;li style=&quot;box-sizing: border-box; min-width: 0px; min-height: 16px; text-overflow: ellipsis; position: relative; display: flex; align-items: center; user-select: text;&quot; data-object-property-name-for-test=&quot;zipCode&quot; role=&quot;treeitem&quot;&gt;&lt;span style=&quot;box-sizing: border-box; min-width: 0px; min-height: 0px; unicode-bidi: -webkit-isolate; color: var(--color-syntax-1);&quot; title=&quot;98584&quot; class=&quot;object-value-string value&quot;&gt;}&lt;/span&gt;&lt;/li&gt;&lt;/ol&gt;&lt;li style=&quot;box-sizing: border-box; min-width: 0px; min-height: 16px; text-overflow: ellipsis; position: relative; display: flex; align-items: center; user-select: text;&quot; data-object-property-name-for-test=&quot;customerId&quot; role=&quot;treeitem&quot;&gt;&lt;span style=&quot;box-sizing: border-box; min-width: 0px; min-height: 0px; overflow: hidden; line-height: 16px; display: flex;&quot; class=&quot;name-and-value&quot;&gt;&lt;span style=&quot;box-sizing: border-box; min-width: 0px; min-height: 0px; color: var(--color-syntax-2); flex-shrink: 0;&quot; title=&quot;customerId&quot; class=&quot;name&quot;&gt;customerId&lt;/span&gt;&lt;span style=&quot;box-sizing: border-box; min-width: 0px; min-height: 0px; flex-shrink: 0;&quot; class=&quot;separator&quot;&gt;: &lt;/span&gt;&lt;span style=&quot;box-sizing: border-box; min-width: 0px; min-height: 0px; unicode-bidi: -webkit-isolate; color: var(--color-syntax-1);&quot; title=&quot;100000410&quot; class=&quot;object-value-string value&quot;&gt;&quot;100000410&quot;&lt;/span&gt;&lt;/span&gt;&lt;/li&gt;&lt;li style=&quot;box-sizing: border-box; min-width: 0px; min-height: 16px; text-overflow: ellipsis; position: relative; display: flex; align-items: center; user-select: text;&quot; data-object-property-name-for-test=&quot;faId&quot; role=&quot;treeitem&quot;&gt;&lt;span style=&quot;box-sizing: border-box; min-width: 0px; min-height: 0px; overflow: hidden; line-height: 16px; display: flex;&quot; class=&quot;name-and-value&quot;&gt;&lt;span style=&quot;box-sizing: border-box; min-width: 0px; min-height: 0px; color: var(--color-syntax-2); flex-shrink: 0;&quot; title=&quot;faId&quot; class=&quot;name&quot;&gt;faId&lt;/span&gt;&lt;span style=&quot;box-sizing: border-box; min-width: 0px; min-height: 0px; flex-shrink: 0;&quot; class=&quot;separator&quot;&gt;: &lt;/span&gt;&lt;span style=&quot;box-sizing: border-box; min-width: 0px; min-height: 0px; unicode-bidi: -webkit-isolate; color: var(--color-syntax-1);&quot; title=&quot;500000375&quot; class=&quot;object-value-string value&quot;&gt;&quot;500000375&quot;&lt;/span&gt;&lt;/span&gt;&lt;/li&gt;&lt;li style=&quot;box-sizing: border-box; min-width: 0px; min-height: 16px; text-overflow: ellipsis; position: relative; display: flex; align-items: center; user-select: text;&quot; data-object-property-name-for-test=&quot;isAddressEqual&quot; role=&quot;treeitem&quot;&gt;&lt;span style=&quot;box-sizing: border-box; min-width: 0px; min-height: 0px; overflow: hidden; line-height: 16px; display: flex;&quot; class=&quot;name-and-value&quot;&gt;&lt;span style=&quot;box-sizing: border-box; min-width: 0px; min-height: 0px; color: var(--color-syntax-2); flex-shrink: 0;&quot; title=&quot;isAddressEqual&quot; class=&quot;name&quot;&gt;isAddressEqual&lt;/span&gt;&lt;span style=&quot;box-sizing: border-box; min-width: 0px; min-height: 0px; flex-shrink: 0;&quot; class=&quot;separator&quot;&gt;: &lt;/span&gt;&lt;span style=&quot;box-sizing: border-box; min-width: 0px; min-height: 0px; color: var(--color-syntax-3);&quot; title=&quot;false&quot; class=&quot;object-value-boolean value&quot;&gt;false&lt;/span&gt;&lt;/span&gt;&lt;/li&gt;&lt;li style=&quot;box-sizing: border-box; min-width: 0px; min-height: 16px; text-overflow: ellipsis; position: relative; display: flex; align-items: center; user-select: text;&quot; aria-expanded=&quot;true&quot; class=&quot;parent expanded&quot; data-object-property-name-for-test=&quot;mfaDevices&quot; role=&quot;treeitem&quot;&gt;&lt;span style=&quot;box-sizing: border-box; min-width: 0px; min-height: 0px; overflow: hidden; line-height: 16px; display: flex;&quot; class=&quot;name-and-value&quot;&gt;&lt;span style=&quot;box-sizing: border-box; min-width: 0px; min-height: 0px; color: var(--color-syntax-2); flex-shrink: 0;&quot; title=&quot;mfaDevices&quot; class=&quot;name&quot;&gt;mfaDevices&lt;/span&gt;&lt;span style=&quot;box-sizing: border-box; min-width: 0px; min-height: 0px; flex-shrink: 0;&quot; class=&quot;separator&quot;&gt;: &lt;/span&gt;&lt;span style=&quot;box-sizing: border-box; min-width: 0px; min-height: 0px;&quot; title=&quot;[{deviceId: 10000000000, deviceType: &amp;quot;EMAIL&amp;quot;, isPrimary: false, resourceValue: &amp;quot;snehilj@amdocs.com&amp;quot;},…]&quot; class=&quot;object-value-array value&quot;&gt;[&lt;/span&gt;&lt;/span&gt;&lt;/li&gt;&lt;ol style=&quot;box-sizing: border-box; min-width: 0px; min-height: 0px; list-style-type: none; padding-left: 12px;&quot; role=&quot;group&quot; class=&quot;children expanded&quot;&gt;&lt;li style=&quot;box-sizing: border-box; min-width: 0px; min-height: 16px; text-overflow: ellipsis; position: relative; display: flex; align-items: center; user-select: text;&quot; aria-expanded=&quot;true&quot; class=&quot;parent expanded&quot; data-object-property-name-for-test=&quot;0&quot; role=&quot;treeitem&quot;&gt;&lt;span style=&quot;box-sizing: border-box; min-width: 0px; min-height: 0px; overflow: hidden; line-height: 16px; display: flex;&quot; class=&quot;name-and-value&quot;&gt;&lt;span style=&quot;box-sizing: border-box; min-width: 0px; min-height: 0px; color: var(--color-syntax-2); flex-shrink: 0;&quot; title=&quot;mfaDevices[0]&quot; class=&quot;name&quot;&gt;0&lt;/span&gt;&lt;span style=&quot;box-sizing: border-box; min-width: 0px; min-height: 0px; flex-shrink: 0;&quot; class=&quot;separator&quot;&gt;: &lt;/span&gt;&lt;span style=&quot;box-sizing: border-box; min-width: 0px; min-height: 0px;&quot; title=&quot;{deviceId: 10000000000, deviceType: &amp;quot;EMAIL&amp;quot;, isPrimary: false, resourceValue: &amp;quot;snehilj@amdocs.com&amp;quot;}&quot; class=&quot;object-value-object value&quot;&gt;{deviceId: 10000000000, deviceType: &quot;EMAIL&quot;, isPrimary: false, resourceValue: &quot;snehilj@amdocs.com&quot;}&lt;/span&gt;&lt;/span&gt;&lt;/li&gt;&lt;ol style=&quot;box-sizing: border-box; min-width: 0px; min-height: 0px; list-style-type: none; padding-left: 12px;&quot; role=&quot;group&quot; class=&quot;children expanded&quot;&gt;&lt;li style=&quot;box-sizing: border-box; min-width: 0px; min-height: 16px; text-overflow: ellipsis; position: relative; display: flex; align-items: center; user-select: text;&quot; data-object-property-name-for-test=&quot;deviceId&quot; role=&quot;treeitem&quot;&gt;&lt;span style=&quot;box-sizing: border-box; min-width: 0px; min-height: 0px; overflow: hidden; line-height: 16px; display: flex;&quot; class=&quot;name-and-value&quot;&gt;&lt;span style=&quot;box-sizing: border-box; min-width: 0px; min-height: 0px; color: var(--color-syntax-2); flex-shrink: 0;&quot; title=&quot;mfaDevices[0].deviceId&quot; class=&quot;name&quot;&gt;deviceId&lt;/span&gt;&lt;span style=&quot;box-sizing: border-box; min-width: 0px; min-height: 0px; flex-shrink: 0;&quot; class=&quot;separator&quot;&gt;: &lt;/span&gt;&lt;span style=&quot;box-sizing: border-box; min-width: 0px; min-height: 0px; color: var(--color-syntax-3);&quot; title=&quot;10000000000&quot; class=&quot;object-value-number value&quot;&gt;10000000000&lt;/span&gt;&lt;/span&gt;&lt;/li&gt;&lt;li style=&quot;box-sizing: border-box; min-width: 0px; min-height: 16px; text-overflow: ellipsis; position: relative; display: flex; align-items: center; user-select: text;&quot; data-object-property-name-for-test=&quot;deviceType&quot; role=&quot;treeitem&quot;&gt;&lt;span style=&quot;box-sizing: border-box; min-width: 0px; min-height: 0px; overflow: hidden; line-height: 16px; display: flex;&quot; class=&quot;name-and-value&quot;&gt;&lt;span style=&quot;box-sizing: border-box; min-width: 0px; min-height: 0px; color: var(--color-syntax-2); flex-shrink: 0;&quot; title=&quot;mfaDevices[0].deviceType&quot; class=&quot;name&quot;&gt;deviceType&lt;/span&gt;&lt;span style=&quot;box-sizing: border-box; min-width: 0px; min-height: 0px; flex-shrink: 0;&quot; class=&quot;separator&quot;&gt;: &lt;/span&gt;&lt;span style=&quot;box-sizing: border-box; min-width: 0px; min-height: 0px; unicode-bidi: -webkit-isolate; color: var(--color-syntax-1);&quot; title=&quot;EMAIL&quot; class=&quot;object-value-string value&quot;&gt;&quot;EMAIL&quot;&lt;/span&gt;&lt;/span&gt;&lt;/li&gt;&lt;li style=&quot;box-sizing: border-box; min-width: 0px; min-height: 16px; text-overflow: ellipsis; position: relative; display: flex; align-items: center; user-select: text;&quot; data-object-property-name-for-test=&quot;isPrimary&quot; role=&quot;treeitem&quot;&gt;&lt;span style=&quot;box-sizing: border-box; min-width: 0px; min-height: 0px; overflow: hidden; line-height: 16px; display: flex;&quot; class=&quot;name-and-value&quot;&gt;&lt;span style=&quot;box-sizing: border-box; min-width: 0px; min-height: 0px; color: var(--color-syntax-2); flex-shrink: 0;&quot; title=&quot;mfaDevices[0].isPrimary&quot; class=&quot;name&quot;&gt;isPrimary&lt;/span&gt;&lt;span style=&quot;box-sizing: border-box; min-width: 0px; min-height: 0px; flex-shrink: 0;&quot; class=&quot;separator&quot;&gt;: &lt;/span&gt;&lt;span style=&quot;box-sizing: border-box; min-width: 0px; min-height: 0px; color: var(--color-syntax-3);&quot; title=&quot;false&quot; class=&quot;object-value-boolean value&quot;&gt;false&lt;/span&gt;&lt;/span&gt;&lt;/li&gt;&lt;li style=&quot;box-sizing: border-box; min-width: 0px; min-height: 16px; text-overflow: ellipsis; position: relative; display: flex; align-items: center; user-select: text;&quot; data-object-property-name-for-test=&quot;resourceValue&quot; role=&quot;treeitem&quot;&gt;&lt;span style=&quot;box-sizing: border-box; min-width: 0px; min-height: 0px; overflow: hidden; line-height: 16px; display: flex;&quot; class=&quot;name-and-value&quot;&gt;&lt;span style=&quot;box-sizing: border-box; min-width: 0px; min-height: 0px; color: var(--color-syntax-2); flex-shrink: 0;&quot; title=&quot;mfaDevices[0].resourceValue&quot; class=&quot;name&quot;&gt;resourceValue&lt;/span&gt;&lt;span style=&quot;box-sizing: border-box; min-width: 0px; min-height: 0px; flex-shrink: 0;&quot; class=&quot;separator&quot;&gt;: &lt;/span&gt;&lt;span style=&quot;box-sizing: border-box; min-width: 0px; min-height: 0px; unicode-bidi: -webkit-isolate; color: var(--color-syntax-1);&quot; title=&quot;snehilj@amdocs.com&quot; class=&quot;object-value-string value&quot;&gt;&quot;snehilj@amdocs.com&quot;&lt;/span&gt;&lt;/span&gt;&lt;/li&gt;&lt;/ol&gt;&lt;li style=&quot;box-sizing: border-box; min-width: 0px; min-height: 16px; text-overflow: ellipsis; position: relative; display: flex; align-items: center; user-select: text;&quot; aria-expanded=&quot;true&quot; class=&quot;parent expanded&quot; data-object-property-name-for-test=&quot;1&quot; role=&quot;treeitem&quot;&gt;&lt;span style=&quot;box-sizing: border-box; min-width: 0px; min-height: 0px; overflow: hidden; line-height: 16px; display: flex;&quot; class=&quot;name-and-value&quot;&gt;&lt;span style=&quot;box-sizing: border-box; min-width: 0px; min-height: 0px; color: var(--color-syntax-2); flex-shrink: 0;&quot; title=&quot;mfaDevices[1]&quot; class=&quot;name&quot;&gt;1&lt;/span&gt;&lt;span style=&quot;box-sizing: border-box; min-width: 0px; min-height: 0px; flex-shrink: 0;&quot; class=&quot;separator&quot;&gt;: &lt;/span&gt;&lt;span style=&quot;box-sizing: border-box; min-width: 0px; min-height: 0px;&quot; title=&quot;{deviceId: 30000000000, deviceType: &amp;quot;SMS&amp;quot;, isPrimary: true, resourceValue: &amp;quot;5140001234&amp;quot;}&quot; class=&quot;object-value-object value&quot;&gt;{deviceId: 30000000000, deviceType: &quot;SMS&quot;, isPrimary: true, resourceValue: &quot;5140001234&quot;}&lt;/span&gt;&lt;/span&gt;&lt;/li&gt;&lt;ol style=&quot;box-sizing: border-box; min-width: 0px; min-height: 0px; list-style-type: none; padding-left: 12px;&quot; role=&quot;group&quot; class=&quot;children expanded&quot;&gt;&lt;li style=&quot;box-sizing: border-box; min-width: 0px; min-height: 16px; text-overflow: ellipsis; position: relative; display: flex; align-items: center; user-select: text;&quot; data-object-property-name-for-test=&quot;deviceId&quot; role=&quot;treeitem&quot;&gt;&lt;span style=&quot;box-sizing: border-box; min-width: 0px; min-height: 0px; overflow: hidden; line-height: 16px; display: flex;&quot; class=&quot;name-and-value&quot;&gt;&lt;span style=&quot;box-sizing: border-box; min-width: 0px; min-height: 0px; color: var(--color-syntax-2); flex-shrink: 0;&quot; title=&quot;mfaDevices[1].deviceId&quot; class=&quot;name&quot;&gt;deviceId&lt;/span&gt;&lt;span style=&quot;box-sizing: border-box; min-width: 0px; min-height: 0px; flex-shrink: 0;&quot; class=&quot;separator&quot;&gt;: &lt;/span&gt;&lt;span style=&quot;box-sizing: border-box; min-width: 0px; min-height: 0px; color: var(--color-syntax-3);&quot; title=&quot;30000000000&quot; class=&quot;object-value-number value&quot;&gt;30000000000&lt;/span&gt;&lt;/span&gt;&lt;/li&gt;&lt;li style=&quot;box-sizing: border-box; min-width: 0px; min-height: 16px; text-overflow: ellipsis; position: relative; display: flex; align-items: center; user-select: text;&quot; data-object-property-name-for-test=&quot;deviceType&quot; role=&quot;treeitem&quot;&gt;&lt;span style=&quot;box-sizing: border-box; min-width: 0px; min-height: 0px; overflow: hidden; line-height: 16px; display: flex;&quot; class=&quot;name-and-value&quot;&gt;&lt;span style=&quot;box-sizing: border-box; min-width: 0px; min-height: 0px; color: var(--color-syntax-2); flex-shrink: 0;&quot; title=&quot;mfaDevices[1].deviceType&quot; class=&quot;name&quot;&gt;deviceType&lt;/span&gt;&lt;span style=&quot;box-sizing: border-box; min-width: 0px; min-height: 0px; flex-shrink: 0;&quot; class=&quot;separator&quot;&gt;: &lt;/span&gt;&lt;span style=&quot;box-sizing: border-box; min-width: 0px; min-height: 0px; unicode-bidi: -webkit-isolate; color: var(--color-syntax-1);&quot; title=&quot;SMS&quot; class=&quot;object-value-string value&quot;&gt;&quot;SMS&quot;&lt;/span&gt;&lt;/span&gt;&lt;/li&gt;&lt;li style=&quot;box-sizing: border-box; min-width: 0px; min-height: 16px; text-overflow: ellipsis; position: relative; display: flex; align-items: center; user-select: text;&quot; data-object-property-name-for-test=&quot;isPrimary&quot; role=&quot;treeitem&quot;&gt;&lt;span style=&quot;box-sizing: border-box; min-width: 0px; min-height: 0px; overflow: hidden; line-height: 16px; display: flex;&quot; class=&quot;name-and-value&quot;&gt;&lt;span style=&quot;box-sizing: border-box; min-width: 0px; min-height: 0px; color: var(--color-syntax-2); flex-shrink: 0;&quot; title=&quot;mfaDevices[1].isPrimary&quot; class=&quot;name&quot;&gt;isPrimary&lt;/span&gt;&lt;span style=&quot;box-sizing: border-box; min-width: 0px; min-height: 0px; flex-shrink: 0;&quot; class=&quot;separator&quot;&gt;: &lt;/span&gt;&lt;span style=&quot;box-sizing: border-box; min-width: 0px; min-height: 0px; color: var(--color-syntax-3);&quot; title=&quot;true&quot; class=&quot;object-value-boolean value&quot;&gt;true&lt;/span&gt;&lt;/span&gt;&lt;/li&gt;&lt;li style=&quot;box-sizing: border-box; min-width: 0px; min-height: 16px; text-overflow: ellipsis; position: relative; display: flex; align-items: center; user-select: text;&quot; data-object-property-name-for-test=&quot;resourceValue&quot; role=&quot;treeitem&quot;&gt;&lt;span style=&quot;box-sizing: border-box; min-width: 0px; min-height: 0px; overflow: hidden; line-height: 16px; display: flex;&quot; class=&quot;name-and-value&quot;&gt;&lt;span style=&quot;box-sizing: border-box; min-width: 0px; min-height: 0px; color: var(--color-syntax-2); flex-shrink: 0;&quot; title=&quot;mfaDevices[1].resourceValue&quot; class=&quot;name&quot;&gt;resourceValue&lt;/span&gt;&lt;span style=&quot;box-sizing: border-box; min-width: 0px; min-height: 0px; flex-shrink: 0;&quot; class=&quot;separator&quot;&gt;: &lt;/span&gt;&lt;span style=&quot;box-sizing: border-box; min-width: 0px; min-height: 0px; unicode-bidi: -webkit-isolate; color: var(--color-syntax-1);&quot; title=&quot;5140001234&quot; class=&quot;object-value-string value&quot;&gt;&quot;5140001234&quot;&lt;/span&gt;&lt;/span&gt;&lt;/li&gt;&lt;li style=&quot;box-sizing: border-box; min-width: 0px; min-height: 16px; text-overflow: ellipsis; position: relative; display: flex; align-items: center; user-select: text;&quot; data-object-property-name-for-test=&quot;resourceValue&quot; role=&quot;treeitem&quot;&gt;&lt;span style=&quot;box-sizing: border-box; min-width: 0px; min-height: 0px; unicode-bidi: -webkit-isolate; color: var(--color-syntax-1);&quot; title=&quot;5140001234&quot; class=&quot;object-value-string value&quot;&gt;]&lt;/span&gt;&lt;/li&gt;&lt;/ol&gt;&lt;/ol&gt;&lt;li style=&quot;box-sizing: border-box; min-width: 0px; min-height: 16px; outline-width: 0px; text-overflow: ellipsis; position: relative; display: flex; align-items: center; user-select: text;&quot; aria-selected=&quot;true&quot; class=&quot;selected&quot; tabindex=&quot;0&quot; data-object-property-name-for-test=&quot;userName&quot; role=&quot;treeitem&quot;&gt;&lt;span style=&quot;box-sizing: border-box; min-width: 0px; min-height: 0px; overflow: hidden; line-height: 16px; display: flex;&quot; class=&quot;name-and-value&quot;&gt;&lt;span style=&quot;box-sizing: border-box; min-width: 0px; min-height: 0px; color: var(--color-syntax-2); flex-shrink: 0;&quot; title=&quot;userName&quot; class=&quot;name&quot;&gt;userName&lt;/span&gt;&lt;span style=&quot;box-sizing: border-box; min-width: 0px; min-height: 0px; flex-shrink: 0;&quot; class=&quot;separator&quot;&gt;: &lt;/span&gt;&lt;span style=&quot;box-sizing: border-box; min-width: 0px; min-height: 0px; unicode-bidi: -webkit-isolate; color: var(--color-syntax-1);&quot; title=&quot;100000410&quot; class=&quot;object-value-string value&quot;&gt;&quot;100000410&quot;&lt;/span&gt;&lt;/span&gt;&lt;/li&gt;&lt;li style=&quot;box-sizing: border-box; min-width: 0px; min-height: 16px; outline-width: 0px; text-overflow: ellipsis; position: relative; display: flex; align-items: center; user-select: text;&quot; aria-selected=&quot;true&quot; class=&quot;selected&quot; tabindex=&quot;0&quot; data-object-property-name-for-test=&quot;userName&quot; role=&quot;treeitem&quot;&gt;&lt;span style=&quot;box-sizing: border-box; min-width: 0px; min-height: 0px; unicode-bidi: -webkit-isolate; color: var(--color-syntax-1);&quot; title=&quot;100000410&quot; class=&quot;object-value-string value&quot;&gt;}&lt;/span&gt;&lt;/li&gt;&lt;/ol&gt;" style="text;strokeColor=none;fillColor=none;align=left;verticalAlign=middle;spacingLeft=4;spacingRight=4;overflow=hidden;points=[[0,0.5],[1,0.5]];portConstraint=eastwest;rotatable=0;whiteSpace=wrap;html=1;" vertex="1" parent="UKE3LF2oUU9fScmGRMiw-18">
          <mxGeometry y="90" width="840" height="660" as="geometry" />
        </mxCell>
        <mxCell id="UKE3LF2oUU9fScmGRMiw-21" style="edgeStyle=orthogonalEdgeStyle;rounded=0;orthogonalLoop=1;jettySize=auto;html=1;" edge="1" parent="WIyWlLk6GJQsqaUBKTNV-1" source="5if4ORg1gCNdznczgkPr-5" target="UKE3LF2oUU9fScmGRMiw-15">
          <mxGeometry relative="1" as="geometry">
            <Array as="points">
              <mxPoint x="1580" y="670" />
              <mxPoint x="1580" y="730" />
            </Array>
          </mxGeometry>
        </mxCell>
        <mxCell id="UKE3LF2oUU9fScmGRMiw-22" style="edgeStyle=orthogonalEdgeStyle;rounded=0;orthogonalLoop=1;jettySize=auto;html=1;entryX=0.729;entryY=-0.001;entryDx=0;entryDy=0;entryPerimeter=0;" edge="1" parent="WIyWlLk6GJQsqaUBKTNV-1" source="5if4ORg1gCNdznczgkPr-7" target="UKE3LF2oUU9fScmGRMiw-18">
          <mxGeometry relative="1" as="geometry" />
        </mxCell>
      </root>
    </mxGraphModel>
  </diagram>
</mxfile>
